<svg width="512" height="512" viewBox="0 0 512 512" fill="none" xmlns="http://www.w3.org/2000/svg">
<g clip-path="url(#clip0_3515_3818)">
<path d="M256 366.293C241.983 366.318 228.099 363.581 215.141 358.236C202.182 352.892 190.404 345.046 180.48 335.147L6.18704 160.853C2.16989 156.836 -0.0869141 151.388 -0.0869141 145.707C-0.0869141 140.026 2.16989 134.577 6.18704 130.56C10.2042 126.543 15.6526 124.286 21.3337 124.286C27.0148 124.286 32.4632 126.543 36.4804 130.56L210.774 304.853C222.774 316.839 239.04 323.57 256 323.57C272.96 323.57 289.227 316.839 301.227 304.853L475.52 130.56C479.538 126.543 484.986 124.286 490.667 124.286C496.348 124.286 501.797 126.543 505.814 130.56C509.831 134.577 512.088 140.026 512.088 145.707C512.088 151.388 509.831 156.836 505.814 160.853L331.52 335.147C321.596 345.046 309.818 352.892 296.86 358.236C283.902 363.581 270.017 366.318 256 366.293Z" fill="#A6A6A6"/>
</g>
<defs>
<clipPath id="clip0_3515_3818">
<rect width="512" height="512" fill="white"/>
</clipPath>
</defs>
</svg>
