<svg width="512" height="512" viewBox="0 0 512 512" fill="none" xmlns="http://www.w3.org/2000/svg">
<g clip-path="url(#clip0_3515_3685)">
<path d="M256 0C205.368 0 155.873 15.0141 113.774 43.1438C71.6751 71.2734 38.863 111.255 19.487 158.033C0.110921 204.811 -4.95873 256.284 4.91908 305.943C14.7969 355.602 39.1785 401.217 74.9808 437.019C110.783 472.822 156.398 497.203 206.057 507.081C255.716 516.959 307.189 511.889 353.967 492.513C400.745 473.137 440.727 440.325 468.856 398.226C496.986 356.127 512 306.632 512 256C511.927 188.127 484.932 123.055 436.938 75.0618C388.945 27.0683 323.873 0.0734097 256 0ZM256 469.333C213.807 469.333 172.561 456.822 137.478 433.38C102.396 409.939 75.0525 376.621 58.9058 337.639C42.7591 298.658 38.5344 255.763 46.7659 214.381C54.9974 172.998 75.3155 134.986 105.151 105.151C134.986 75.3154 172.998 54.9973 214.381 46.7658C255.763 38.5343 298.658 42.759 337.639 58.9057C376.621 75.0524 409.939 102.396 433.38 137.478C456.822 172.561 469.333 213.807 469.333 256C469.271 312.56 446.775 366.787 406.781 406.781C366.787 446.775 312.561 469.271 256 469.333Z" fill="#A6A6A6"/>
<path d="M256 106.667C250.342 106.667 244.916 108.915 240.915 112.915C236.914 116.916 234.667 122.342 234.667 128V298.667C234.667 304.325 236.914 309.751 240.915 313.752C244.916 317.753 250.342 320 256 320C261.658 320 267.084 317.753 271.085 313.752C275.086 309.751 277.333 304.325 277.333 298.667V128C277.333 122.342 275.086 116.916 271.085 112.915C267.084 108.915 261.658 106.667 256 106.667Z" fill="#A6A6A6"/>
<path d="M277.333 384C277.333 372.218 267.782 362.667 256 362.667C244.218 362.667 234.667 372.218 234.667 384C234.667 395.782 244.218 405.334 256 405.334C267.782 405.334 277.333 395.782 277.333 384Z" fill="#A6A6A6"/>
</g>
<defs>
<clipPath id="clip0_3515_3685">
<rect width="512" height="512" fill="white"/>
</clipPath>
</defs>
</svg>
