<svg width="512" height="512" viewBox="0 0 512 512" fill="none" xmlns="http://www.w3.org/2000/svg">
<g clip-path="url(#clip0_3515_3693)">
<path d="M490.667 469.333H106.667C89.6928 469.333 73.4142 462.591 61.4118 450.588C49.4095 438.586 42.6667 422.307 42.6667 405.333V21.3333C42.6667 15.6754 40.4191 10.2492 36.4183 6.24839C32.4175 2.24761 26.9913 0 21.3333 0C15.6754 0 10.2492 2.24761 6.24839 6.24839C2.24761 10.2492 0 15.6754 0 21.3333L0 405.333C0.0338743 433.613 11.2828 460.724 31.2794 480.721C51.2759 500.717 78.3873 511.966 106.667 512H490.667C496.325 512 501.751 509.752 505.752 505.752C509.752 501.751 512 496.325 512 490.667C512 485.009 509.752 479.582 505.752 475.582C501.751 471.581 496.325 469.333 490.667 469.333Z" fill="#A6A6A6"/>
<path d="M128 426.667C133.658 426.667 139.084 424.419 143.085 420.419C147.086 416.418 149.334 410.992 149.334 405.334V256C149.334 250.342 147.086 244.916 143.085 240.915C139.084 236.915 133.658 234.667 128 234.667C122.342 234.667 116.916 236.915 112.915 240.915C108.915 244.916 106.667 250.342 106.667 256V405.334C106.667 410.992 108.915 416.418 112.915 420.419C116.916 424.419 122.342 426.667 128 426.667Z" fill="#A6A6A6"/>
<path d="M213.333 213.333V405.333C213.333 410.991 215.581 416.418 219.581 420.418C223.582 424.419 229.008 426.667 234.666 426.667C240.324 426.667 245.751 424.419 249.751 420.418C253.752 416.418 256 410.991 256 405.333V213.333C256 207.675 253.752 202.249 249.751 198.248C245.751 194.248 240.324 192 234.666 192C229.008 192 223.582 194.248 219.581 198.248C215.581 202.249 213.333 207.675 213.333 213.333Z" fill="#A6A6A6"/>
<path d="M320 277.333V405.333C320 410.991 322.248 416.418 326.248 420.418C330.249 424.419 335.675 426.667 341.333 426.667C346.991 426.667 352.418 424.419 356.418 420.418C360.419 416.418 362.667 410.991 362.667 405.333V277.333C362.667 271.675 360.419 266.249 356.418 262.248C352.418 258.248 346.991 256 341.333 256C335.675 256 330.249 258.248 326.248 262.248C322.248 266.249 320 271.675 320 277.333Z" fill="#A6A6A6"/>
<path d="M426.667 192V405.334C426.667 410.992 428.915 416.418 432.915 420.419C436.916 424.419 442.342 426.667 448 426.667C453.658 426.667 459.085 424.419 463.085 420.419C467.086 416.418 469.334 410.992 469.334 405.334V192C469.334 186.342 467.086 180.916 463.085 176.915C459.085 172.915 453.658 170.667 448 170.667C442.342 170.667 436.916 172.915 432.915 176.915C428.915 180.916 426.667 186.342 426.667 192Z" fill="#A6A6A6"/>
<path d="M128 192C133.657 191.998 139.083 189.75 143.082 185.749L219.584 109.248C223.65 105.374 229.05 103.213 234.666 103.213C240.282 103.213 245.683 105.374 249.749 109.248L296.085 155.584C308.087 167.582 324.363 174.322 341.333 174.322C358.304 174.322 374.579 167.582 386.581 155.584L505.749 36.4156C509.635 32.3921 511.785 27.0032 511.737 21.4097C511.688 15.8161 509.445 10.4655 505.489 6.51011C501.534 2.55474 496.183 0.311131 490.59 0.262525C484.996 0.213919 479.607 2.3642 475.584 6.25024L356.416 125.397C352.415 129.396 346.99 131.643 341.333 131.643C335.676 131.643 330.251 129.396 326.25 125.397L279.914 79.0822C267.913 67.0841 251.637 60.3439 234.666 60.3439C217.696 60.3439 201.42 67.0841 189.418 79.0822L112.917 155.584C109.934 158.567 107.903 162.368 107.081 166.506C106.258 170.643 106.68 174.932 108.295 178.83C109.909 182.727 112.642 186.059 116.15 188.403C119.657 190.747 123.781 191.999 128 192Z" fill="#A6A6A6"/>
</g>
<defs>
<clipPath id="clip0_3515_3693">
<rect width="512" height="512" fill="white"/>
</clipPath>
</defs>
</svg>
