<svg width="512" height="512" viewBox="0 0 512 512" fill="none" xmlns="http://www.w3.org/2000/svg">
<g clip-path="url(#clip0_3515_3700)">
<path d="M335.083 207.083L286.165 256L335.083 304.917C343.424 313.259 343.424 326.741 335.083 335.083C330.923 339.243 325.461 341.333 320 341.333C314.539 341.333 309.077 339.243 304.917 335.083L256 286.165L207.083 335.083C202.923 339.243 197.461 341.333 192 341.333C186.539 341.333 181.077 339.243 176.917 335.083C168.576 326.741 168.576 313.259 176.917 304.917L225.835 256L176.917 207.083C168.576 198.741 168.576 185.259 176.917 176.917C185.259 168.576 198.741 168.576 207.083 176.917L256 225.835L304.917 176.917C313.259 168.576 326.741 168.576 335.083 176.917C343.424 185.259 343.424 198.741 335.083 207.083ZM512 256C512 397.163 397.163 512 256 512C114.837 512 0 397.163 0 256C0 114.837 114.837 0 256 0C397.163 0 512 114.837 512 256ZM469.333 256C469.333 138.368 373.632 42.6667 256 42.6667C138.368 42.6667 42.6667 138.368 42.6667 256C42.6667 373.632 138.368 469.333 256 469.333C373.632 469.333 469.333 373.632 469.333 256Z" fill="#A6A6A6"/>
</g>
<defs>
<clipPath id="clip0_3515_3700">
<rect width="512" height="512" fill="white"/>
</clipPath>
</defs>
</svg>
