<svg width="512" height="512" viewBox="0 0 512 512" fill="none" xmlns="http://www.w3.org/2000/svg">
<g clip-path="url(#clip0_3515_3702)">
<path d="M512 256C512 267.797 502.443 277.333 490.667 277.333H21.3333C9.55733 277.333 0 267.797 0 256C0 244.203 9.55733 234.667 21.3333 234.667H490.667C502.443 234.667 512 244.203 512 256ZM225.835 179.499C234.155 187.819 245.077 191.979 256 191.979C266.923 191.979 277.845 187.819 286.165 179.499L356.416 109.248C364.757 100.907 364.757 87.424 356.416 79.0827C348.075 70.7413 334.592 70.7413 326.251 79.0827L277.333 128V21.3333C277.333 9.536 267.776 0 256 0C244.224 0 234.667 9.536 234.667 21.3333V128L185.749 79.0827C177.408 70.7413 163.925 70.7413 155.584 79.0827C147.243 87.424 147.243 100.907 155.584 109.248L225.835 179.499ZM286.165 332.501C269.547 315.883 242.453 315.883 225.835 332.501L155.584 402.752C147.243 411.093 147.243 424.576 155.584 432.917C163.925 441.259 177.408 441.259 185.749 432.917L234.667 384V490.667C234.667 502.464 244.224 512 256 512C267.776 512 277.333 502.464 277.333 490.667V384L326.251 432.917C330.411 437.077 335.872 439.168 341.333 439.168C346.795 439.168 352.256 437.077 356.416 432.917C364.757 424.576 364.757 411.093 356.416 402.752L286.165 332.501Z" fill="#A6A6A6"/>
</g>
<defs>
<clipPath id="clip0_3515_3702">
<rect width="512" height="512" fill="white"/>
</clipPath>
</defs>
</svg>
