<svg width="512" height="512" viewBox="0 0 512 512" fill="none" xmlns="http://www.w3.org/2000/svg">
<g clip-path="url(#clip0_3515_3712)">
<path d="M510.955 262.4L495.915 155.733C492.218 130.345 479.537 107.126 460.175 90.2926C440.813 73.4597 416.056 64.1306 390.4 64H106.667C78.3873 64.0339 51.2759 75.2828 31.2794 95.2794C11.2828 115.276 0.0338743 142.387 0 170.667L0 277.333C0.0338743 305.613 11.2828 332.724 31.2794 352.721C51.2759 372.717 78.3873 383.966 106.667 384H164.523L205.355 466.731C212.219 480.674 223.867 491.685 238.173 497.756C252.48 503.827 268.492 504.553 283.29 499.802C298.087 495.05 310.683 485.138 318.781 471.873C326.879 458.608 329.939 442.874 327.403 427.541L320.235 384H405.333C420.603 384.001 435.695 380.723 449.589 374.388C463.483 368.054 475.855 358.81 485.868 347.281C495.882 335.753 503.303 322.209 507.631 307.565C511.959 292.922 513.092 277.52 510.955 262.4ZM106.667 106.667H149.333V341.333H106.667C89.6928 341.333 73.4142 334.591 61.4118 322.588C49.4095 310.586 42.6667 294.307 42.6667 277.333V170.667C42.6667 153.693 49.4095 137.414 61.4118 125.412C73.4142 113.41 89.6928 106.667 106.667 106.667ZM453.632 319.317C447.625 326.229 440.205 331.771 431.873 335.569C423.541 339.367 414.49 341.332 405.333 341.333H295.104C292.01 341.333 288.952 342.005 286.144 343.304C283.335 344.603 280.843 346.497 278.84 348.856C276.837 351.214 275.371 353.98 274.543 356.962C273.716 359.943 273.547 363.069 274.048 366.123L285.312 434.389C285.853 437.558 285.688 440.807 284.829 443.905C283.97 447.002 282.437 449.872 280.341 452.309C277.884 454.959 274.832 456.987 271.438 458.227C268.044 459.466 264.404 459.883 260.817 459.441C257.23 459 253.8 457.713 250.808 455.687C247.815 453.661 245.347 450.953 243.605 447.787L196.907 353.237C195.675 350.873 194.01 348.76 192 347.008V106.667H390.4C405.808 106.723 420.683 112.314 432.314 122.421C443.944 132.528 451.555 146.478 453.76 161.728L468.821 268.395C470.085 277.475 469.382 286.721 466.762 295.507C464.141 304.293 459.663 312.413 453.632 319.317Z" fill="#A6A6A6"/>
</g>
<defs>
<clipPath id="clip0_3515_3712">
<rect width="512" height="512" fill="white"/>
</clipPath>
</defs>
</svg>
