<svg width="512" height="512" viewBox="0 0 512 512" fill="none" xmlns="http://www.w3.org/2000/svg">
<g clip-path="url(#clip0_3515_3725)">
<path d="M398.08 445.867C389.333 437.973 375.68 438.827 368 447.787C355.84 461.653 338.347 469.547 320 469.547H106.667C71.4667 469.547 42.6667 440.747 42.6667 405.547V106.667C42.6667 71.4667 71.4667 42.6667 106.667 42.6667H202.88C206.293 42.6667 209.92 42.6667 213.333 43.0933V149.333C213.333 184.533 242.133 213.333 277.333 213.333H401.28C407.893 213.333 414.08 210.347 418.133 205.013C422.187 199.68 423.467 193.067 421.973 186.667C415.36 160.64 401.92 136.96 382.933 117.973L308.693 43.7333C280.533 15.5733 242.987 0 203.093 0H106.667C47.7867 0 0 47.7867 0 106.667V405.333C0 464.213 47.7867 512 106.667 512H320C350.507 512 379.733 498.773 400 475.947C407.893 467.2 407.04 453.547 398.08 445.867ZM256 56.7467C264.107 61.44 271.573 67.2 278.4 74.0267L352.64 148.267C359.253 154.88 365.013 162.56 369.707 170.667H277.12C265.387 170.667 255.787 161.067 255.787 149.333V56.7467H256ZM493.44 385.92L459.093 420.267C454.827 424.533 449.493 426.453 443.947 426.453C438.4 426.453 433.067 424.32 428.8 420.267C420.48 411.947 420.48 398.507 428.8 390.187L456.32 362.667H298.453C286.72 362.667 277.12 353.067 277.12 341.333C277.12 329.6 286.72 320 298.453 320H456.32L428.8 292.48C420.48 284.16 420.48 270.72 428.8 262.4C437.12 254.08 450.56 254.08 458.88 262.4L493.227 296.747C517.76 321.28 517.76 361.387 493.227 386.133L493.44 385.92Z" fill="#A6A6A6"/>
</g>
<defs>
<clipPath id="clip0_3515_3725">
<rect width="512" height="512" fill="white"/>
</clipPath>
</defs>
</svg>
