<svg width="512" height="512" viewBox="0 0 512 512" fill="none" xmlns="http://www.w3.org/2000/svg">
<g clip-path="url(#clip0_3515_3730)">
<path d="M480 84.8213H414.165C409.946 84.8222 405.823 86.0739 402.315 88.4181C398.808 90.7623 396.074 94.0937 394.46 97.9913C392.846 101.889 392.423 106.178 393.246 110.315C394.069 114.453 396.1 118.254 399.082 121.237L422.25 144.405L345.749 220.885C341.684 224.77 336.278 226.938 330.656 226.938C325.033 226.938 319.627 224.77 315.562 220.885L311.936 217.237C299.746 205.591 283.536 199.092 266.677 199.092C249.818 199.092 233.608 205.591 221.418 217.237L112.618 326.037C108.61 330.057 106.362 335.505 106.37 341.182C106.378 346.859 108.641 352.301 112.661 356.309C116.681 360.318 122.129 362.565 127.806 362.557C133.483 362.549 138.924 360.287 142.933 356.267L251.733 247.467C255.795 243.577 261.202 241.406 266.826 241.406C272.45 241.406 277.857 243.577 281.92 247.467L285.546 251.115C297.741 262.751 313.949 269.244 330.805 269.244C347.661 269.244 363.869 262.751 376.064 251.115L452.565 174.613L475.733 197.781C478.727 200.716 482.518 202.703 486.635 203.495C490.751 204.288 495.009 203.85 498.878 202.236C502.747 200.623 506.055 197.905 508.389 194.423C510.722 190.94 511.978 186.848 512 182.656V116.821C512 108.334 508.628 100.195 502.627 94.1939C496.626 88.1927 488.487 84.8213 480 84.8213Z" fill="#A6A6A6"/>
<path d="M490.667 468.821H106.667C89.6928 468.821 73.4142 462.079 61.4118 450.076C49.4095 438.074 42.6667 421.795 42.6667 404.821V21.3333C42.6667 15.6754 40.4191 10.2492 36.4183 6.24839C32.4175 2.24761 26.9913 0 21.3333 0C15.6754 0 10.2492 2.24761 6.24839 6.24839C2.24761 10.2492 0 15.6754 0 21.3333L0 404.821C0.0338743 433.101 11.2828 460.212 31.2794 480.209C51.2759 500.205 78.3873 511.454 106.667 511.488H490.667C496.325 511.488 501.751 509.24 505.752 505.24C509.752 501.239 512 495.813 512 490.155C512 484.497 509.752 479.07 505.752 475.07C501.751 471.069 496.325 468.821 490.667 468.821Z" fill="#A6A6A6"/>
</g>
<defs>
<clipPath id="clip0_3515_3730">
<rect width="512" height="512" fill="white"/>
</clipPath>
</defs>
</svg>
