<svg width="512" height="512" viewBox="0 0 512 512" fill="none" xmlns="http://www.w3.org/2000/svg">
<g clip-path="url(#clip0_3515_3733)">
<path d="M373.333 40.8965C349.311 41.2701 325.812 47.976 305.211 60.3369C284.609 72.6978 267.634 90.2761 256 111.296C244.365 90.2761 227.39 72.6978 206.789 60.3369C186.187 47.976 162.689 41.2701 138.666 40.8965C100.372 42.5603 64.2922 59.3126 38.3098 87.4934C12.3274 115.674 -1.44558 152.993 -0.000238754 191.296C-0.000238754 288.299 102.101 394.241 187.733 466.07C206.852 482.137 231.026 490.945 256 490.945C280.974 490.945 305.147 482.137 324.266 466.07C409.898 394.241 512 288.299 512 191.296C513.445 152.993 499.672 115.674 473.69 87.4934C447.707 59.3126 411.628 42.5603 373.333 40.8965ZM296.853 433.43C285.418 443.059 270.949 448.34 256 448.34C241.05 448.34 226.581 443.059 215.146 433.43C105.536 341.462 42.6664 253.227 42.6664 191.296C41.2081 164.304 50.4822 137.829 68.4662 117.647C86.4501 97.4654 111.685 85.2133 138.666 83.5632C165.648 85.2133 190.883 97.4654 208.867 117.647C226.851 137.829 236.125 164.304 234.666 191.296C234.666 196.954 236.914 202.381 240.915 206.381C244.916 210.382 250.342 212.63 256 212.63C261.658 212.63 267.084 210.382 271.085 206.381C275.085 202.381 277.333 196.954 277.333 191.296C275.875 164.304 285.149 137.829 303.133 117.647C321.117 97.4654 346.351 85.2133 373.333 83.5632C400.315 85.2133 425.549 97.4654 443.533 117.647C461.517 137.829 470.791 164.304 469.333 191.296C469.333 253.227 406.464 341.462 296.853 433.344V433.43Z" fill="#A6A6A6"/>
</g>
<defs>
<clipPath id="clip0_3515_3733">
<rect width="512" height="512" fill="white"/>
</clipPath>
</defs>
</svg>
