<svg width="512" height="512" viewBox="0 0 512 512" fill="none" xmlns="http://www.w3.org/2000/svg">
<g clip-path="url(#clip0_3515_3735)">
<path d="M493.248 193.472L331.435 31.6374C311.408 11.6692 284.281 0.456055 256 0.456055C227.719 0.456055 200.592 11.6692 180.566 31.6374L18.7523 193.472C12.788 199.398 8.05935 206.449 4.84042 214.216C1.62149 221.983 -0.0236885 230.312 0.000257696 238.72V448.149C0.000257696 465.123 6.7431 481.402 18.7454 493.404C30.7478 505.407 47.0264 512.149 64.0003 512.149H448C464.974 512.149 481.253 505.407 493.255 493.404C505.257 481.402 512 465.123 512 448.149V238.72C512.024 230.312 510.379 221.983 507.16 214.216C503.941 206.449 499.213 199.398 493.248 193.472ZM320 469.483H192V385.557C192 368.584 198.743 352.305 210.745 340.303C222.748 328.3 239.026 321.557 256 321.557C272.974 321.557 289.253 328.3 301.255 340.303C313.257 352.305 320 368.584 320 385.557V469.483ZM469.334 448.149C469.334 453.807 467.086 459.234 463.085 463.234C459.084 467.235 453.658 469.483 448 469.483H362.667V385.557C362.667 357.268 351.429 330.137 331.425 310.133C311.421 290.129 284.29 278.891 256 278.891C227.711 278.891 200.579 290.129 180.576 310.133C160.572 330.137 149.334 357.268 149.334 385.557V469.483H64.0003C58.3423 469.483 52.9161 467.235 48.9153 463.234C44.9145 459.234 42.6669 453.807 42.6669 448.149V238.72C42.6867 233.066 44.9323 227.648 48.9176 223.637L210.731 61.8667C222.757 49.8972 239.033 43.1775 256 43.1775C272.967 43.1775 289.244 49.8972 301.27 61.8667L463.083 223.701C467.053 227.696 469.297 233.089 469.334 238.72V448.149Z" fill="#A6A6A6"/>
</g>
<defs>
<clipPath id="clip0_3515_3735">
<rect width="512" height="512" fill="white"/>
</clipPath>
</defs>
</svg>
