<svg width="512" height="512" viewBox="0 0 512 512" fill="none" xmlns="http://www.w3.org/2000/svg">
<g clip-path="url(#clip0_3515_3737)">
<path d="M192 117.333C192 99.6267 206.293 85.3333 224 85.3333C241.706 85.3333 256 99.6267 256 117.333C256 135.04 241.706 149.333 224 149.333C206.293 149.333 192 135.04 192 117.333ZM512 106.667V234.667C512 293.547 464.213 341.333 405.333 341.333H213.333C154.453 341.333 106.666 293.547 106.666 234.667V106.667C106.666 47.7867 154.453 0 213.333 0H405.333C464.213 0 512 47.7867 512 106.667ZM149.333 234.667C149.333 251.093 155.52 266.027 165.76 277.547L277.547 165.76C298.453 144.853 334.933 144.853 355.84 165.76L378.026 187.947C382.933 192.853 391.253 192.853 396.16 187.947L469.333 114.773V106.667C469.333 71.4667 440.533 42.6667 405.333 42.6667H213.333C178.133 42.6667 149.333 71.4667 149.333 106.667V234.667ZM469.333 234.667V175.147L426.24 218.24C405.333 239.147 368.853 239.147 347.946 218.24L325.76 196.053C320.853 191.147 312.746 191.147 307.626 196.053L205.44 298.24C208 298.667 210.56 298.667 213.333 298.667H405.333C440.533 298.667 469.333 269.867 469.333 234.667ZM385.92 384.853C374.613 381.653 362.88 388.48 359.68 399.787L353.493 422.4C349.013 438.827 338.346 452.693 323.413 461.013C308.48 469.547 291.2 471.68 274.773 467.2L89.5998 416.427C55.4665 407.04 35.4132 371.84 44.7998 337.707L65.2798 261.76C68.2665 250.453 61.6531 238.72 50.3465 235.52C39.0398 232.533 27.3065 239.147 24.1065 250.453L3.83982 326.187C-11.7335 382.933 21.7598 441.813 78.5065 457.387L263.68 508.16C273.066 510.72 282.666 512 292.053 512C310.4 512 328.32 507.307 344.746 497.92C369.493 483.84 387.2 461.013 394.88 433.493L401.066 410.88C404.266 399.573 397.44 387.84 386.133 384.64L385.92 384.853Z" fill="#A6A6A6"/>
</g>
<defs>
<clipPath id="clip0_3515_3737">
<rect width="512" height="512" fill="white"/>
</clipPath>
</defs>
</svg>
