<svg width="512" height="512" viewBox="0 0 512 512" fill="none" xmlns="http://www.w3.org/2000/svg">
<g clip-path="url(#clip0_3515_3744)">
<path d="M485.824 164.714C475.821 153.186 463.457 143.942 449.57 137.607C435.683 131.273 420.597 127.996 405.333 128H320.235L327.403 84.4583C329.939 69.1252 326.879 53.3913 318.781 40.1263C310.683 26.8613 298.087 16.9492 283.29 12.1978C268.492 7.44643 252.48 8.17241 238.173 14.2433C223.867 20.3142 212.219 31.3256 205.355 45.2689L164.523 128H106.667C78.3873 128.033 51.2759 139.282 31.2794 159.279C11.2828 179.275 0.0338743 206.387 0 234.666L0 341.333C0.0338743 369.612 11.2828 396.724 31.2794 416.72C51.2759 436.717 78.3873 447.966 106.667 448H390.4C416.074 447.895 440.857 438.577 460.241 421.742C479.625 404.906 492.322 381.672 496.021 356.266L511.061 249.6C513.179 234.469 512.022 219.059 507.668 204.414C503.314 189.769 495.865 176.23 485.824 164.714ZM42.6667 341.333V234.666C42.6667 217.692 49.4095 201.414 61.4118 189.411C73.4142 177.409 89.6928 170.666 106.667 170.666H149.333V405.333H106.667C89.6928 405.333 73.4142 398.59 61.4118 386.588C49.4095 374.585 42.6667 358.307 42.6667 341.333ZM468.715 243.605L453.653 350.272C451.451 365.503 443.855 379.439 432.247 389.544C420.639 399.648 405.79 405.251 390.4 405.333H192V164.992C194.01 163.24 195.675 161.127 196.907 158.762L243.605 64.1489C245.357 60.9901 247.832 58.2919 250.829 56.2761C253.826 54.2603 257.259 52.9844 260.845 52.5534C264.431 52.1223 268.068 52.5483 271.457 53.7964C274.847 55.0445 277.891 57.0791 280.341 59.7329C282.437 62.1702 283.97 65.04 284.829 68.1376C285.688 71.2352 285.853 74.4842 285.312 77.6529L274.048 145.92C273.554 148.97 273.728 152.091 274.558 155.067C275.389 158.044 276.856 160.804 278.859 163.158C280.861 165.511 283.351 167.401 286.156 168.698C288.961 169.994 292.014 170.666 295.104 170.666H405.333C414.494 170.665 423.548 172.63 431.884 176.429C440.219 180.228 447.642 185.773 453.651 192.687C459.66 199.602 464.114 207.726 466.713 216.51C469.311 225.294 469.994 234.534 468.715 243.605Z" fill="#A6A6A6"/>
</g>
<defs>
<clipPath id="clip0_3515_3744">
<rect width="512" height="512" fill="white"/>
</clipPath>
</defs>
</svg>
