<svg width="512" height="512" viewBox="0 0 512 512" fill="none" xmlns="http://www.w3.org/2000/svg">
<g clip-path="url(#clip0_3515_3746)">
<path d="M167.147 344.96C162.24 340.054 157.632 334.678 153.472 329.003C146.539 319.488 148.629 306.134 158.165 299.2C167.68 292.267 181.013 294.358 187.968 303.872C190.72 307.67 193.813 311.318 197.291 314.774C214.421 331.904 237.184 341.334 261.397 341.334C285.611 341.334 308.395 331.904 325.504 314.774L442.837 197.44C478.187 162.091 478.187 104.555 442.837 69.2056C407.488 33.8562 349.952 33.8562 314.603 69.2056L292.032 91.7762C283.691 100.118 270.208 100.118 261.867 91.7762C253.525 83.4349 253.525 69.9522 261.867 61.6109L284.437 39.0402C336.427 -12.9704 421.013 -12.9704 473.003 39.0402C524.992 91.0296 524.992 175.616 473.003 227.606L355.669 344.939C330.496 370.134 297.003 384 261.397 384C225.792 384 192.299 370.134 167.147 344.96ZM133.397 512C169.024 512 202.496 498.134 227.669 472.939L250.24 450.368C258.581 442.048 258.581 428.544 250.24 420.203C241.92 411.862 228.416 411.883 220.075 420.203L197.483 442.774C180.352 459.904 157.589 469.334 133.376 469.334C109.163 469.334 86.4 459.904 69.2693 442.774C52.1386 425.643 42.7093 402.88 42.7093 378.667C42.7093 354.454 52.1386 331.67 69.2693 314.56L186.603 197.227C203.733 180.096 226.496 170.667 250.709 170.667C274.923 170.667 297.707 180.096 314.816 197.227C318.229 200.662 321.344 204.31 324.117 208.107C331.029 217.643 344.363 219.776 353.92 212.822C363.456 205.888 365.568 192.555 358.635 183.019C354.581 177.43 349.995 172.075 345.003 167.083C319.808 141.867 286.315 128 250.709 128C215.104 128 181.611 141.867 156.437 167.062L39.1253 284.395C13.9306 309.568 0.0639648 343.062 0.0639648 378.667C0.0639648 414.272 13.9306 447.766 39.1253 472.939C64.2986 498.134 97.7706 512 133.397 512Z" fill="#A6A6A6"/>
</g>
<defs>
<clipPath id="clip0_3515_3746">
<rect width="512" height="512" fill="white"/>
</clipPath>
</defs>
</svg>
