<svg width="512" height="512" viewBox="0 0 512 512" fill="none" xmlns="http://www.w3.org/2000/svg">
<g clip-path="url(#clip0_3515_3755)">
<path d="M496.192 345.6L440.726 145.685C428.881 102.921 403.073 65.3471 367.409 38.9438C331.745 12.5405 288.273 -1.17486 243.914 -0.0194574C199.555 1.13595 156.857 17.0957 122.615 45.3199C88.3738 73.544 64.5568 112.41 54.9548 155.733L12.0535 348.8C9.97759 358.154 10.0282 367.854 12.2017 377.185C14.3751 386.516 18.6158 395.24 24.611 402.714C30.6062 410.187 38.2029 416.22 46.8405 420.365C55.4782 424.511 64.9365 426.664 74.5175 426.667H151.467C156.363 450.78 169.445 472.458 188.496 488.03C207.547 503.601 231.395 512.107 256 512.107C280.605 512.107 304.453 503.601 323.504 488.03C342.555 472.458 355.637 450.78 360.534 426.667H434.56C444.418 426.662 454.142 424.38 462.974 419.999C471.805 415.618 479.505 409.256 485.473 401.409C491.44 393.562 495.515 384.443 497.378 374.762C499.241 365.082 498.821 355.101 496.192 345.6ZM256 469.333C242.811 469.279 229.96 465.15 219.207 457.513C208.453 449.875 200.322 439.102 195.925 426.667H316.075C311.678 439.102 303.547 449.875 292.794 457.513C282.04 465.15 269.19 469.279 256 469.333ZM451.52 375.573C449.53 378.212 446.95 380.348 443.987 381.811C441.023 383.275 437.758 384.024 434.453 384H74.5175C71.3231 384 68.1695 383.282 65.2897 381.899C62.4098 380.517 59.8772 378.506 57.8786 376.014C55.8801 373.522 54.4667 370.613 53.7428 367.501C53.0189 364.39 53.003 361.156 53.6961 358.037L96.5975 164.971C104.157 130.97 122.865 100.472 149.749 78.3243C176.632 56.177 210.147 43.6517 244.966 42.7396C279.785 41.8274 313.91 52.5807 341.916 73.2901C369.922 93.9995 390.201 123.476 399.531 157.035L454.997 356.949C455.903 360.111 456.06 363.439 455.457 366.672C454.853 369.904 453.506 372.952 451.52 375.573Z" fill="#A6A6A6"/>
</g>
<defs>
<clipPath id="clip0_3515_3755">
<rect width="512" height="512" fill="white"/>
</clipPath>
</defs>
</svg>
