<svg width="512" height="512" viewBox="0 0 512 512" fill="none" xmlns="http://www.w3.org/2000/svg">
<g clip-path="url(#clip0_3515_3763)">
<path d="M490.667 234.667H277.333V21.3333C277.333 15.6754 275.086 10.2492 271.085 6.24839C267.084 2.24761 261.658 0 256 0C250.342 0 244.916 2.24761 240.915 6.24839C236.914 10.2492 234.667 15.6754 234.667 21.3333V234.667H21.3333C15.6754 234.667 10.2492 236.914 6.24839 240.915C2.24761 244.916 0 250.342 0 256C0 261.658 2.24761 267.084 6.24839 271.085C10.2492 275.086 15.6754 277.333 21.3333 277.333H234.667V490.667C234.667 496.325 236.914 501.751 240.915 505.752C244.916 509.752 250.342 512 256 512C261.658 512 267.084 509.752 271.085 505.752C275.086 501.751 277.333 496.325 277.333 490.667V277.333H490.667C496.325 277.333 501.751 275.086 505.752 271.085C509.752 267.084 512 261.658 512 256C512 250.342 509.752 244.916 505.752 240.915C501.751 236.914 496.325 234.667 490.667 234.667Z" fill="#A6A6A6"/>
</g>
<defs>
<clipPath id="clip0_3515_3763">
<rect width="512" height="512" fill="white"/>
</clipPath>
</defs>
</svg>
