<svg width="512" height="512" viewBox="0 0 512 512" fill="none" xmlns="http://www.w3.org/2000/svg">
<g clip-path="url(#clip0_3515_3778)">
<path d="M396.395 45.6536L262.741 1.08825C258.365 -0.369262 253.635 -0.369262 249.259 1.08825L115.605 45.6536C94.3552 52.7124 75.8701 66.2884 62.7763 84.4527C49.6825 102.617 42.646 124.446 42.6665 146.838V256C42.6665 417.344 238.933 506.454 247.339 510.166C250.065 511.377 253.016 512.003 256 512.003C258.984 512.003 261.934 511.377 264.661 510.166C273.067 506.454 469.333 417.344 469.333 256V146.838C469.354 124.446 462.317 102.617 449.223 84.4527C436.13 66.2884 417.645 52.7124 396.395 45.6536ZM426.667 256C426.667 372.374 291.861 448.704 256 466.966C220.096 448.768 85.3332 372.672 85.3332 256V146.838C85.3345 133.404 89.5631 120.31 97.4199 109.413C105.277 98.5164 116.363 90.3681 129.109 86.1229L256 43.8189L382.891 86.1229C395.636 90.3681 406.723 98.5164 414.58 109.413C422.437 120.31 426.665 133.404 426.667 146.838V256Z" fill="#A6A6A6"/>
<path d="M326.4 177.066L237.056 266.666L189.184 216.746C187.263 214.646 184.94 212.951 182.354 211.762C179.768 210.572 176.97 209.913 174.125 209.822C171.279 209.731 168.445 210.21 165.788 211.231C163.131 212.253 160.705 213.795 158.653 215.769C156.601 217.742 154.965 220.106 153.842 222.721C152.718 225.337 152.129 228.151 152.109 230.997C152.089 233.844 152.64 236.665 153.727 239.296C154.815 241.927 156.418 244.313 158.442 246.314L207.637 297.514C211.306 301.477 215.74 304.654 220.672 306.855C225.604 309.055 230.931 310.232 236.33 310.314H237.034C242.326 310.332 247.569 309.298 252.458 307.273C257.347 305.248 261.785 302.271 265.514 298.517L356.65 207.381C358.641 205.395 360.221 203.036 361.3 200.439C362.378 197.842 362.935 195.058 362.938 192.246C362.941 189.434 362.39 186.649 361.317 184.05C360.244 181.451 358.669 179.089 356.682 177.098C354.696 175.108 352.337 173.528 349.741 172.449C347.144 171.37 344.36 170.814 341.548 170.811C338.736 170.808 335.951 171.359 333.352 172.432C330.753 173.505 328.39 175.08 326.4 177.066Z" fill="#A6A6A6"/>
</g>
<defs>
<clipPath id="clip0_3515_3778">
<rect width="512" height="512" fill="white"/>
</clipPath>
</defs>
</svg>
