<svg width="512" height="512" viewBox="0 0 512 512" fill="none" xmlns="http://www.w3.org/2000/svg">
<g clip-path="url(#clip0_3515_3784)">
<path d="M512 490.667C512 502.464 502.443 512 490.667 512H213.333C201.557 512 192 502.464 192 490.667C192 478.869 201.557 469.333 213.333 469.333H490.667C502.443 469.333 512 478.869 512 490.667ZM192 384C192 395.797 201.557 405.333 213.333 405.333H426.667C438.443 405.333 448 395.797 448 384C448 372.203 438.443 362.667 426.667 362.667H213.333C201.557 362.667 192 372.203 192 384ZM192 277.333C192 289.131 201.557 298.667 213.333 298.667H362.667C374.443 298.667 384 289.131 384 277.333C384 265.536 374.443 256 362.667 256H213.333C201.557 256 192 265.536 192 277.333ZM192 170.667C192 182.464 201.557 192 213.333 192H298.667C310.443 192 320 182.464 320 170.667C320 158.869 310.443 149.333 298.667 149.333H213.333C201.557 149.333 192 158.869 192 170.667ZM194.581 70.2506L136.811 12.4586C120.192 -4.11744 93.1413 -4.13878 76.4799 12.4586L18.7306 70.2506C10.3893 78.5919 10.3893 92.0746 18.7306 100.416C27.0719 108.757 40.5759 108.757 48.8959 100.416L85.3333 63.9786V490.667C85.3333 502.464 94.8906 512 106.667 512C118.443 512 128 502.464 128 490.667V63.9786L164.416 100.416C168.576 104.576 174.037 106.667 179.499 106.667C184.96 106.667 190.421 104.576 194.581 100.416C202.923 92.0746 202.923 78.5919 194.581 70.2506Z" fill="#A6A6A6"/>
</g>
<defs>
<clipPath id="clip0_3515_3784">
<rect width="512" height="512" fill="white"/>
</clipPath>
</defs>
</svg>
