<svg width="512" height="512" viewBox="0 0 512 512" fill="none" xmlns="http://www.w3.org/2000/svg">
<g clip-path="url(#clip0_3515_3788)">
<path d="M490.667 469.333H64C58.342 469.333 52.9158 467.086 48.9151 463.085C44.9143 459.084 42.6667 453.658 42.6667 448V21.3333C42.6667 15.6754 40.4191 10.2492 36.4183 6.24839C32.4175 2.24761 26.9913 0 21.3333 0C15.6754 0 10.2492 2.24761 6.24839 6.24839C2.24761 10.2492 0 15.6754 0 21.3333L0 448C0 464.974 6.74284 481.253 18.7452 493.255C30.7475 505.257 47.0261 512 64 512H490.667C496.325 512 501.751 509.752 505.752 505.752C509.752 501.751 512 496.325 512 490.667C512 485.009 509.752 479.582 505.752 475.582C501.751 471.581 496.325 469.333 490.667 469.333Z" fill="#A6A6A6"/>
<path d="M320 426.667C325.658 426.667 331.084 424.419 335.085 420.419C339.086 416.418 341.334 410.992 341.334 405.334V256C341.334 250.342 339.086 244.916 335.085 240.915C331.084 236.915 325.658 234.667 320 234.667C314.342 234.667 308.916 236.915 304.915 240.915C300.915 244.916 298.667 250.342 298.667 256V405.334C298.667 410.992 300.915 416.418 304.915 420.419C308.916 424.419 314.342 426.667 320 426.667Z" fill="#A6A6A6"/>
<path d="M149.333 426.667C154.991 426.667 160.417 424.419 164.418 420.419C168.419 416.418 170.667 410.992 170.667 405.334V256C170.667 250.342 168.419 244.916 164.418 240.915C160.417 236.915 154.991 234.667 149.333 234.667C143.675 234.667 138.249 236.915 134.248 240.915C130.248 244.916 128 250.342 128 256V405.334C128 410.992 130.248 416.418 134.248 420.419C138.249 424.419 143.675 426.667 149.333 426.667Z" fill="#A6A6A6"/>
<path d="M405.333 426.667C410.991 426.667 416.418 424.419 420.418 420.418C424.419 416.418 426.667 410.991 426.667 405.333V149.333C426.667 143.675 424.419 138.249 420.418 134.248C416.418 130.248 410.991 128 405.333 128C399.675 128 394.249 130.248 390.248 134.248C386.248 138.249 384 143.675 384 149.333V405.333C384 410.991 386.248 416.418 390.248 420.418C394.249 424.419 399.675 426.667 405.333 426.667Z" fill="#A6A6A6"/>
<path d="M234.666 426.667C240.324 426.667 245.751 424.419 249.751 420.418C253.752 416.418 256 410.991 256 405.333V149.333C256 143.675 253.752 138.249 249.751 134.248C245.751 130.248 240.324 128 234.666 128C229.008 128 223.582 130.248 219.581 134.248C215.581 138.249 213.333 143.675 213.333 149.333V405.333C213.333 410.991 215.581 416.418 219.581 420.418C223.582 424.419 229.008 426.667 234.666 426.667Z" fill="#A6A6A6"/>
</g>
<defs>
<clipPath id="clip0_3515_3788">
<rect width="512" height="512" fill="white"/>
</clipPath>
</defs>
</svg>
