<svg width="512" height="512" viewBox="0 0 512 512" fill="none" xmlns="http://www.w3.org/2000/svg">
<path d="M405.333 42.667H106.667C47.8507 42.667 0 90.5177 0 149.334V362.667C0 421.483 47.8507 469.334 106.667 469.334H405.333C464.149 469.334 512 421.483 512 362.667V149.334C512 90.5177 464.149 42.667 405.333 42.667ZM42.6667 213.334H128V298.667H42.6667V213.334ZM170.667 213.334H469.333V298.667H170.667V213.334ZM469.333 149.334V170.667H170.667V85.3337H405.333C440.619 85.3337 469.333 114.048 469.333 149.334ZM106.667 85.3337H128V170.667H42.6667V149.334C42.6667 114.048 71.3813 85.3337 106.667 85.3337ZM42.6667 362.667V341.334H128V426.667H106.667C71.3813 426.667 42.6667 397.952 42.6667 362.667ZM405.333 426.667H170.667V341.334H469.333V362.667C469.333 397.952 440.619 426.667 405.333 426.667Z" fill="#A6A6A6"/>
</svg>
