<svg width="512" height="512" viewBox="0 0 512 512" fill="none" xmlns="http://www.w3.org/2000/svg">
<g clip-path="url(#clip0_3515_3805)">
<path d="M362.667 170.667H149.333V149.333C149.327 125.683 157.18 102.702 171.659 84.0016C186.138 65.3016 206.421 51.9437 229.319 46.028C252.217 40.1123 276.432 41.9743 298.157 51.3213C319.881 60.6683 337.884 76.9702 349.333 97.6641C350.693 100.114 352.523 102.272 354.717 104.015C356.911 105.758 359.427 107.052 362.121 107.822C364.815 108.593 367.635 108.825 370.419 108.506C373.203 108.187 375.897 107.323 378.347 105.963C380.796 104.603 382.954 102.773 384.697 100.579C386.44 98.3849 387.734 95.8689 388.505 93.1748C389.275 90.4806 389.508 87.6611 389.189 84.8771C388.87 82.0932 388.005 79.3993 386.645 76.9494C370.609 47.9854 345.402 25.1717 314.987 12.0942C284.572 -0.983248 250.674 -3.58288 218.621 4.70396C186.568 12.9908 158.177 31.6942 137.912 57.8742C117.646 84.0542 106.655 116.226 106.667 149.333V179.712C87.6662 188.004 71.4941 201.654 60.1278 218.991C48.7616 236.329 42.6938 256.602 42.6665 277.333V405.333C42.7004 433.613 53.9493 460.724 73.9459 480.721C93.9424 500.717 121.054 511.966 149.333 512H362.667C390.946 511.966 418.057 500.717 438.054 480.721C458.05 460.724 469.299 433.613 469.333 405.333V277.333C469.299 249.054 458.05 221.943 438.054 201.946C418.057 181.95 390.946 170.701 362.667 170.667ZM426.667 405.333C426.667 422.307 419.924 438.586 407.921 450.588C395.919 462.591 379.64 469.333 362.667 469.333H149.333C132.359 469.333 116.081 462.591 104.078 450.588C92.076 438.586 85.3332 422.307 85.3332 405.333V277.333C85.3332 260.36 92.076 244.081 104.078 232.079C116.081 220.076 132.359 213.333 149.333 213.333H362.667C379.64 213.333 395.919 220.076 407.921 232.079C419.924 244.081 426.667 260.36 426.667 277.333V405.333Z" fill="#A6A6A6"/>
<path d="M256 298.667C250.342 298.667 244.916 300.915 240.915 304.915C236.914 308.916 234.667 314.342 234.667 320V362.667C234.667 368.325 236.914 373.751 240.915 377.752C244.916 381.753 250.342 384 256 384C261.658 384 267.084 381.753 271.085 377.752C275.086 373.751 277.333 368.325 277.333 362.667V320C277.333 314.342 275.086 308.916 271.085 304.915C267.084 300.915 261.658 298.667 256 298.667Z" fill="#A6A6A6"/>
</g>
<defs>
<clipPath id="clip0_3515_3805">
<rect width="512" height="512" fill="white"/>
</clipPath>
</defs>
</svg>
