<svg width="512" height="512" viewBox="0 0 512 512" fill="none" xmlns="http://www.w3.org/2000/svg">
<g clip-path="url(#clip0_3515_3808)">
<path d="M234.816 54.9972L234.667 384.341C234.667 389.999 236.914 395.425 240.915 399.426C244.916 403.427 250.342 405.675 256 405.675C261.658 405.675 267.084 403.427 271.085 399.426C275.086 395.425 277.334 389.999 277.334 384.341L277.483 55.3599L339.606 117.504C343.606 121.503 349.031 123.75 354.688 123.75C360.345 123.75 365.77 121.503 369.771 117.504C373.77 113.503 376.017 108.078 376.017 102.421C376.017 96.7644 373.77 91.3391 369.771 87.3385L301.27 18.7519C295.326 12.8046 288.269 8.08669 280.501 4.86782C272.734 1.64896 264.408 -0.0078125 256 -0.0078125C247.592 -0.0078125 239.266 1.64896 231.499 4.86782C223.731 8.08669 216.674 12.8046 210.731 18.7519L142.23 87.2745C138.23 91.2751 135.983 96.7004 135.983 102.357C135.983 108.014 138.23 113.439 142.23 117.44C146.23 121.439 151.655 123.686 157.312 123.686C162.969 123.686 168.394 121.439 172.395 117.44L234.816 54.9972Z" fill="#A6A6A6"/>
<path d="M469.333 362.666V448C469.333 453.658 467.086 459.084 463.085 463.085C459.084 467.085 453.658 469.333 448 469.333H64C58.342 469.333 52.9158 467.085 48.9151 463.085C44.9143 459.084 42.6667 453.658 42.6667 448V362.666C42.6667 357.008 40.4191 351.582 36.4183 347.581C32.4175 343.581 26.9913 341.333 21.3333 341.333C15.6754 341.333 10.2492 343.581 6.24839 347.581C2.24761 351.582 0 357.008 0 362.666L0 448C0 464.974 6.74284 481.252 18.7452 493.255C30.7475 505.257 47.0261 512 64 512H448C464.974 512 481.253 505.257 493.255 493.255C505.257 481.252 512 464.974 512 448V362.666C512 357.008 509.752 351.582 505.752 347.581C501.751 343.581 496.325 341.333 490.667 341.333C485.009 341.333 479.582 343.581 475.582 347.581C471.581 351.582 469.333 357.008 469.333 362.666Z" fill="#A6A6A6"/>
</g>
<defs>
<clipPath id="clip0_3515_3808">
<rect width="512" height="512" fill="white"/>
</clipPath>
</defs>
</svg>
