<svg width="512" height="512" viewBox="0 0 512 512" fill="none" xmlns="http://www.w3.org/2000/svg">
<g clip-path="url(#clip0_3515_3814)">
<path d="M160 277.333C141.013 277.333 122.452 271.703 106.665 261.154C90.8781 250.606 78.5736 235.613 71.3076 218.071C64.0416 200.529 62.1404 181.227 65.8446 162.605C69.5488 143.983 78.6919 126.877 92.1178 113.451C105.544 100.025 122.649 90.8822 141.271 87.178C159.894 83.4738 179.196 85.3749 196.738 92.6409C214.279 99.907 229.272 112.212 239.821 127.999C250.37 143.786 256 162.346 256 181.333C255.972 206.785 245.848 231.187 227.851 249.184C209.854 267.182 185.452 277.305 160 277.333ZM160 128C149.452 128 139.14 131.128 130.37 136.988C121.599 142.849 114.763 151.178 110.726 160.924C106.69 170.669 105.634 181.393 107.691 191.738C109.749 202.084 114.829 211.587 122.288 219.046C129.746 226.505 139.25 231.584 149.595 233.642C159.941 235.7 170.664 234.644 180.41 230.607C190.155 226.57 198.485 219.734 204.345 210.964C210.205 202.193 213.333 191.882 213.333 181.333C213.333 167.188 207.714 153.623 197.712 143.621C187.71 133.619 174.145 128 160 128ZM320 490.667V480C320 437.565 303.143 396.869 273.137 366.863C243.131 336.857 202.435 320 160 320C117.565 320 76.8687 336.857 46.8629 366.863C16.8571 396.869 0 437.565 0 480L0 490.667C0 496.325 2.24761 501.751 6.24839 505.752C10.2492 509.752 15.6754 512 21.3333 512C26.9913 512 32.4175 509.752 36.4183 505.752C40.4191 501.751 42.6667 496.325 42.6667 490.667V480C42.6667 448.881 55.0285 419.037 77.0328 397.033C99.0371 375.029 128.881 362.667 160 362.667C191.119 362.667 220.963 375.029 242.967 397.033C264.971 419.037 277.333 448.881 277.333 480V490.667C277.333 496.325 279.581 501.751 283.582 505.752C287.583 509.752 293.009 512 298.667 512C304.325 512 309.751 509.752 313.752 505.752C317.752 501.751 320 496.325 320 490.667ZM512 384C511.999 355.172 503.654 326.96 487.972 302.771C472.291 278.581 449.942 259.447 423.625 247.679C397.309 235.911 368.148 232.013 339.664 236.453C311.18 240.894 284.59 253.484 263.104 272.704C260.987 274.564 259.26 276.826 258.022 279.357C256.783 281.889 256.059 284.641 255.891 287.454C255.722 290.267 256.113 293.086 257.04 295.747C257.967 298.408 259.412 300.86 261.292 302.959C263.172 305.059 265.449 306.765 267.992 307.98C270.535 309.194 273.293 309.893 276.108 310.035C278.923 310.178 281.738 309.761 284.39 308.809C287.043 307.858 289.481 306.39 291.563 304.491C306.911 290.765 325.904 281.775 346.249 278.606C366.594 275.437 387.421 278.224 406.217 286.63C425.013 295.037 440.974 308.704 452.174 325.982C463.373 343.26 469.333 363.41 469.333 384C469.333 389.658 471.581 395.084 475.582 399.085C479.582 403.086 485.009 405.333 490.667 405.333C496.325 405.333 501.751 403.086 505.752 399.085C509.752 395.084 512 389.658 512 384ZM373.333 192C354.346 192 335.786 186.37 319.999 175.821C304.211 165.273 291.907 150.279 284.641 132.738C277.375 115.196 275.474 95.8935 279.178 77.2714C282.882 58.6492 292.025 41.5436 305.451 28.1178C318.877 14.692 335.982 5.54884 354.605 1.84466C373.227 -1.85952 392.529 0.0415955 410.071 7.30761C427.613 14.5736 442.606 26.8782 453.154 42.6653C463.703 58.4524 469.333 77.013 469.333 96C469.305 121.452 459.182 145.854 441.184 163.851C423.187 181.848 398.785 191.972 373.333 192ZM373.333 42.6667C362.785 42.6667 352.474 45.7947 343.703 51.655C334.932 57.5153 328.096 65.8449 324.06 75.5903C320.023 85.3356 318.967 96.0592 321.025 106.405C323.083 116.751 328.162 126.254 335.621 133.712C343.08 141.171 352.583 146.251 362.929 148.309C373.274 150.366 383.998 149.31 393.743 145.274C403.489 141.237 411.818 134.401 417.678 125.63C423.539 116.86 426.667 106.548 426.667 96C426.667 81.8552 421.048 68.2896 411.046 58.2877C401.044 48.2857 387.478 42.6667 373.333 42.6667Z" fill="#A6A6A6"/>
</g>
<defs>
<clipPath id="clip0_3515_3814">
<rect width="512" height="512" fill="white"/>
</clipPath>
</defs>
</svg>
