<svg width="24" height="24" fill="none" xmlns="http://www.w3.org/2000/svg"><path d="M4.266.703a.703.703 0 0 0-1.407 0V1.5h1.407V.703ZM8.484.703a.703.703 0 0 0-1.406 0V1.5h1.406V.703ZM12.703.703a.703.703 0 0 0-1.406 0V1.5h1.406V.703ZM16.922.703a.703.703 0 0 0-1.406 0V1.5h1.406V.703ZM21.14.703a.703.703 0 0 0-1.406 0V1.5h1.407V.703ZM16.922 17.86h1.406v1.406h-1.406v-1.407ZM11.297 17.86h1.406v1.406h-1.406v-1.407ZM5.672 12.281h1.406v1.406H5.672v-1.406ZM23.297 1.5H21.14v2.11a.703.703 0 0 1-1.407 0V1.5h-2.812v2.11a.703.703 0 0 1-1.406 0V1.5h-2.813v2.11a.703.703 0 0 1-1.406 0V1.5H8.484v2.11a.703.703 0 0 1-1.406 0V1.5H4.266v2.11a.703.703 0 0 1-1.407 0V1.5H.703A.703.703 0 0 0 0 2.203v4.453h24V2.203a.703.703 0 0 0-.703-.703ZM11.297 12.281h1.406v1.406h-1.406v-1.406ZM16.922 12.281h1.406v1.406h-1.406v-1.406Z" fill="#D9D9D9"/><path d="M0 23.297c0 .388.315.703.703.703h22.594a.703.703 0 0 0 .703-.703V8.062H0v15.235Zm15.516-11.719c0-.388.314-.703.703-.703h2.812c.389 0 .703.315.703.703v2.813a.703.703 0 0 1-.703.703H16.22a.703.703 0 0 1-.703-.703v-2.813Zm0 5.578c0-.388.314-.703.703-.703h2.812c.389 0 .703.315.703.703v2.813a.703.703 0 0 1-.703.703H16.22a.703.703 0 0 1-.703-.703v-2.813ZM9.89 11.578c0-.388.314-.703.703-.703h2.812c.389 0 .703.315.703.703v2.813a.703.703 0 0 1-.703.703h-2.812a.703.703 0 0 1-.703-.703v-2.813Zm0 5.578c0-.388.314-.703.703-.703h2.812c.389 0 .703.315.703.703v2.813a.703.703 0 0 1-.703.703h-2.812a.703.703 0 0 1-.703-.703v-2.813Zm-5.625-5.578c0-.388.314-.703.703-.703H7.78c.389 0 .703.315.703.703v2.813a.703.703 0 0 1-.703.703H4.97a.703.703 0 0 1-.703-.703v-2.813Zm.159 7.176c.246-.3.69-.344.99-.098l.391.321 1.43-1.758a.703.703 0 0 1 1.09.887l-1.874 2.306a.703.703 0 0 1-.992.1l-.937-.768a.703.703 0 0 1-.098-.99Z" fill="#D9D9D9"/></svg>