<svg version="1.1" xmlns="http://www.w3.org/2000/svg" xmlns:xlink="http://www.w3.org/1999/xlink" width="512" height="512" viewBox="0,0,256,256"><g fill="#ffffff" fill-rule="nonzero" stroke="none" stroke-width="1" stroke-linecap="butt" stroke-linejoin="miter" stroke-miterlimit="10" stroke-dasharray="" stroke-dashoffset="0" font-family="none" font-weight="none" font-size="none" text-anchor="none" style="mix-blend-mode: normal"><g transform="translate(0.05333,0.10667) scale(10.66667,10.66667)"><path d="M21.3,13.88l-0.45,-0.26c0.1,-0.54 0.15,-1.09 0.15,-1.63c0,-0.54 -0.05,-1.08 -0.15,-1.63l0.45,-0.26c1.43,-0.82 1.93,-2.66 1.11,-4.1c-0.4,-0.69 -1.05,-1.19 -1.82,-1.4c-0.77,-0.21 -1.58,-0.1 -2.28,0.3l-0.45,0.26c-0.84,-0.72 -1.81,-1.28 -2.86,-1.65v-0.52c0,-1.65 -1.35,-3 -3,-3c-1.65,0 -3,1.35 -3,3v0.52c-1.05,0.37 -2.02,0.93 -2.86,1.65l-0.45,-0.26c-0.69,-0.4 -1.5,-0.5 -2.28,-0.3c-0.77,0.21 -1.42,0.71 -1.82,1.4c-0.82,1.43 -0.33,3.27 1.1,4.1l0.45,0.26c-0.1,0.54 -0.15,1.09 -0.15,1.63c0,0.54 0.05,1.08 0.15,1.63l-0.45,0.26c-1.43,0.82 -1.93,2.66 -1.11,4.1c0.4,0.69 1.05,1.19 1.82,1.4c0.77,0.21 1.58,0.1 2.28,-0.3l0.45,-0.26c0.84,0.72 1.81,1.28 2.86,1.65v0.52c0,1.65 1.35,3 3,3c1.65,0 3,-1.35 3,-3v-0.52c1.05,-0.37 2.02,-0.93 2.86,-1.65l0.45,0.26c0.69,0.4 1.5,0.51 2.28,0.3c0.77,-0.21 1.42,-0.71 1.82,-1.4c0.82,-1.43 0.33,-3.27 -1.1,-4.1zM9.21,13.24c0.39,0.39 0.39,1.02 0,1.41c-0.2,0.2 -0.45,0.29 -0.71,0.29c-0.26,0 -0.51,-0.1 -0.71,-0.29l-1.21,-1.21c-0.78,-0.78 -0.78,-2.04 0,-2.81l1.21,-1.21c0.39,-0.39 1.02,-0.39 1.41,0c0.39,0.39 0.39,1.02 0,1.41l-1.21,1.21l1.21,1.19zM13.78,8.19l-1.6,8c-0.09,0.48 -0.51,0.8 -0.98,0.8c-0.06,0 -0.13,0 -0.2,-0.02c-0.54,-0.11 -0.89,-0.63 -0.78,-1.18l1.6,-8c0.11,-0.54 0.63,-0.89 1.18,-0.78c0.54,0.11 0.89,0.63 0.78,1.18zM17.42,13.44l-1.21,1.21c-0.2,0.2 -0.45,0.29 -0.71,0.29c-0.26,0 -0.51,-0.1 -0.71,-0.29c-0.39,-0.39 -0.39,-1.02 0,-1.41l1.21,-1.21l-1.21,-1.2c-0.39,-0.39 -0.39,-1.02 0,-1.41c0.39,-0.39 1.02,-0.39 1.41,0l1.21,1.21c0.78,0.78 0.78,2.04 0,2.81z"></path></g></g></svg>