<svg version="1.1" xmlns="http://www.w3.org/2000/svg" xmlns:xlink="http://www.w3.org/1999/xlink" width="24px" height="24px" viewBox="0,0,256,256"><g fill="#a6a6a6" fill-rule="nonzero" stroke="none" stroke-width="1" stroke-linecap="butt" stroke-linejoin="miter" stroke-miterlimit="10" stroke-dasharray="" stroke-dashoffset="0" font-family="none" font-weight="none" font-size="none" text-anchor="none" style="mix-blend-mode: normal"><g transform="translate(0,-0.00045) scale(10.66667,10.66667)"><path d="M24,22c0,1.105 -0.895,2 -2,2c-0.738,0 -1.376,-0.405 -1.723,-1h-1.277c-1.654,0 -3,-1.346 -3,-3v-5c0,-0.553 0.448,-1 1,-1c0.552,0 1,0.447 1,1v5c0,0.552 0.449,1 1,1h1.277c0.346,-0.595 0.984,-1 1.723,-1c1.105,0 2,0.895 2,2zM13,20.277v-5.277c0,-0.553 -0.448,-1 -1,-1c-0.552,0 -1,0.447 -1,1v5.277c-0.595,0.346 -1,0.984 -1,1.723c0,1.105 0.895,2 2,2c1.105,0 2,-0.895 2,-2c0,-0.738 -0.405,-1.376 -1,-1.723zM7,14c-0.552,0 -1,0.447 -1,1v5c0,0.552 -0.449,1 -1,1h-1.277c-0.346,-0.595 -0.984,-1 -1.723,-1c-1.105,0 -2,0.895 -2,2c0,1.105 0.895,2 2,2c0.738,0 1.376,-0.405 1.723,-1h1.277c1.654,0 3,-1.346 3,-3v-5c0,-0.553 -0.448,-1 -1,-1zM20,15v1.843c1.552,-1.049 2.668,-2.716 2.933,-4.627c0.509,-3.669 -1.935,-6.87 -5.297,-7.572c-0.403,-0.084 -0.756,-0.348 -0.945,-0.714c-1.266,-2.454 -3.888,-4.093 -6.878,-3.917c-3.122,0.183 -5.817,2.473 -6.593,5.502c-0.254,0.99 -0.275,1.945 -0.132,2.845c0.082,0.517 -0.119,1.023 -0.509,1.372c-1.131,1.013 -1.777,2.552 -1.525,4.243c0.247,1.663 1.411,3.072 2.946,3.684v-2.659c0,-1.654 1.346,-3 3,-3c1.044,0 1.962,0.537 2.5,1.348c0.538,-0.811 1.456,-1.348 2.5,-1.348c1.044,0 1.962,0.537 2.5,1.348c0.538,-0.811 1.456,-1.348 2.5,-1.348c1.654,0 3,1.346 3,3z"></path></g></g></svg>