<svg width="24" height="24" viewBox="0 0 24 24" fill="none" xmlns="http://www.w3.org/2000/svg">
<path d="M1.28175 4.94531H20.3552C20.6828 4.94531 20.9093 4.61794 20.7936 4.31152C20.3505 3.16017 20.3504 1.78514 20.7936 0.633797C20.9093 0.327375 20.6828 0 20.3552 0H1.28175C0.573844 0 0 0.573844 0 1.28175V3.66356C0 4.37147 0.573844 4.94531 1.28175 4.94531Z" fill="white"/>
<path d="M11.1152 6.35156V9.20602C11.1084 9.80161 10.5102 10.0566 10.1148 9.85837L8.82422 9.25613L7.53366 9.85837C7.26427 9.98405 6.93867 9.92887 6.7245 9.70369C6.59756 9.57019 6.53316 9.38897 6.53316 9.20475V6.35156H4.45753C3.74963 6.35156 3.17578 6.92541 3.17578 7.63331V10.0151C3.17578 10.723 3.74963 11.2969 4.45753 11.2969H23.531C23.8586 11.2969 24.0851 10.9695 23.9693 10.6631C23.5262 9.51173 23.5262 8.1367 23.9693 6.98536C24.0851 6.67894 23.8586 6.35156 23.531 6.35156H11.1152Z" fill="white"/>
<path d="M9.12155 7.84298L9.70898 8.11711V6.35156H7.93945V8.11716L8.52689 7.84303C8.71533 7.75505 8.93311 7.75505 9.12155 7.84298Z" fill="white"/>
<path d="M14.8784 14.1945C15.0669 14.1066 15.2846 14.1066 15.4732 14.1945L16.0605 14.4687V12.7031H14.291V14.4687L14.8784 14.1945Z" fill="white"/>
<path d="M23.531 19.0547H4.45753C3.74963 19.0547 3.17578 19.6285 3.17578 20.3364V22.7183C3.17578 23.4262 3.74963 24 4.45753 24H23.531C23.8586 24 24.0851 23.6726 23.9693 23.3662C23.5262 22.2149 23.5262 20.8398 23.9693 19.6885C24.0851 19.3821 23.8586 19.0547 23.531 19.0547Z" fill="white"/>
<path d="M20.3552 17.6484C20.6828 17.6484 20.9093 17.3211 20.7936 17.0146C20.3505 15.8633 20.3504 14.4883 20.7936 13.3369C20.9093 13.0305 20.6828 12.7031 20.3552 12.7031H17.4668V15.5576C17.46 16.1532 16.8617 16.4082 16.4663 16.2099L15.1758 15.6077L13.8853 16.2099C13.4224 16.4309 12.8731 16.0776 12.8848 15.5564V12.7031H1.28175C0.573844 12.7031 0 13.277 0 13.9849V16.3667C0 17.0746 0.573844 17.6484 1.28175 17.6484H20.3552Z" fill="white"/>
</svg>
