<svg width="24" height="24" fill="none" xmlns="http://www.w3.org/2000/svg"><path d="M20.102 11.556a1.04 1.04 0 0 0-1.036-.884h-8.395L9.146 8.868a1.723 1.723 0 0 0-1.296-.619H2.395c-.389 0-.758.182-1.01.48a1.36 1.36 0 0 0-.292 1.09l.145.853h-.096A1.032 1.032 0 0 0 .11 11.864l1.693 10.988c.103.661.672 1.148 1.34 1.148h17.582a1.047 1.047 0 0 0 1.035-1.196l-1.658-11.248ZM15.922 3.356H9.355c-.453 0-.82.408-.82.862 0 .453.368.862.82.862h6.567c.454 0 .82-.409.82-.862 0-.454-.367-.862-.82-.862ZM23.66 9.398a1.01 1.01 0 0 0-.757-.358h-1.864l.424 3.93 1.013 6.865 1.418-9.635a1.018 1.018 0 0 0-.235-.802Z" fill="#fff"/><path d="M6.96 1.585h11.463v7.782h1.586V1.008A1.02 1.02 0 0 0 18.995 0H6.317a1.09 1.09 0 0 0-1.081 1.105V7.13H6.96V1.585Z" fill="#fff"/><path d="M15.922 6.525H9.355c-.394 0-.723.311-.802.693.562.143 1.074.45 1.458.9l.12.13h5.791c.454 0 .82-.408.82-.862 0-.453-.367-.861-.82-.861Z" fill="#fff"/></svg>