<svg width="24" height="24" fill="none" xmlns="http://www.w3.org/2000/svg"><g clip-path="url(#a)" fill="#A6A6A6"><path d="M23.597 10.729 12.829.917a1.225 1.225 0 0 0-1.658 0L.403 10.73a1.223 1.223 0 0 0-.319 1.354c.185.478.636.786 1.148.786h1.72V22.7c0 .39.316.706.706.706H9.56c.39 0 .706-.316.706-.706v-5.969h3.469V22.7c0 .39.316.706.705.706h5.902c.39 0 .706-.316.706-.706v-9.83h1.72c.512 0 .963-.31 1.148-.787.185-.478.06-1.009-.32-1.354ZM20.863 2.003h-4.74l5.446 4.952V2.709a.706.706 0 0 0-.706-.706Z"/></g><defs><clipPath id="a"><path fill="#fff" d="M0 0h24v24H0z"/></clipPath></defs></svg>