<svg width="24" height="24" fill="none" xmlns="http://www.w3.org/2000/svg"><g clip-path="url(#a)"><path d="M8.291 10.299v8.832a.923.923 0 0 1-.617.87c-.523.185-1.154.282-1.826.282-1.932 0-4.01-.793-4.01-2.534V6.45c-.044-.777.227-2.148 1.527-2.89.604-.344 3.772-2.382 5.363-3.411a.926.926 0 0 1 1.426.776v1.338a.924.924 0 0 1-1.79.32c-1.439.925-3.556 2.281-4.082 2.581-.473.271-.576.768-.596 1.038 0 .303.065.541.184.672.328.357 1.42.135 2.614-.582 1.145-.687 6.797-4.45 6.853-4.487a.923.923 0 0 1 1.437.77v.105a.927.927 0 0 1-.41.768S10.44 6.066 10.093 6.29c-1.33.855-1.802 1.905-1.802 4.01Zm13.875-4.46v11.996a.924.924 0 0 1-.433.782s-5.387 4.184-6.48 4.848c-.574.35-1.306.535-2.115.535-1.92 0-3.908-1.04-3.908-2.778V9.757c0-.004.003-.008.003-.013.018-.676.176-1.641 1.434-2.57.754-.555 5.244-3.618 5.435-3.747a.923.923 0 0 1 1.444.763v1.338a.924.924 0 0 1-1.774.362c-1.433.98-3.537 2.425-4.009 2.772-.595.44-.674.73-.684 1.102.002.276.076.487.228.625.471.432 1.74.25 2.99-.5.927-.556 4.917-3.636 6.375-4.777a.93.93 0 0 1 .974-.101.92.92 0 0 1 .52.829Zm-1.848 4.118-4.62 3.584v1.848l4.62-3.584V9.957Z" fill="#fff"/></g><defs><clipPath id="a"><path fill="#fff" d="M0 0h24v24H0z"/></clipPath></defs></svg>