<svg width="24" height="24" fill="none" xmlns="http://www.w3.org/2000/svg"><g clip-path="url(#a)"><path d="M8.291 10.299v8.832a.923.923 0 0 1-.617.87c-.523.185-1.154.282-1.826.282-1.932 0-4.01-.793-4.01-2.534V6.45c-.044-.777.227-2.148 1.527-2.89.604-.344 3.772-2.382 5.363-3.411a.926.926 0 0 1 1.426.776v1.338a.924.924 0 0 1-1.79.32c-1.439.925-3.556 2.281-4.082 2.581-.473.271-.576.768-.596 1.038 0 .303.065.541.184.672.328.357 1.42.135 2.614-.581 1.145-.688 6.797-4.45 6.853-4.488a.923.923 0 0 1 1.437.77v.105a.927.927 0 0 1-.41.768s-3.924 2.62-4.271 2.842c-1.33.855-1.802 1.905-1.802 4.01Zm13.875-4.46v11.996a.924.924 0 0 1-.433.782s-5.387 4.184-6.48 4.848c-.574.35-1.306.535-2.115.535-1.92 0-3.908-1.04-3.908-2.777V9.757l.003-.012c.018-.677.176-1.642 1.434-2.57.754-.556 5.244-3.619 5.435-3.748a.923.923 0 0 1 1.444.763v1.338a.924.924 0 0 1-1.774.363c-1.433.98-3.537 2.424-4.009 2.77-.595.44-.674.73-.684 1.103.002.276.076.487.228.626.471.431 1.74.25 2.99-.5.927-.557 4.917-3.637 6.375-4.777a.93.93 0 0 1 .974-.102.92.92 0 0 1 .52.829Zm-1.848 4.118-4.62 3.584v1.848l4.62-3.584V9.957Z" fill="#A6A6A6"/></g><defs><clipPath id="a"><path fill="#fff" d="M0 0h24v24H0z"/></clipPath></defs></svg>