<svg width="24" height="24" fill="none" xmlns="http://www.w3.org/2000/svg"><path d="M17.587 15.25a.659.659 0 0 1-.349-.58v-.66h-4.614a.659.659 0 0 1-.66-.66v-2.636c0-.364.296-.659.66-.659h4.614v-.66a.659.659 0 0 1 1.025-.548l3.955 2.637a.66.66 0 0 1 0 1.097l-3.955 2.637a.66.66 0 0 1-.677.032ZM15.92 1.398v7.339h-3.296c-.237 0-.448.04-.66.118V5.353c0-.739-.408-1.41-1.093-1.767L5.188.74h10.073c.369 0 .659.29.659.659ZM12.624 15.329h3.296v4.614c0 .369-.29.659-.66.659h-3.295V15.21c.21.079.422.118.659.118Z" fill="#A6A6A6"/><path d="M10.277 4.76 2.367.805a.672.672 0 0 0-.633.026.686.686 0 0 0-.316.567v18.545c0 .29.185.54.448.62l7.91 2.636a.65.65 0 0 0 .594-.079.687.687 0 0 0 .277-.54V5.353a.675.675 0 0 0-.37-.593ZM8.01 13.35c0 .369-.29.66-.66.66a.653.653 0 0 1-.659-.66v-2.637c0-.369.29-.659.66-.659.369 0 .659.29.659.66v2.636Z" fill="#A6A6A6"/></svg>