<svg width="24" height="24" fill="none" xmlns="http://www.w3.org/2000/svg"><g clip-path="url(#a)" fill="#D9D9D9"><path d="M12 24a3.52 3.52 0 0 0 3.221-2.11H8.78A3.52 3.52 0 0 0 12 24ZM19.266 11.618v-1.54c0-3.273-2.176-6.047-5.157-6.953V2.11C14.11.946 13.163 0 12 0S9.89.946 9.89 2.11v1.015c-2.98.906-5.156 3.68-5.156 6.953v1.54a11.04 11.04 0 0 1-3.085 7.677.703.703 0 0 0 .507 1.19h19.688a.703.703 0 0 0 .507-1.19 11.04 11.04 0 0 1-3.085-7.677Zm-6.563-8.771a7.32 7.32 0 0 0-1.406 0v-.738a.704.704 0 0 1 1.406 0v.738ZM21.14 10.078a.703.703 0 0 0 1.407 0c0-2.817-1.097-5.466-3.09-7.458a.703.703 0 0 0-.994.995 9.081 9.081 0 0 1 2.678 6.463ZM2.156 10.781a.703.703 0 0 0 .703-.703c0-2.441.951-4.737 2.678-6.463a.703.703 0 1 0-.995-.995 10.478 10.478 0 0 0-3.089 7.458c0 .388.315.703.703.703Z"/></g><defs><clipPath id="a"><path fill="#fff" d="M0 0h24v24H0z"/></clipPath></defs></svg>