<svg width="24" height="24" fill="none" xmlns="http://www.w3.org/2000/svg"><path d="M23.297 3.563h-.703v14.765c0 1.163-.993 2.11-2.157 2.11H13.99A2.114 2.114 0 0 1 12 21.843a2.114 2.114 0 0 1-1.99-1.407H3.564c-1.164 0-2.157-.946-2.157-2.109V3.563H.703A.703.703 0 0 0 0 4.266V21.14c0 .388.314.703.703.703h7.902a2.114 2.114 0 0 0 1.989 1.406h2.812c.917 0 1.699-.588 1.99-1.406h7.9A.703.703 0 0 0 24 21.14V4.266a.703.703 0 0 0-.703-.704Z" fill="#A6A6A6"/><path d="M11.297 18.516V2.388C10.324 1.575 8.76.75 6.375.75a.703.703 0 0 0-.703.703v14.063c0 .388.314.703.703.703 3.252 0 4.609 1.799 4.922 2.297ZM20.438 19.031a.703.703 0 0 0 .703-.703V2.86a.703.703 0 0 0-.703-.703h-5.625c-.795 0-1.52.275-2.11.721v16.857c0-.388.315-.703.703-.703h7.031Z" fill="#A6A6A6"/><path d="M3.563 2.156a.703.703 0 0 0-.704.703v15.47c0 .388.315.702.704.702H9.93c-.393-.477-1.426-1.406-3.555-1.406a2.112 2.112 0 0 1-2.11-2.11V2.157h-.702Z" fill="#A6A6A6"/></svg>