<svg width="24" height="24" fill="none" xmlns="http://www.w3.org/2000/svg"><path d="M17.633 22.594h-.704v-1.407H7.086v1.407h-.703a.703.703 0 1 0 0 1.406h11.25a.703.703 0 1 0 0-1.406ZM14.82 16.969h-.104l-.289-1.847a7.692 7.692 0 0 1-2.42.394 7.693 7.693 0 0 1-2.419-.393l-.289 1.846h-.104c-1.163 0-2.11.946-2.11 2.11v.702h9.844v-.703c0-1.163-.946-2.11-2.109-2.11ZM5.68 4.266V7.78a6.335 6.335 0 0 0 6.328 6.328 6.335 6.335 0 0 0 6.328-6.328V4.266H5.679ZM17.633 0H6.383a.703.703 0 0 0-.704.703V2.86h12.657V.703A.703.703 0 0 0 17.633 0ZM19.742 1.453V2.86c.775 0 1.406.631 1.406 1.407a4.458 4.458 0 0 1-1.406 3.251v.264c0 .55-.06 1.087-.17 1.604a5.86 5.86 0 0 0 2.983-5.12 2.815 2.815 0 0 0-2.813-2.812ZM4.273 7.781v-.25a4.458 4.458 0 0 1-1.421-3.265c0-.776.63-1.407 1.406-1.407l.015.003V1.455l-.015-.002a2.815 2.815 0 0 0-2.812 2.813 5.86 5.86 0 0 0 2.999 5.128 7.73 7.73 0 0 1-.172-1.613Z" fill="#fff"/></svg>