<svg version="1.1" xmlns="http://www.w3.org/2000/svg" xmlns:xlink="http://www.w3.org/1999/xlink" width="512" height="512" viewBox="0,0,256,256"><g fill="#a6a6a6" fill-rule="nonzero" stroke="none" stroke-width="1" stroke-linecap="butt" stroke-linejoin="miter" stroke-miterlimit="10" stroke-dasharray="" stroke-dashoffset="0" font-family="none" font-weight="none" font-size="none" text-anchor="none" style="mix-blend-mode: normal"><g transform="translate(1.31064,-1.43379) scale(0.5,0.5)"><path d="M399.211,256h-100.544c-23.564,0 -42.667,-19.103 -42.667,-42.667v-100.821c0.059,-19.89 -9.134,-38.678 -24.875,-50.837c-14.916,-11.812 -34.474,-16.022 -52.928,-11.392c-125.43,31.136 -201.871,158.059 -170.734,283.49c21.937,88.372 93.145,155.995 182.532,173.342c122.11,23.373 241.257,-52.547 271.659,-173.099c4.647,-18.478 0.445,-38.066 -11.371,-53.013c-12.299,-15.713 -31.118,-24.927 -51.072,-25.003z"></path><path d="M504.555,158.848c-4.87,-18.102 -12.123,-35.477 -21.568,-51.669c-28.41,-48.738 -74.818,-84.375 -129.237,-99.243c-3.585,-0.967 -11.606,-1.536 -11.606,-1.536c-2.866,0.001 -15.21,0 -24.981,7.915c-14.361,11.301 -16.619,24.149 -16.832,25.152c-0.745,3.146 -1.132,6.367 -1.152,9.6v100.267c0,35.346 28.654,64 64,64h100.672c13.356,0.038 25.927,-6.303 33.835,-17.067c5.848,-7.885 8.856,-17.517 8.533,-27.328c-0.17,-3.416 -0.728,-6.802 -1.664,-10.091z"></path></g></g></svg>