<svg width="36" height="36" viewBox="0 0 36 36" fill="none" xmlns="http://www.w3.org/2000/svg">
<circle cx="18" cy="18" r="18" fill="#5F77F0"/>
<path d="M11.408 13.968H8.64V12.8H11.216C11.8133 12.8 12.3307 12.8427 12.768 12.928C13.2053 13.0027 13.5733 13.1307 13.872 13.312L12.896 14.272C12.7147 14.1653 12.496 14.0907 12.24 14.048C11.9947 14.0053 11.7173 13.9787 11.408 13.968ZM13.296 16.912C13.5413 16.624 13.6533 16.208 13.632 15.664C13.6427 15.248 13.552 14.9067 13.36 14.64L14.32 13.68C14.6827 14.1067 14.864 14.7413 14.864 15.584C14.8747 16.032 14.8267 16.4107 14.72 16.72C14.6133 17.0293 14.4587 17.3067 14.256 17.552L13.296 16.912ZM8.64 22.224V14.448H10.08V22.224H8.64ZM10.56 17.568H11.232C11.5733 17.568 11.8773 17.5467 12.144 17.504C12.4213 17.4613 12.656 17.3867 12.848 17.28L13.856 17.952L12.944 18.848C12.72 18.7947 12.464 18.7627 12.176 18.752C11.888 18.7307 11.568 18.7147 11.216 18.704H10.56V17.568ZM14.384 18.24C14.7573 18.496 15.04 18.832 15.232 19.248C15.4347 19.664 15.5307 20.1813 15.52 20.8C15.5307 21.2053 15.504 21.5733 15.44 21.904C15.3867 22.2347 15.2693 22.528 15.088 22.784L14.032 21.952C14.2133 21.6853 14.2933 21.3013 14.272 20.8C14.2827 20.3307 14.2293 19.9627 14.112 19.696C13.9947 19.4293 13.808 19.2213 13.552 19.072L14.384 18.24ZM11.408 22.704C12.4533 22.6933 13.184 22.5707 13.6 22.336L14.704 23.216C14.384 23.4613 13.9467 23.6533 13.392 23.792C12.848 23.9307 12.128 24 11.232 24H8.64V22.704H11.408ZM25.9356 14.512C25.5943 14.2453 25.1516 14.048 24.6076 13.92C24.0636 13.792 23.3863 13.728 22.5756 13.728C21.7543 13.7067 21.0663 13.7653 20.5116 13.904C19.957 14.0427 19.509 14.2613 19.1676 14.56L18.1756 13.504C18.6343 13.1307 19.221 12.8693 19.9356 12.72C20.6503 12.56 21.5303 12.48 22.5756 12.48C23.557 12.48 24.3943 12.56 25.0876 12.72C25.781 12.8693 26.3676 13.1253 26.8476 13.488L25.9356 14.512ZM26.2076 22.08C26.5916 21.7067 26.8423 21.216 26.9596 20.608C27.077 20 27.1356 19.264 27.1356 18.4C27.1356 17.632 27.0823 16.9653 26.9756 16.4C26.8796 15.824 26.6823 15.344 26.3836 14.96L27.3276 13.92C27.733 14.3893 28.0263 14.9867 28.2076 15.712C28.3996 16.4373 28.4956 17.3333 28.4956 18.4C28.4956 19.5627 28.3996 20.528 28.2076 21.296C28.0156 22.0533 27.6743 22.6613 27.1836 23.12L26.2076 22.08ZM18.1916 23.152C17.6476 22.672 17.253 22.0427 17.0076 21.264C16.773 20.4853 16.6556 19.5307 16.6556 18.4C16.6556 17.344 16.7356 16.4533 16.8956 15.728C17.0556 15.0027 17.333 14.4053 17.7276 13.936L18.7356 15.024C18.4583 15.408 18.2663 15.8827 18.1596 16.448C18.053 17.0133 17.9996 17.664 17.9996 18.4C17.9996 19.2853 18.0796 20.032 18.2396 20.64C18.4103 21.248 18.7036 21.7387 19.1196 22.112L18.1916 23.152ZM26.7036 23.504C26.245 23.792 25.6796 24 25.0076 24.128C24.3356 24.256 23.525 24.32 22.5756 24.32C20.901 24.32 19.6156 24.0533 18.7196 23.52L19.6476 22.48C20.3196 22.8533 21.2956 23.04 22.5756 23.04C24.005 23.04 25.0503 22.8427 25.7116 22.448L26.7036 23.504Z" fill="white"/>
</svg>
