<svg width="18" height="18" fill="none" xmlns="http://www.w3.org/2000/svg"><path d="M17.841 3.576 12.383 9l5.46 5.424c.098-.206.158-.434.158-.678V4.254c0-.244-.06-.472-.159-.678ZM16.418 2.672H1.582c-.244 0-.472.06-.678.158l6.977 6.942c.617.617 1.62.617 2.237 0l6.978-6.942a1.563 1.563 0 0 0-.678-.158ZM.159 3.576A1.564 1.564 0 0 0 0 4.254v9.492c0 .244.06.472.159.678L5.618 9 .158 3.576Z" fill="#fff"/><path d="m11.637 9.746-.773.772a2.64 2.64 0 0 1-3.728 0l-.773-.772L.904 15.17c.207.098.434.158.678.158h14.836c.244 0 .472-.06.678-.158l-5.46-5.424Z" fill="#fff"/></svg>