<svg width="18" height="18" fill="none" xmlns="http://www.w3.org/2000/svg"><g clip-path="url(#a)" fill="#fff"><path d="M17.536 13.281 15.3 11.044c-.597-.597-1.64-.598-2.237 0l-.373.373 4.474 4.475.373-.373a1.58 1.58 0 0 0 0-2.238ZM11.922 12.142c-.47.365-1.142.35-1.572-.081L5.926 7.635a1.187 1.187 0 0 1-.08-1.573L1.38 1.598C-.54 3.836-.465 7.21 1.655 9.329l7 7.003a5.661 5.661 0 0 0 7.732.274l-4.465-4.464ZM6.943 2.686 4.706.448c-.597-.597-1.64-.598-2.237 0l-.373.373L6.57 5.296l.372-.373a1.58 1.58 0 0 0 0-2.237Z"/></g><defs><clipPath id="a"><path fill="#fff" d="M0 0h18v18H0z"/></clipPath></defs></svg>