<svg width="20" height="20" fill="none" xmlns="http://www.w3.org/2000/svg"><path d="m6.4 5.794 2.691-2.69v12.35a.91.91 0 1 0 1.818 0V3.104l2.69 2.69a.906.906 0 0 0 1.286 0 .91.91 0 0 0 0-1.285L10.643.266a.918.918 0 0 0-.067-.06l-.032-.024-.04-.029-.039-.024-.036-.022-.042-.02-.039-.018-.04-.014-.044-.016-.04-.01-.046-.011L10.13.01c-.014-.002-.027-.005-.041-.006A.926.926 0 0 0 10.005 0h-.011a.892.892 0 0 0-.083.005c-.015 0-.028.004-.042.006l-.046.007-.047.01-.04.011-.044.016-.04.014-.04.019c-.013.006-.027.012-.04.02-.013.006-.025.014-.037.021l-.04.024-.039.029c-.01.008-.022.015-.032.024a.908.908 0 0 0-.064.058l-.003.002L5.115 4.51A.91.91 0 0 0 6.4 5.794ZM19.09 18.182H.91A.91.91 0 0 0 .91 20h18.18a.91.91 0 0 0 0-1.818Z" fill="#1153FC"/></svg>