<svg width="15" height="14" viewBox="0 0 15 14" fill="none" xmlns="http://www.w3.org/2000/svg">
<path d="M9.5 0.5V0V0.5ZM14.5 5.5H15H14.5ZM14.5 6.7002L15 6.70021V6.7002H14.5ZM9.5 11.7002V12.2002V11.7002ZM5.5 11.7002V12.2002V11.7002ZM0.5 6.7002H0V6.70021L0.5 6.7002ZM5.5 0.5V0V0.5ZM0.571112 7.92776L0.201301 8.26427L0.571112 7.92776ZM3.93808 11.632L3.56792 11.9681L3.93808 11.632ZM3.92808 11.7577L3.61573 11.3673L3.92808 11.7577ZM0.643544 7.88842L0.157868 8.00724L0.643544 7.88842ZM4.03796 11.4807L3.89124 11.9587L4.03796 11.4807ZM9.5 0.5V1C11.9853 1 14 3.01472 14 5.5H14.5H15C15 2.46243 12.5376 5.96046e-08 9.5 0V0.5ZM14.5 5.5H14V6.7002H14.5H15V5.5H14.5ZM14.5 6.7002L14 6.70018C13.9999 9.1854 11.9852 11.2002 9.5 11.2002V11.7002V12.2002C12.5375 12.2002 14.9999 9.73766 15 6.70021L14.5 6.7002ZM9.5 11.7002V11.2002H5.5V11.7002V12.2002H9.5V11.7002ZM5.5 11.7002V11.2002C5.04217 11.2002 4.60094 11.1305 4.18468 11.0027L4.03796 11.4807L3.89124 11.9587C4.3999 12.1148 4.93995 12.2002 5.5 12.2002V11.7002ZM3.92808 11.7577L3.61573 11.3673L1.81265 12.8098L2.125 13.2002L2.43735 13.5906L4.24042 12.1482L3.92808 11.7577ZM2.125 13.2002L1.81265 12.8098C1.48545 13.0715 1 12.8384 1 12.4189H0.5H0C0 13.6765 1.45503 14.3765 2.43735 13.5906L2.125 13.2002ZM0.5 12.4189H1V7.95527H0.5H0V12.4189H0.5ZM0.643544 7.88842L1.12922 7.7696C1.04528 7.42651 1.00001 7.06861 1 6.70018L0.5 6.7002L0 6.70021C1.73151e-05 7.15092 0.055435 7.58856 0.157868 8.00724L0.643544 7.88842ZM0.5 6.7002H1V5.5H0.5H0V6.7002H0.5ZM0.5 5.5H1C1 3.01472 3.01472 1 5.5 1V0.5V0C2.46243 5.96046e-08 0 2.46243 0 5.5H0.5ZM5.5 0.5V1H9.5V0.5V0H5.5V0.5ZM0.5 7.95527H1C1 8.37482 0.48366 8.57457 0.201301 8.26427L0.571112 7.92776L0.940923 7.59125C0.608283 7.22569 0 7.46101 0 7.95527H0.5ZM3.93808 11.632L3.56792 11.9681C3.40758 11.7916 3.42948 11.5163 3.61573 11.3673L3.92808 11.7577L4.24042 12.1482C4.50462 11.9368 4.53569 11.5464 4.30824 11.2959L3.93808 11.632ZM0.571112 7.92776L0.201301 8.26427C0.596689 8.69878 1.25642 8.2895 1.12922 7.7696L0.643544 7.88842L0.157868 8.00724C0.100392 7.77232 0.233457 7.57806 0.382879 7.49667C0.533594 7.41458 0.774415 7.40826 0.940923 7.59125L0.571112 7.92776ZM4.03796 11.4807L4.18468 11.0027C3.88847 10.9118 3.63447 11.0655 3.51572 11.2444C3.39561 11.4253 3.3514 11.7297 3.56792 11.9681L3.93808 11.632L4.30824 11.2959C4.46337 11.4667 4.42545 11.6821 4.34881 11.7975C4.27351 11.9109 4.10015 12.0228 3.89124 11.9587L4.03796 11.4807Z" fill="#0575E6"/>
<circle cx="4.03516" cy="6.13477" r="0.875" fill="#0575E6"/>
<circle cx="7.53516" cy="6.13477" r="0.875" fill="#0575E6"/>
<circle cx="11.0352" cy="6.13477" r="0.875" fill="#0575E6"/>
</svg>
