<svg width="22" height="22" viewBox="0 0 22 22" fill="none" xmlns="http://www.w3.org/2000/svg">
<path d="M6.05185 8.00041C6.56089 7.11873 7.30383 6.39499 8.19853 5.90921C9.09324 5.42342 10.1049 5.19452 11.1215 5.2478C12.1382 5.30108 13.1204 5.63448 13.9594 6.21112C14.7984 6.78777 15.4616 7.5852 15.8757 8.51526M4.78219 6.2859L5.28551 8.46612C5.37124 8.83746 5.74176 9.06899 6.1131 8.98326L8.29332 8.47994M15.6134 13.5207C15.1044 14.4024 14.3614 15.1261 13.4667 15.6119C12.572 16.0977 11.5604 16.3266 10.5437 16.2733C9.52705 16.22 8.54491 15.8866 7.70588 15.31C6.86686 14.7333 6.20364 13.9359 5.78955 13.0058M16.8831 15.2352L16.3798 13.055C16.294 12.6836 15.9235 12.4521 15.5522 12.5378L13.372 13.0412" stroke="#333333" stroke-width="1.2" stroke-linecap="round"/>
</svg>
