<svg width="255" height="57" xmlns="http://www.w3.org/2000/svg" xmlns:xlink="http://www.w3.org/1999/xlink" overflow="hidden"><defs><clipPath id="clip0"><rect x="346" y="59" width="255" height="57"/></clipPath></defs><g clip-path="url(#clip0)" transform="translate(-346 -59)"><path d="M15.8941 1.52249 21.3818 1.52249C21.4821 1.52249 21.5993 1.55595 21.6829 1.62287L56.3153 25.4138C56.4492 25.5142 56.5495 25.6648 56.5495 25.8488L56.5495 29.6467C56.5495 30.065 56.0811 30.3159 55.7298 30.0817L15.6264 2.5096C15.2081 2.22517 15.4089 1.55595 15.9276 1.55595ZM90.4124 36.2051 88.1537 36.2051 84.2722 44.0852 80.3907 36.2051 77.948 36.2051 77.948 37.9618 82.5992 47.1804 79.1192 53.3707 79.1192 55.1274 81.4782 55.1274 90.4124 37.8614 90.4124 36.2051ZM86.8822 4.34997 92.6041 4.34997 92.6041 1.52249 77.8476 1.52249 77.8476 4.34997 83.5695 4.34997 83.5695 20.4114 86.8822 20.4114 86.8822 4.34997ZM95.6825 18.5375C96.6696 19.9764 98.0917 20.6958 99.9321 20.6958 101.655 20.6958 103.044 20.06 104.081 18.7885 105.119 17.517 105.654 15.9443 105.654 14.0537 105.654 12.1799 105.135 10.6072 104.115 9.35243 103.077 8.09763 101.689 7.46186 99.9321 7.46186 98.075 7.46186 96.6529 8.19801 95.649 9.67031L95.4315 7.76302 92.671 7.76302 92.671 26.6854 95.6825 26.6854 95.6825 18.5375ZM96.6194 16.8478C95.9837 16.0614 95.6825 15.1245 95.6825 14.0537 95.6825 12.983 96.0004 12.0461 96.6194 11.2597 97.2385 10.5068 98.075 10.122 99.1625 10.122 100.317 10.122 101.187 10.5068 101.756 11.2764 102.341 12.0628 102.626 12.983 102.626 14.0537 102.626 15.1245 102.341 16.0614 101.756 16.8478 101.17 17.6341 100.317 18.0356 99.1625 18.0356 98.1085 18.0356 97.2552 17.6341 96.6194 16.8478ZM115.575 18.6547 115.843 20.3946 118.436 20.3946 118.436 12.6484C118.436 10.9586 117.984 9.67031 117.064 8.78358 116.144 7.89686 114.822 7.46186 113.066 7.46186 112.38 7.46186 111.761 7.54552 111.192 7.69609 110.623 7.8634 110.171 8.03071 109.837 8.23147 109.502 8.43224 109.218 8.66647 108.95 8.91743 108.699 9.18512 108.532 9.35243 108.465 9.45281 108.398 9.55319 108.348 9.63685 108.314 9.70377L108.314 11.3601 110.456 11.3601 110.506 11.2764C110.539 11.2263 110.59 11.1593 110.64 11.0924 110.69 11.0088 110.774 10.9251 110.857 10.8247 110.941 10.7243 111.058 10.624 111.209 10.5236 111.342 10.4232 111.51 10.3395 111.677 10.2559 111.844 10.189 112.045 10.122 112.263 10.0718 112.48 10.0217 112.731 10.0049 112.999 10.0049 114.605 10.0049 115.408 10.8582 115.408 12.548L115.408 13.2339 115.09 13.1503C114.856 13.1001 114.521 13.0499 114.086 12.9997 113.651 12.9495 113.216 12.9328 112.798 12.9328 111.058 12.9328 109.753 13.2841 108.883 13.9701 108.013 14.6728 107.595 15.593 107.595 16.7474 107.595 17.8181 107.946 18.7383 108.632 19.5079 109.335 20.2775 110.372 20.6623 111.761 20.6623 113.384 20.6623 114.655 19.9764 115.575 18.6212ZM110.573 16.6135C110.573 15.5093 111.342 14.9572 112.882 14.9572 113.852 14.9572 114.705 15.0576 115.391 15.2583L115.391 15.8606C115.391 16.4629 115.124 17.0151 114.605 17.517 114.086 18.0189 113.384 18.2699 112.497 18.2699 111.209 18.2699 110.556 17.7177 110.556 16.6135ZM124.827 15.2081 130.148 15.2081 130.148 20.3946 133.176 20.3946 133.176 7.76302 130.148 7.76302 130.148 12.6484 124.827 12.6484 124.827 7.76302 121.816 7.76302 121.816 20.3946 124.827 20.3946 124.827 15.2081ZM144.436 20.4114C145.055 20.2273 145.54 20.0266 145.874 19.7923 146.209 19.5581 146.493 19.3072 146.744 19.006 146.995 18.7049 147.146 18.4874 147.213 18.3702 147.263 18.2531 147.313 18.1527 147.347 18.0858L147.347 16.4295 145.239 16.4295 145.239 16.4797C145.222 16.5131 145.205 16.5633 145.172 16.6303 145.138 16.6972 145.105 16.7641 145.055 16.8478 145.021 16.9147 144.954 17.0151 144.871 17.1154 144.787 17.2158 144.703 17.3162 144.603 17.3999 144.503 17.4835 144.385 17.5672 144.235 17.6508 144.101 17.7345 143.934 17.8181 143.766 17.885 143.599 17.952 143.382 18.0022 143.147 18.0356 142.913 18.0691 142.662 18.0858 142.394 18.0858 141.307 18.0858 140.454 17.7177 139.885 16.9649 139.299 16.212 139.015 15.2583 139.015 14.0872 139.015 12.9161 139.299 11.9457 139.885 11.1928 140.47 10.4399 141.307 10.0551 142.394 10.0551 142.712 10.0551 143.013 10.0886 143.298 10.1388 143.582 10.2057 143.817 10.2726 144.001 10.3563 144.185 10.4566 144.352 10.557 144.503 10.6909 144.653 10.808 144.77 10.9418 144.871 11.0422 144.954 11.1593 145.038 11.2597 145.088 11.3601 145.138 11.4605 145.188 11.5274 145.205 11.5776L145.222 11.678 147.33 11.678 147.33 10.0217 147.23 9.77069C147.146 9.58665 146.995 9.36916 146.761 9.10147 146.527 8.83378 146.242 8.58282 145.908 8.33186 145.573 8.0809 145.088 7.8634 144.469 7.69609 143.85 7.51206 143.164 7.4284 142.411 7.4284 140.454 7.4284 138.898 8.06417 137.727 9.3357 136.572 10.6072 135.987 12.1799 135.987 14.0872 135.987 15.9945 136.539 17.5839 137.66 18.8387 138.764 20.0935 140.353 20.7125 142.411 20.7125 143.164 20.7125 143.85 20.6121 144.469 20.4281ZM153.253 10.2893 158.322 10.2893 158.322 20.3779 161.35 20.3779 161.35 7.74628 150.224 7.74628 150.224 20.3779 153.236 20.3779 153.236 10.2893ZM175.253 18.7718C176.425 17.5002 177.01 15.9276 177.01 14.037 177.01 12.1632 176.425 10.5905 175.253 9.3357 174.082 8.0809 172.526 7.44513 170.569 7.44513 168.578 7.44513 167.005 8.0809 165.834 9.3357 164.68 10.5905 164.094 12.1632 164.094 14.037 164.094 15.9276 164.68 17.517 165.851 18.7885 167.022 20.06 168.595 20.6958 170.569 20.6958 172.526 20.6958 174.082 20.06 175.253 18.7885ZM167.976 16.8812C167.407 16.1116 167.122 15.158 167.122 14.037 167.122 12.9495 167.407 12.0126 167.976 11.243 168.561 10.4566 169.414 10.0551 170.569 10.0551 171.707 10.0551 172.577 10.4566 173.162 11.243 173.714 12.0293 173.982 12.9662 173.982 14.037 173.982 15.158 173.714 16.1116 173.162 16.8812 172.577 17.6676 171.723 18.0691 170.569 18.0691 169.431 18.0691 168.561 17.6676 167.976 16.8812ZM182.699 18.5208C183.686 19.9597 185.108 20.6791 186.948 20.6791 188.671 20.6791 190.06 20.0433 191.097 18.7718 192.135 17.5002 192.67 15.9276 192.67 14.037 192.67 12.1632 192.151 10.5905 191.131 9.3357 190.093 8.0809 188.705 7.44513 186.948 7.44513 185.091 7.44513 183.669 8.18128 182.665 9.65358L182.448 7.74628 179.687 7.74628 179.687 26.6686 182.699 26.6686 182.699 18.5208ZM183.635 16.831C183 16.0447 182.699 15.1078 182.699 14.037 182.699 12.9662 183.016 12.0293 183.635 11.243 184.255 10.4901 185.091 10.1053 186.179 10.1053 187.333 10.1053 188.203 10.4901 188.772 11.2597 189.357 12.0461 189.642 12.9662 189.642 14.037 189.642 15.1078 189.357 16.0447 188.772 16.831 188.186 17.6174 187.333 18.0189 186.179 18.0189 185.108 18.0189 184.271 17.6174 183.635 16.831ZM200.952 10.2893 204.783 10.2893 204.783 7.74628 194.109 7.74628 194.109 10.2893 197.94 10.2893 197.94 20.3779 200.952 20.3779 200.952 10.2893ZM209.986 15.1914 215.307 15.1914 215.307 20.3779 218.335 20.3779 218.335 7.74628 215.307 7.74628 215.307 12.6316 209.986 12.6316 209.986 7.74628 206.975 7.74628 206.975 20.3779 209.986 20.3779 209.986 15.1914ZM231.033 19.0897C231.887 18.2699 232.305 17.2326 232.305 15.9945 232.305 14.7397 231.853 13.7191 230.966 12.9662 230.08 12.1966 228.775 11.8118 227.068 11.8118L224.81 11.8118 224.81 7.72955 221.798 7.72955 221.798 20.3612 227.018 20.3612C228.808 20.3612 230.147 19.9262 231.017 19.0729ZM236.889 7.74628 233.878 7.74628 233.878 20.3779 236.889 20.3779 236.889 7.74628ZM226.817 14.1876C228.39 14.1876 229.176 14.8066 229.176 16.028 229.176 17.3497 228.39 18.0189 226.817 18.0189L224.826 18.0189 224.826 14.1876 226.817 14.1876ZM248.969 5.11957C249.236 4.93554 249.471 4.71804 249.671 4.48381 249.872 4.24958 250.006 4.06554 250.056 3.9317 250.106 3.79785 250.156 3.68074 250.19 3.58036L250.19 2.0746 247.981 2.0746C247.981 2.19171 247.948 2.35902 247.864 2.57652 247.781 2.79402 247.597 3.02825 247.312 3.2792 247.028 3.53016 246.693 3.66401 246.292 3.66401 245.857 3.66401 245.505 3.53016 245.221 3.2792 244.937 3.02825 244.769 2.79402 244.702 2.59325 244.635 2.39248 244.602 2.20844 244.602 2.0746L242.393 2.0746 242.393 3.58036C242.427 3.68074 242.477 3.79785 242.527 3.9317 242.577 4.06554 242.711 4.24958 242.912 4.48381 243.113 4.71804 243.347 4.93554 243.615 5.11957 243.882 5.30361 244.251 5.47092 244.719 5.60476 245.187 5.75534 245.723 5.82226 246.292 5.82226 246.877 5.82226 247.396 5.75534 247.864 5.60476 248.333 5.45419 248.701 5.30361 248.969 5.11957ZM248.952 12.0628 248.952 20.3612 251.98 20.3612 251.98 7.72955 249.136 7.72955 243.364 16.0112 243.364 7.72955 240.352 7.72955 240.352 20.3612 243.163 20.3612 248.935 12.0628ZM95.5487 43.6168 100.869 43.6168 100.869 48.8033 103.897 48.8033 103.897 36.1716 100.869 36.1716 100.869 41.057 95.5487 41.057 95.5487 36.1716 92.5371 36.1716 92.5371 48.8033 95.5487 48.8033 95.5487 43.6168ZM115.96 40.4881 115.96 48.7865 119.005 48.7865 119.005 36.1549 116.161 36.1549 110.389 44.4366 110.389 36.1549 107.377 36.1549 107.377 48.7865 110.188 48.7865 115.96 40.4881ZM132.005 47.8329C132.858 47.1971 133.276 46.2602 133.276 45.0054 133.276 44.3027 133.075 43.7004 132.657 43.1818 132.239 42.6631 131.67 42.3118 130.917 42.0943 132.155 41.5924 132.791 40.7056 132.791 39.4341 132.791 38.3633 132.39 37.5435 131.57 36.9747 130.75 36.4059 129.679 36.1214 128.341 36.1214L122.468 36.1214 122.468 48.8033 128.608 48.8033C130.031 48.8033 131.168 48.4854 132.021 47.8496ZM127.989 38.3633C129.11 38.3633 129.662 38.8151 129.662 39.7018 129.662 40.622 129.11 41.0904 127.989 41.0904L125.396 41.0904 125.396 38.3801 127.989 38.3801ZM128.14 43.3658C129.478 43.3658 130.148 43.8845 130.148 44.9218 130.148 45.9591 129.478 46.4777 128.14 46.4777L125.396 46.4777 125.396 43.3491 128.14 43.3491ZM144.001 48.8367C144.653 48.6694 145.172 48.5021 145.54 48.3013 145.908 48.1006 146.242 47.8664 146.527 47.6154 146.811 47.3644 146.995 47.1804 147.079 47.08 147.146 46.9796 147.213 46.896 147.246 46.8291L147.246 45.1727 145.055 45.1727 145.038 45.2564C145.004 45.3066 144.954 45.3735 144.887 45.4404 144.82 45.5241 144.737 45.6077 144.636 45.7081 144.536 45.8085 144.402 45.9089 144.235 46.0093 144.068 46.1096 143.883 46.1933 143.666 46.2769 143.448 46.3606 143.181 46.4108 142.88 46.461 142.578 46.5112 142.244 46.5446 141.893 46.5446 140.822 46.5446 139.969 46.2267 139.349 45.6077 138.73 44.9887 138.379 44.1354 138.312 43.0479L147.363 43.0479 147.481 41.5589C147.481 39.8524 146.995 38.4637 146.008 37.4264 145.038 36.3724 143.566 35.8538 141.608 35.8538 139.634 35.8538 138.078 36.4895 136.957 37.7443 135.836 38.9991 135.267 40.5885 135.267 42.4791 135.267 44.4533 135.836 46.0594 136.974 47.2808 138.111 48.5021 139.734 49.1044 141.859 49.1044 142.629 49.1044 143.331 49.0208 143.984 48.8702ZM141.625 38.3466C142.562 38.3466 143.298 38.5976 143.8 39.0828 144.302 39.5847 144.553 40.2037 144.553 40.9566L138.413 40.9566C138.781 39.2166 139.851 38.3466 141.625 38.3466ZM153.37 46.896C154.374 48.3348 155.779 49.0542 157.619 49.0542 159.343 49.0542 160.731 48.4185 161.769 47.1469 162.823 45.8754 163.341 44.3027 163.341 42.4122 163.341 40.5383 162.823 38.9657 161.802 37.7109 160.781 36.4561 159.376 35.8203 157.619 35.8203 155.762 35.8203 154.34 36.5564 153.336 38.0287L153.119 36.1214 150.358 36.1214 150.358 55.0438 153.37 55.0438 153.37 46.896ZM154.323 45.2062C153.688 44.4198 153.37 43.4829 153.37 42.4122 153.37 41.3414 153.688 40.4045 154.323 39.6181 154.942 38.8653 155.779 38.4805 156.866 38.4805 158.021 38.4805 158.891 38.8653 159.46 39.6349 160.045 40.4212 160.33 41.3414 160.33 42.3954 160.33 43.4662 160.045 44.4031 159.46 45.1894 158.874 45.9758 158.021 46.3773 156.866 46.3773 155.796 46.3773 154.959 45.9758 154.323 45.1894ZM173.898 48.7865C174.517 48.6025 175.002 48.4017 175.337 48.1675 175.672 47.9333 175.956 47.6823 176.207 47.3812 176.458 47.08 176.609 46.8625 176.676 46.7454 176.726 46.6283 176.776 46.5279 176.809 46.461L176.809 44.8046 174.701 44.8046 174.701 44.8548C174.685 44.8883 174.668 44.9385 174.634 45.0054 174.601 45.0723 174.567 45.1393 174.517 45.2229 174.484 45.3066 174.417 45.3902 174.333 45.4906 174.25 45.591 174.166 45.6914 174.066 45.775 173.965 45.8587 173.848 45.9423 173.697 46.026 173.564 46.1096 173.396 46.1933 173.229 46.2602 173.062 46.3271 172.844 46.3773 172.627 46.4108 172.392 46.4442 172.142 46.461 171.874 46.461 170.786 46.461 169.933 46.0929 169.364 45.34 168.779 44.5871 168.494 43.6335 168.494 42.4624 168.494 41.2912 168.779 40.3208 169.364 39.568 169.95 38.8151 170.786 38.4303 171.874 38.4303 172.192 38.4303 172.493 38.4637 172.777 38.5139 173.062 38.5808 173.296 38.6478 173.48 38.7314 173.664 38.8318 173.831 38.9322 173.982 39.066 174.132 39.1832 174.25 39.317 174.35 39.4174 174.434 39.5345 174.517 39.6349 174.567 39.7353 174.618 39.8356 174.668 39.9193 174.685 39.9695L174.718 40.0699 176.826 40.0699 176.826 38.4135 176.726 38.1626C176.642 37.9785 176.491 37.761 176.257 37.4934 176.023 37.2257 175.739 36.9747 175.404 36.7237 175.069 36.4728 174.584 36.2553 173.965 36.088 173.346 35.9039 172.66 35.8203 171.907 35.8203 169.95 35.8203 168.394 36.4561 167.223 37.7276 166.068 38.9991 165.483 40.5718 165.483 42.4791 165.483 44.3864 166.035 45.9758 167.156 47.2306 168.26 48.4854 169.849 49.1044 171.907 49.1044 172.66 49.1044 173.329 49.004 173.965 48.82ZM188.303 40.4547 188.303 48.7531 191.332 48.7531 191.332 36.1214 188.487 36.1214 182.715 44.4031 182.715 36.1214 179.704 36.1214 179.704 48.7531 182.515 48.7531 188.287 40.4547ZM200.366 38.6645 204.197 38.6645 204.197 36.1214 193.523 36.1214 193.523 38.6645 197.355 38.6645 197.355 48.7531 200.366 48.7531 200.366 38.6645ZM214.336 48.82C214.989 48.6527 215.507 48.4854 215.875 48.2846 216.243 48.0838 216.578 47.8496 216.863 47.5987 217.147 47.3477 217.331 47.1637 217.415 47.0633 217.482 46.9629 217.548 46.8792 217.582 46.8123L217.582 45.156 215.39 45.156 215.373 45.2396C215.34 45.2898 215.29 45.3568 215.223 45.4237 215.156 45.5073 215.072 45.591 214.972 45.6914 214.872 45.7918 214.738 45.8921 214.57 45.9925 214.403 46.0929 214.219 46.1766 214.002 46.2602 213.784 46.3439 213.533 46.3941 213.215 46.4442 212.914 46.4944 212.579 46.5279 212.228 46.5279 211.141 46.5279 210.304 46.21 209.685 45.591 209.066 44.972 208.715 44.1187 208.648 43.0312L217.699 43.0312 217.816 41.5422C217.816 39.8356 217.331 38.447 216.344 37.4097 215.373 36.3557 213.901 35.837 211.944 35.837 209.969 35.837 208.414 36.4728 207.293 37.7276 206.172 38.9824 205.603 40.5718 205.603 42.4624 205.603 44.4366 206.172 46.0427 207.309 47.264 208.447 48.4854 210.07 49.0877 212.195 49.0877 212.964 49.0877 213.667 49.004 214.319 48.8535ZM211.96 38.3299C212.897 38.3299 213.633 38.5808 214.135 39.066 214.637 39.568 214.888 40.187 214.888 40.9399L208.748 40.9399C209.116 39.1999 210.187 38.3299 211.96 38.3299ZM226.265 38.6478 230.096 38.6478 230.096 36.1047 219.422 36.1047 219.422 38.6478 223.254 38.6478 223.254 48.7363 226.265 48.7363 226.265 38.6478ZM18.6045 9.40262 6.49149 1.52249C6.40783 1.4723 6.30745 1.43883 6.20707 1.43883L3.47997 1.43883C3.19555 1.43883 2.96132 1.67306 2.96132 1.95748L2.96132 3.89824C2.96132 4.08228 3.04498 4.24958 3.19555 4.33323L15.8272 12.5312C16.0614 12.6818 16.3793 12.6149 16.5466 12.3807L18.6045 9.38589ZM56.2986 35.4188 49.7569 30.8346C49.5227 30.6673 49.1881 30.7342 49.0208 30.9684L47.264 33.5115C47.0967 33.7457 47.1637 34.0803 47.3979 34.2476L55.6796 39.9695C56.0309 40.2037 56.4994 39.9528 56.4994 39.5345L56.4994 35.8538C56.4994 35.6864 56.4157 35.5191 56.2819 35.4188ZM23.9415 38.2295 20.9635 36.1716C20.7293 36.0043 20.3946 36.0713 20.2273 36.3055L7.96378 54.1738C7.72955 54.5251 7.98051 54.9936 8.39878 54.9936L12.1632 54.9936C12.3305 54.9936 12.4978 54.91 12.5982 54.7594L23.9583 38.2128ZM24.159 23.289 3.79785 9.2855C3.44651 9.05127 2.97805 9.30223 2.97805 9.7205L2.97805 13.4849C2.97805 13.6522 3.06171 13.8195 3.21228 13.9199L17.9854 24.0754C18.2197 24.2427 18.2866 24.5606 18.1193 24.8115L3.07844 46.6952C3.01151 46.7789 2.99478 46.8792 2.99478 46.9964L2.99478 50.9281 2.99478 52.6346C2.99478 53.1532 3.66401 53.354 3.94843 52.9357L24.1758 23.3225ZM35.4689 36.088 55.713 50.0079C56.0644 50.2421 56.5328 49.9911 56.5328 49.5729L56.5328 45.8085C56.5328 45.6412 56.4492 45.4739 56.2986 45.3735L34.8332 30.6171C34.599 30.4498 34.2643 30.5167 34.097 30.7509L18.0189 54.1738C17.7847 54.5251 18.0356 54.9936 18.4539 54.9936L22.2183 54.9936C22.3856 54.9936 22.5529 54.91 22.6533 54.7594L35.4857 36.088Z" fill="#163E73" transform="matrix(1 0 0 1.00588 346.013 59)"/></g></svg>