<svg width="870" height="651" xmlns="http://www.w3.org/2000/svg" xmlns:xlink="http://www.w3.org/1999/xlink" overflow="hidden"><defs><clipPath id="clip0"><rect x="669" y="198" width="870" height="651"/></clipPath><clipPath id="clip1"><path d="M669.517 490.137 1394.52 198.373 1538.78 556.847 813.778 848.611Z" fill-rule="evenodd" clip-rule="evenodd"/></clipPath><clipPath id="clip2"><path d="M669.517 490.137 1394.52 198.373 1538.78 556.847 813.778 848.611Z" fill-rule="evenodd" clip-rule="evenodd"/></clipPath><clipPath id="clip3"><path d="M669.517 490.137 1394.52 198.373 1538.78 556.847 813.778 848.611Z" fill-rule="evenodd" clip-rule="evenodd"/></clipPath></defs><g clip-path="url(#clip0)" transform="translate(-669 -198)"><g clip-path="url(#clip1)"><g clip-path="url(#clip2)"><g clip-path="url(#clip3)"><path d="M641.397 384.41C591.576 384.41 537.331 366.056 486.949 349.007 448.694 336.062 412.561 323.836 381.951 320.726 352.797 317.777 314.896 322.503 274.773 327.519 179.262 339.454 71.0053 352.99 21.877 273.925-23.5584 200.801 15.2097 113.965 74.7556 69.388 174.539-5.30957 330.05-2.21866 413.876 6.28454 490.171 14.0161 631.945 41.0586 724.228 135.29 759.926 171.738 780.067 216.983 779.494 259.423 779.043 292.545 765.622 322.808 740.675 346.937 712.167 374.512 677.972 384.41 641.397 384.41ZM362.046 317.639C369.114 317.639 375.839 317.923 382.172 318.568 413.026 321.701 449.272 333.965 487.648 346.95 574.417 376.314 672.775 409.593 739.164 345.377 764.038 321.319 776.876 292.388 777.323 259.393 777.888 217.528 757.972 172.847 722.678 136.807 630.873 43.0662 489.659 16.1467 413.655 8.44268 330.154-0.0117747 175.253-3.12814 76.0573 71.1264 17.283 115.124-21.0334 200.752 23.7214 272.781 72.112 350.664 179.635 337.22 274.504 325.365 306.086 321.417 336.297 317.639 362.046 317.639Z" stroke="#B3BAD6" stroke-width="5.45384" stroke-opacity="0.3" fill="none" transform="matrix(0.927697 -0.373334 0.373334 0.927697 669.517 490.137)"/><path d="M611.609 340.637C564.466 340.641 513.959 324.483 467.203 309.526 431.955 298.252 398.661 287.603 369.858 284.623 345.661 282.123 312.479 286.007 277.349 290.122 192.575 300.054 96.4959 311.307 53.4921 249.147 13.1872 190.888 41.0331 109.663 92.3283 70.3544 180.417 2.84172 315.488 0.475826 413.282 10.3867 485.651 17.7176 619.163 43.2718 700.188 132.048 730.598 165.361 745.915 205.338 742.212 241.725 739.268 270.718 724.063 295.956 698.243 314.71 672.189 333.641 642.622 340.635 611.609 340.637ZM352.742 281.664C358.903 281.664 364.707 281.907 370.083 282.465 399.108 285.466 432.506 296.149 467.863 307.459 544.889 332.093 632.184 360.014 696.971 312.954 722.27 294.572 737.171 269.866 740.054 241.504 743.692 205.732 728.579 166.371 698.586 133.511 618.043 45.2689 485.126 19.8461 413.062 12.5449 333.325 4.46775 185.794 1.46162 93.6469 72.0759 43.1467 110.781 15.6782 190.669 55.2774 247.913 97.537 309 192.931 297.826 277.097 287.964 304.595 284.744 330.904 281.664 352.742 281.664Z" stroke="#B3BAD6" stroke-width="5.45384" stroke-opacity="0.3" fill="none" transform="matrix(0.927697 -0.373334 0.373334 0.927697 669.517 490.137)"/><path d="M570.983 304.514C525.256 304.517 476.924 291.672 432.213 279.794 399.248 271.036 368.11 262.764 340.363 259.97 322.097 258.138 296.052 260.372 268.466 262.744 198.355 268.772 111.094 276.276 76.1888 226.158 41.2558 175.995 65.0736 105.474 109.233 71.0795 190.377 7.88091 318.826 5.4578 412.3 14.5525 480.927 21.2325 606.381 44.9298 675.493 128.58 698.877 156.879 709.024 190.428 703.34 220.625 698.247 247.653 681.228 269.919 654.11 285.013 628.58 299.227 600.316 304.513 570.983 304.514ZM324.82 257.125C330.516 257.125 335.806 257.33 340.58 257.811 368.5 260.621 399.719 268.914 432.771 277.697 505.762 297.088 588.489 319.068 653.055 283.118 679.591 268.346 696.242 246.597 701.209 220.222 706.77 190.661 696.793 157.763 673.821 129.962 605.205 46.914 480.385 23.361 412.089 16.7149 319.024 7.65618 191.149 10.0348 110.568 72.7923 67.1915 106.574 43.7423 175.764 77.9694 224.916 112.16 274.008 198.728 266.565 268.28 260.582 288.806 258.816 308.487 257.125 324.82 257.125Z" stroke="#B3BAD6" stroke-width="5.45384" stroke-opacity="0.3" fill="none" transform="matrix(0.927697 -0.373334 0.373334 0.927697 669.517 490.137)"/><path d="M524.596 273.796C481.605 273.796 436.75 264.46 392.782 255.306 362.848 249.075 334.576 243.19 308.121 240.589 293.578 239.158 273.891 240.059 253.05 241.011 194.759 243.675 122.198 246.989 93.4389 204.835 64.1601 161.916 87.3358 102.269 125.597 71.614 209.862 4.11371 353.202 12.1908 410.921 18.7903 529.72 32.3857 608.009 67.1047 650.263 124.929 667.048 147.903 672.527 172.737 666.102 196.746 659.203 222.522 638.636 244.661 609.664 257.487 582.784 269.389 554.129 273.796 524.596 273.796ZM289.743 237.672C296.52 237.672 302.787 237.882 308.332 238.427 334.902 241.04 363.232 246.938 393.223 253.181 467.064 268.549 543.409 284.44 608.786 255.503 637.151 242.944 657.275 221.322 664.004 196.184 670.257 172.832 664.895 148.637 648.509 126.21 606.633 68.9021 528.838 34.4697 410.674 20.9485 353.228 14.3723 210.585 6.31424 126.954 73.3098 89.4471 103.358 66.6531 161.719 95.2325 203.61 123.307 244.763 195.183 241.471 252.953 238.842 265.978 238.246 278.557 237.672 289.743 237.672Z" stroke="#B3BAD6" stroke-width="5.45384" stroke-opacity="0.3" fill="none" transform="matrix(0.927697 -0.373334 0.373334 0.927697 669.517 490.137)"/><path d="M476.369 246.436C435.3 246.436 393.144 239.736 351.788 233.164 326.842 229.202 303.279 225.458 280.253 223.203 269.285 222.128 255.27 222.198 240.438 222.27 191.401 222.499 130.401 222.817 107.679 185.016 84.9061 147.136 108.139 98.5122 141.562 71.9913 212.128 15.9983 325.969 14.491 409.051 23.096 471.48 29.5556 582.51 50.8866 624.629 121.164L624.629 121.164C635.432 139.18 637.741 157.259 631.507 174.903 623.014 198.925 598.87 220.256 566.919 231.967 537.908 242.599 507.451 246.436 476.369 246.436ZM251.403 220.063C262.164 220.063 272.155 220.227 280.466 221.041 303.556 223.304 327.15 227.053 352.129 231.021 424.509 242.522 499.358 254.418 566.173 229.927 597.055 218.609 621.304 197.248 629.457 174.18 635.471 157.176 633.217 139.714 622.771 122.279 581.134 52.8139 470.855 31.6734 408.826 25.2541 326.164 16.7043 212.91 18.1543 142.911 73.6915 110.212 99.6376 87.4035 147.079 109.54 183.896 131.63 220.64 191.978 220.354 240.428 220.099 244.148 220.08 247.82 220.063 251.403 220.063Z" stroke="#B3BAD6" stroke-width="5.45384" stroke-opacity="0.3" fill="none" transform="matrix(0.927697 -0.373334 0.373334 0.927697 669.517 490.137)"/><path d="M421.162 216.213C379.63 216.213 328.981 213.44 267.239 206.894 264.226 206.574 261.75 206.311 259.87 206.122 252.255 205.363 242.963 205.05 233.124 204.719 193.118 203.37 138.327 201.526 121.236 166.438 105.468 134.068 127.425 94.5543 157.261 72.2496 236.785 12.8141 368.292 22.9539 406.704 27.4738 446.063 32.1101 565.851 46.2206 598.718 117.316 608.834 139.207 608.587 157.817 597.971 172.631 582.437 194.31 537.839 216.213 421.162 216.213ZM343.136 26.0279C287.175 26.0279 211.278 34.5841 158.562 73.988 135.003 91.5967 106.144 130.496 123.187 165.488 139.708 199.4 193.744 201.221 233.199 202.548 243.071 202.88 252.399 203.197 260.086 203.964 261.969 204.15 264.449 204.414 267.468 204.734 501.633 229.559 575.481 200.292 596.209 171.367 606.333 157.236 606.511 139.356 596.747 118.228 564.388 48.2347 445.516 34.2301 406.45 29.6276 393.776 28.1373 370.908 26.0279 343.136 26.0279Z" stroke="#B3BAD6" stroke-width="5.45384" stroke-opacity="0.3" fill="none" transform="matrix(0.927697 -0.373334 0.373334 0.927697 669.517 490.137)"/><path d="M381.995 195.596C322.653 195.596 267.737 190.574 247.96 188.541 242.961 188.028 236.921 187.681 230.527 187.312 197.731 185.425 148.171 182.571 135.735 150.305 124.813 121.955 147.297 90.0745 172.811 72.4489 249.527 19.456 359.903 26.4625 403.799 31.9278 444.249 36.967 551.689 50.3504 572.633 113.424 577.904 129.296 575.924 143.142 566.75 154.571 540.37 187.443 457.595 195.596 381.995 195.596ZM343.539 30.3887C292.176 30.3887 225.444 38.7287 174.045 74.2342 153.315 88.5545 126.547 120.422 137.761 149.525 149.693 180.485 198.414 183.29 230.652 185.145 237.071 185.514 243.135 185.864 248.18 186.383 292.956 190.986 518.674 211.009 565.057 153.212 573.74 142.393 575.594 129.237 570.571 114.107 550.06 52.3346 443.606 39.0743 403.532 34.0817 389.365 32.3158 368.222 30.3887 343.539 30.3887Z" stroke="#B3BAD6" stroke-width="5.45384" stroke-opacity="0.3" fill="none" transform="matrix(0.927697 -0.373334 0.373334 0.927697 669.517 490.137)"/><path d="M365.169 176.419C303.62 176.419 249.056 170.629 244.417 170.123 240.996 169.75 236.981 169.455 232.333 169.116 204.147 167.053 161.554 163.934 152.26 136.606 143.867 111.919 169.232 84.8232 188.329 72.6334 240.05 39.6234 319.293 26.0979 400.293 36.4582 491.004 48.0628 541.564 73.3541 546.513 109.6 548.154 121.599 544.612 132.175 535.985 141.039 508.315 169.472 432.557 176.419 365.169 176.419ZM346.997 35.2095C285.939 35.2095 229.425 48.9789 189.495 74.4652 171.683 85.8348 146.381 112.57 154.316 135.907 163.146 161.874 204.878 164.929 232.491 166.952 236.966 167.278 241.193 167.587 244.651 167.965 254.326 169.018 482.213 193.173 534.43 139.525 542.567 131.166 545.91 121.196 544.364 109.892 539.562 74.7261 489.646 50.0791 400.017 38.6121 382.163 36.3289 364.393 35.2095 346.997 35.2095Z" stroke="#B3BAD6" stroke-width="5.45384" stroke-opacity="0.3" fill="none" transform="matrix(0.927697 -0.373334 0.373334 0.927697 669.517 490.137)"/><path d="M363.083 158.923C308.649 158.923 258.568 153.587 248.233 152.415 216.116 148.772 176.877 137.068 171.999 116.065 168.944 102.919 179.678 88.3891 203.905 72.8796 262.177 35.5742 340.594 34.9933 396.115 41.0734 401.311 41.6437 523.333 55.5909 520.454 105.822L519.373 105.76 520.454 105.822C519.903 115.485 515.362 123.975 506.96 131.056 480.719 153.174 419.559 158.923 363.083 158.923ZM345.066 40.3632C298.615 40.3632 246.631 48.1053 205.075 74.707 181.706 89.6677 171.289 103.418 174.113 115.576 178.736 135.474 217.064 146.695 248.479 150.256 269.442 152.637 454.729 172.247 505.562 129.396 513.49 122.716 517.771 114.743 518.288 105.699L518.288 105.699C521.049 57.5012 400.99 43.7914 395.877 43.2315 380.414 41.5377 363.153 40.3632 345.066 40.3632Z" stroke="#B3BAD6" stroke-width="5.45384" stroke-opacity="0.3" fill="none" transform="matrix(0.927697 -0.373334 0.373334 0.927697 669.517 490.137)"/><path d="M363.681 144.961C323.565 144.961 283.19 141.153 256.853 138.03 228.6 134.683 194.365 124.694 190.852 107.556 188.692 97.0217 198.414 85.4549 219.749 73.174 263.539 47.9699 327.663 37.7344 391.271 45.786 394.58 46.2058 472.543 56.365 491.248 83.9987 495.107 89.6972 496.228 95.7965 494.578 102.129L494.578 102.129C485.747 136.046 425.025 144.961 363.681 144.961ZM348.512 45.258C300.226 45.258 254.46 55.7012 220.83 75.0565 200.398 86.8182 191.028 97.6048 192.978 107.121 196.048 122.099 227.398 132.355 257.108 135.877 323.153 143.704 478.301 156.027 492.476 101.582 493.961 95.8811 492.941 90.3737 489.45 85.2157 474.949 63.7932 420.742 51.705 390.999 47.9399 376.783 46.1403 362.541 45.258 348.512 45.258Z" stroke="#B3BAD6" stroke-width="5.45384" stroke-opacity="0.3" fill="none" transform="matrix(0.927697 -0.373334 0.373334 0.927697 669.517 490.137)"/><path d="M354.726 131.588C314.088 131.588 276.506 127.166 268.219 126.122 248.844 123.685 215.289 115.495 212.425 100.261 210.85 91.8785 218.755 82.9111 235.923 73.6086 282.7 48.2603 343.946 45.1078 385.661 50.6005 399.244 52.3919 456.644 64.1132 468.31 84.851 470.816 89.3091 471.054 93.9052 469.022 98.5122 457.282 125.139 403.78 131.588 354.726 131.588ZM349.215 50.4733C312.965 50.4733 271.059 57.0345 236.957 75.5167 220.714 84.3209 213.177 92.5102 214.56 99.8581 216.849 112.05 244.121 120.903 268.49 123.969 286.618 126.25 446.207 144.889 467.038 97.6343 468.801 93.6317 468.597 89.7988 466.413 85.9151 455.997 67.3886 403.369 55.1246 385.377 52.7544 374.463 51.3152 362.199 50.4733 349.215 50.4733Z" stroke="#B3BAD6" stroke-width="5.45384" stroke-opacity="0.3" fill="none" transform="matrix(0.927697 -0.373334 0.373334 0.927697 669.517 490.137)"/><path d="M352.352 120.935C325.042 120.935 298.108 118.2 280.981 116.021 279.174 115.79 236.718 110.214 233.925 94.8044 232.745 88.2853 239.014 81.3594 252.558 74.2194 285.706 56.7462 335.428 49.4091 379.246 55.5357 390.509 57.1109 437.636 67.043 445.126 83.5368 446.845 87.3271 446.437 91.2025 443.914 95.0566 430.581 115.436 391.088 120.935 352.352 120.935ZM347.73 55.5718C313.365 55.5718 278.655 62.9175 253.571 76.1398 240.96 82.7861 235.068 88.9361 236.062 94.4184 237.926 104.704 264.11 111.686 281.256 113.867 322.267 119.086 420.034 127.583 442.099 93.8692L443.007 94.4631 442.099 93.8692C444.218 90.632 444.561 87.5455 443.15 84.4333 436.572 69.9537 393.787 59.7611 378.945 57.6858 368.767 56.263 358.262 55.5718 347.73 55.5718Z" stroke="#B3BAD6" stroke-width="5.45384" stroke-opacity="0.3" fill="none" transform="matrix(0.927697 -0.373334 0.373334 0.927697 669.517 490.137)"/><path d="M346.342 109.103C334.266 109.103 322.348 108.516 311.625 107.988 305.405 107.681 299.531 107.393 294.341 107.257 282.363 106.941 258.806 100.957 256.484 90.6363 255.299 85.362 259.779 80.1172 269.8 75.0418 296.582 61.4848 333.804 56.2248 371.94 60.6069 398.934 63.7125 419.846 72.6482 422.79 82.3367 423.515 84.7238 423.498 88.317 419.295 91.8937L419.295 91.8937C402.71 105.993 374.124 109.103 346.342 109.103ZM346.372 61.315C317.959 61.315 290.881 66.8016 270.779 76.9795 261.888 81.4823 257.676 86.0402 258.602 90.1592 260.438 98.3212 281.258 104.74 294.396 105.086 299.611 105.224 305.498 105.512 311.731 105.82 346.768 107.547 394.751 109.911 417.887 90.2399L417.887 90.2399C420.543 87.9822 421.495 85.5357 420.713 82.9684 418.434 75.4681 400.863 66.1208 371.69 62.7651 363.234 61.7921 354.743 61.315 346.372 61.315Z" stroke="#B3BAD6" stroke-width="5.45384" stroke-opacity="0.3" fill="none" transform="matrix(0.927697 -0.373334 0.373334 0.927697 669.517 490.137)"/><path d="M340.654 101.283C329.619 101.283 318.301 100.486 307.41 99.4639 288.823 97.7172 278.422 93.6933 277.334 87.8272 276.828 85.1011 278.227 80.8571 287.764 76.1294 312.876 63.683 342.948 63.6617 363.751 65.8451 383.274 67.8888 397.594 74.0115 399.381 81.0815 399.884 83.0639 399.619 86.0167 395.512 88.8258 381.485 98.421 361.578 101.283 340.654 101.283ZM343.325 66.9223C325.939 66.9223 306.096 69.4661 288.727 78.0753 282.329 81.2469 278.954 84.6582 279.469 87.433 280.321 92.0378 290.843 95.7265 307.614 97.3017 338.763 100.232 373.429 101.298 394.287 87.0323L394.287 87.0323C396.755 85.3451 397.76 83.5216 397.279 81.6138 395.977 76.4706 383.965 70.1426 363.526 68.0034 357.467 67.3695 350.611 66.9223 343.325 66.9223Z" stroke="#B3BAD6" stroke-width="5.45384" stroke-opacity="0.3" fill="none" transform="matrix(0.927697 -0.373334 0.373334 0.927697 669.517 490.137)"/></g></g></g></g></svg>