<svg width="512" height="512" viewBox="0 0 512 512" fill="none" xmlns="http://www.w3.org/2000/svg">
<g clip-path="url(#clip0_3515_1277)">
<path d="M277.333 43.7547V21.3333C277.333 15.6754 275.086 10.2492 271.085 6.24839C267.084 2.24761 261.658 0 256 0C250.342 0 244.916 2.24761 240.915 6.24839C236.914 10.2492 234.667 15.6754 234.667 21.3333V43.7547C191.718 47.6051 150.665 63.2364 116.032 88.9263C81.3986 114.616 54.5287 149.368 38.3828 189.352C22.2368 229.336 17.4414 273.002 24.5249 315.537C31.6083 358.073 50.2957 397.827 78.5282 430.421C67.3787 435.937 58.0616 444.558 51.6991 455.247C45.3365 465.936 42.1998 478.236 42.6668 490.667C42.6668 496.325 44.9145 501.751 48.9152 505.752C52.916 509.752 58.3422 512 64.0002 512C69.6581 512 75.0843 509.752 79.0851 505.752C83.0859 501.751 85.3335 496.325 85.3335 490.667C85.1562 484.091 87.5169 477.7 91.9259 472.818C96.3349 467.936 102.454 464.939 109.014 464.448C110.481 464.169 111.912 463.725 113.28 463.125C154.145 494.82 204.391 512.022 256.107 512.022C307.822 512.022 358.069 494.82 398.934 463.125C400.182 463.701 401.482 464.158 402.816 464.491C409.399 464.94 415.554 467.913 419.998 472.79C424.441 477.667 426.831 484.071 426.667 490.667C426.667 496.325 428.914 501.751 432.915 505.752C436.916 509.752 442.342 512 448 512C453.658 512 459.084 509.752 463.085 505.752C467.086 501.751 469.333 496.325 469.333 490.667C469.801 478.236 466.664 465.936 460.301 455.247C453.939 444.558 444.622 435.937 433.472 430.421C461.705 397.827 480.392 358.073 487.475 315.537C494.559 273.002 489.764 229.336 473.618 189.352C457.472 149.368 430.602 114.616 395.968 88.9263C361.335 63.2364 320.282 47.6051 277.333 43.7547ZM64.0002 277.333C64.0002 239.359 75.2608 202.238 96.358 170.664C117.455 139.09 147.442 114.481 182.525 99.9485C217.608 85.4165 256.213 81.6142 293.458 89.0226C330.702 96.4309 364.913 114.717 391.765 141.569C418.616 168.421 436.903 202.632 444.311 239.876C451.719 277.12 447.917 315.725 433.385 350.809C418.853 385.892 394.244 415.878 362.67 436.976C331.095 458.073 293.974 469.333 256 469.333C205.098 469.271 156.298 449.023 120.304 413.029C84.3107 377.036 64.0623 328.236 64.0002 277.333Z" fill="white"/>
<path d="M409.92 0.000187196C404.262 0.000187196 398.836 2.2478 394.835 6.24858C390.835 10.2494 388.587 15.6756 388.587 21.3335C388.587 26.9915 390.835 32.4177 394.835 36.4185C398.836 40.4192 404.262 42.6669 409.92 42.6669C417.359 42.1014 424.836 43.0483 431.899 45.4505C438.962 47.8527 445.466 51.6604 451.018 56.6441C456.57 61.6278 461.055 67.6842 464.203 74.4481C467.35 81.2121 469.096 88.5434 469.334 96.0002C469.334 101.658 471.581 107.084 475.582 111.085C479.583 115.086 485.009 117.334 490.667 117.334C496.325 117.334 501.751 115.086 505.752 111.085C509.753 107.084 512 101.658 512 96.0002C511.727 82.9548 508.855 70.0947 503.553 58.1726C498.25 46.2504 490.623 35.5054 481.118 26.5663C471.612 17.6271 460.42 10.6734 448.195 6.11185C435.97 1.5503 422.958 -0.527437 409.92 0.000187196Z" fill="white"/>
<path d="M42.6667 96.0002C42.9045 88.5434 44.6499 81.2121 47.7977 74.4481C50.9456 67.6842 55.4306 61.6278 60.9824 56.6441C66.5343 51.6604 73.0379 47.8527 80.1011 45.4505C87.1643 43.0483 94.6409 42.1014 102.08 42.6669C107.738 42.6669 113.164 40.4192 117.165 36.4185C121.166 32.4177 123.413 26.9915 123.413 21.3335C123.413 15.6756 121.166 10.2494 117.165 6.24858C113.164 2.2478 107.738 0.000187196 102.08 0.000187196C89.0424 -0.527437 76.0305 1.5503 63.8055 6.11185C51.5805 10.6734 40.388 17.6271 30.8827 26.5663C21.3774 35.5054 13.7503 46.2504 8.44759 58.1726C3.14486 70.0947 0.272987 82.9548 0 96.0002C0 101.658 2.24761 107.084 6.24839 111.085C10.2492 115.086 15.6754 117.334 21.3333 117.334C26.9913 117.334 32.4175 115.086 36.4183 111.085C40.4191 107.084 42.6667 101.658 42.6667 96.0002Z" fill="white"/>
<path d="M277.333 247.168V149.333C277.333 143.675 275.086 138.249 271.085 134.248C267.084 130.248 261.658 128 256 128C250.342 128 244.916 130.248 240.915 134.248C236.914 138.249 234.667 143.675 234.667 149.333V256C234.668 261.657 236.916 267.083 240.917 271.083L304.917 335.083C308.941 338.969 314.33 341.119 319.923 341.07C325.517 341.022 330.867 338.778 334.823 334.823C338.778 330.867 341.022 325.517 341.07 319.923C341.119 314.33 338.969 308.941 335.083 304.917L277.333 247.168Z" fill="white"/>
</g>
<defs>
<clipPath id="clip0_3515_1277">
<rect width="512" height="512" fill="white"/>
</clipPath>
</defs>
</svg>
