<svg width="512" height="512" viewBox="0 0 512 512" fill="none" xmlns="http://www.w3.org/2000/svg">
<g clip-path="url(#clip0_3515_1286)">
<path d="M383.872 48.7679C357.833 25.5048 325.943 9.78301 291.633 3.29443C257.324 -3.19415 221.895 -0.203838 189.159 11.9436C156.423 24.091 127.62 44.9355 105.848 72.234C84.0762 99.5324 70.161 132.251 65.5998 166.869C61.5033 197.223 64.7795 228.118 75.1511 256.937C85.5227 285.757 102.684 311.654 125.184 332.437C139.097 344.639 150.325 359.597 158.154 376.365C165.983 393.133 170.244 411.344 170.666 429.845V433.28C170.689 454.151 178.99 474.16 193.748 488.918C208.506 503.676 228.516 511.977 249.386 512H262.613C283.484 511.977 303.494 503.676 318.252 488.918C333.01 474.16 341.311 454.151 341.333 433.28V421.568C341.652 405.215 345.501 389.124 352.614 374.396C359.728 359.668 369.939 346.651 382.549 336.235C402.999 318.324 419.41 296.272 430.694 271.541C441.978 246.809 447.878 219.962 448.003 192.778C448.128 165.594 442.475 138.694 431.419 113.859C420.363 89.0248 404.156 66.8232 383.872 48.7252V48.7679ZM262.613 469.333H249.386C239.828 469.322 230.664 465.52 223.905 458.761C217.146 452.002 213.344 442.838 213.333 433.28C213.333 433.28 213.184 427.733 213.162 426.667H298.666V433.28C298.655 442.838 294.853 452.002 288.094 458.761C281.335 465.52 272.172 469.322 262.613 469.333ZM354.346 304.192C330.057 325.259 312.515 353.019 303.914 384H277.333V230.741C289.768 226.345 300.542 218.214 308.179 207.46C315.817 196.707 319.945 183.856 320 170.667C320 165.009 317.752 159.582 313.751 155.582C309.751 151.581 304.324 149.333 298.666 149.333C293.008 149.333 287.582 151.581 283.582 155.582C279.581 159.582 277.333 165.009 277.333 170.667C277.333 176.325 275.085 181.751 271.085 185.752C267.084 189.752 261.658 192 256 192C250.342 192 244.916 189.752 240.915 185.752C236.914 181.751 234.666 176.325 234.666 170.667C234.666 165.009 232.419 159.582 228.418 155.582C224.417 151.581 218.991 149.333 213.333 149.333C207.675 149.333 202.249 151.581 198.248 155.582C194.247 159.582 192 165.009 192 170.667C192.054 183.856 196.183 196.707 203.82 207.46C211.458 218.214 222.231 226.345 234.666 230.741V384H206.464C196.842 352.196 178.797 323.588 154.24 301.205C133.396 281.783 118.543 256.804 111.434 229.216C104.324 201.627 105.255 172.581 114.116 145.504C122.977 118.427 139.399 94.45 161.443 76.4023C183.488 58.3546 210.235 46.9894 238.528 43.6479C244.393 42.9932 250.29 42.6656 256.192 42.6666C292.833 42.5576 328.206 56.0772 355.434 80.5972C371.215 94.6686 383.823 111.934 392.425 131.247C401.027 150.561 405.425 171.483 405.329 192.625C405.232 213.768 400.642 234.648 391.864 253.883C383.085 273.117 370.319 290.266 354.41 304.192H354.346Z" fill="white"/>
</g>
<defs>
<clipPath id="clip0_3515_1286">
<rect width="512" height="512" fill="white"/>
</clipPath>
</defs>
</svg>
