<svg width="512" height="512" viewBox="0 0 512 512" fill="none" xmlns="http://www.w3.org/2000/svg">
<g clip-path="url(#clip0_3515_1288)">
<path d="M405.333 42.6667H384V21.3333C384 9.55733 374.464 0 362.667 0C350.869 0 341.333 9.55733 341.333 21.3333V42.6667H170.667V21.3333C170.667 9.55733 161.131 0 149.333 0C137.536 0 128 9.55733 128 21.3333V42.6667H106.667C47.8507 42.6667 0 90.5173 0 149.333V405.333C0 464.149 47.8507 512 106.667 512H192C203.797 512 213.333 502.443 213.333 490.667C213.333 478.891 203.797 469.333 192 469.333H106.667C71.3813 469.333 42.6667 440.619 42.6667 405.333V213.333H490.667C502.464 213.333 512 203.776 512 192V149.333C512 90.5173 464.149 42.6667 405.333 42.6667ZM469.333 170.667H42.6667V149.333C42.6667 114.048 71.3813 85.3333 106.667 85.3333H405.333C440.619 85.3333 469.333 114.048 469.333 149.333V170.667ZM402.752 274.752L281.003 396.501C264.875 412.608 256 434.048 256 456.832V490.667C256 502.443 265.536 512 277.333 512H311.168C333.952 512 355.392 503.104 371.499 486.997L493.248 365.248C505.323 353.152 512 337.088 512 319.979C512 302.869 505.323 286.805 493.248 274.731C468.288 249.771 427.712 249.792 402.752 274.752ZM463.083 335.083L341.333 456.832C333.269 464.896 322.56 469.333 311.168 469.333H298.667V456.832C298.667 445.611 303.232 434.603 311.168 426.667L432.917 304.917C441.259 296.597 454.741 296.597 463.083 304.917C467.115 308.928 469.333 314.283 469.333 320C469.333 325.717 467.115 331.051 463.083 335.083Z" fill="white"/>
</g>
<defs>
<clipPath id="clip0_3515_1288">
<rect width="512" height="512" fill="white"/>
</clipPath>
</defs>
</svg>
