<svg width="512" height="512" viewBox="0 0 512 512" fill="none" xmlns="http://www.w3.org/2000/svg">
<g clip-path="url(#clip0_3515_1320)">
<path d="M512 256C512 267.797 502.443 277.333 490.667 277.333H21.3333C9.55733 277.333 0 267.797 0 256C0 244.202 9.55733 234.666 21.3333 234.666H490.667C502.443 234.666 512 244.202 512 256ZM185.749 112.917L234.667 63.9998V170.666C234.667 182.464 244.224 192 256 192C267.776 192 277.333 182.464 277.333 170.666V63.9998L326.251 112.917C330.411 117.077 335.872 119.168 341.333 119.168C346.795 119.168 352.256 117.077 356.416 112.917C364.757 104.576 364.757 91.0931 356.416 82.7518L286.165 12.5011C269.547 -4.11756 242.453 -4.11756 225.835 12.5011L155.584 82.7518C147.243 91.0931 147.243 104.576 155.584 112.917C163.925 121.258 177.408 121.258 185.749 112.917ZM326.251 399.082L277.333 448V341.333C277.333 329.536 267.776 320 256 320C244.224 320 234.667 329.536 234.667 341.333V448L185.749 399.082C177.408 390.741 163.925 390.741 155.584 399.082C147.243 407.424 147.243 420.906 155.584 429.248L225.835 499.498C234.155 507.818 245.077 511.978 256 511.978C266.923 511.978 277.845 507.818 286.165 499.498L356.416 429.248C364.757 420.906 364.757 407.424 356.416 399.082C348.075 390.741 334.592 390.741 326.251 399.082Z" fill="white"/>
</g>
<defs>
<clipPath id="clip0_3515_1320">
<rect width="512" height="512" fill="white"/>
</clipPath>
</defs>
</svg>
