<svg width="24" height="24" viewBox="0 0 24 24" fill="none" xmlns="http://www.w3.org/2000/svg">
<path d="M3.68824 24.0004C3.65624 24.0004 3.62524 24.0004 3.59324 24.0004C2.57124 23.9734 1.63024 23.5384 0.944244 22.7764C-0.324757 21.3674 -0.212757 18.9924 1.18824 17.5914L7.05624 11.7244C7.30924 11.4704 7.40024 11.0934 7.29724 10.7154C6.93924 9.39741 6.90424 8.03941 7.19524 6.67941C7.90324 3.36441 10.6262 0.735407 13.9722 0.137407C14.9782 -0.0425932 15.9872 -0.0465932 16.9742 0.130407C17.7052 0.259407 18.2732 0.755407 18.4942 1.45541C18.7452 2.25441 18.4912 3.13641 17.8122 3.81441L15.5652 6.03141C14.9072 6.68941 14.8072 7.72141 15.3432 8.37641C15.6512 8.75441 16.0852 8.97441 16.5652 8.99841C17.0372 9.01841 17.5012 8.84341 17.8362 8.50941L20.4162 5.95941C20.9552 5.42041 21.7482 5.22441 22.4862 5.45841C23.2092 5.68541 23.7402 6.28641 23.8712 7.02541C24.0462 8.01241 24.0432 9.02341 23.8642 10.0284C23.2642 13.3754 20.6352 16.0984 17.3202 16.8054C15.9572 17.0964 14.5992 17.0614 13.2842 16.7024C12.9072 16.5984 12.5302 16.6904 12.2762 16.9434L6.30024 22.9184C5.61024 23.6084 4.66324 24.0004 3.68824 24.0004ZM15.6102 1.99341C15.1882 1.99341 14.7562 2.02841 14.3242 2.10541C11.7702 2.56241 9.69024 4.56841 9.15024 7.09641C8.92624 8.14141 8.95224 9.18241 9.22624 10.1894C9.51624 11.2514 9.22624 12.3804 8.47024 13.1374L2.60224 19.0044C1.95224 19.6544 1.87024 20.8144 2.43124 21.4374C2.74624 21.7874 3.17824 21.9874 3.64624 21.9994C4.10724 22.0184 4.55524 21.8364 4.88724 21.5054L10.8622 15.5304C11.6172 14.7754 12.7472 14.4834 13.8102 14.7734C14.8142 15.0474 15.8552 15.0734 16.9032 14.8494C19.4312 14.3104 21.4372 12.2314 21.8952 9.67541C22.0332 8.90341 22.0352 8.12841 21.9012 7.37441V7.36741L19.2462 9.92641C18.5172 10.6554 17.5022 11.0624 16.4652 10.9944C15.4292 10.9424 14.4562 10.4494 13.7962 9.64141C12.6172 8.20241 12.7752 5.99241 14.1572 4.61141L16.4042 2.39441C16.5832 2.21441 16.5952 2.08041 16.5882 2.05341C16.2732 2.01441 15.9452 1.99141 15.6122 1.99141L15.6102 1.99341Z" fill="white"/>
</svg>
