<svg width="512" height="512" viewBox="0 0 512 512" fill="none" xmlns="http://www.w3.org/2000/svg">
<g clip-path="url(#clip0_3515_1345)">
<path d="M405.333 179.712V149.333C405.333 109.728 389.6 71.7442 361.594 43.7387C333.589 15.7333 295.605 0 256 0C216.394 0 178.411 15.7333 150.405 43.7387C122.4 71.7442 106.667 109.728 106.667 149.333V179.712C87.6662 188.004 71.4941 201.654 60.1278 218.991C48.7616 236.329 42.6938 256.602 42.6665 277.333V405.333C42.7004 433.613 53.9493 460.724 73.9459 480.721C93.9424 500.717 121.054 511.966 149.333 512H362.667C390.946 511.966 418.057 500.717 438.054 480.721C458.05 460.724 469.299 433.613 469.333 405.333V277.333C469.306 256.602 463.238 236.329 451.872 218.991C440.506 201.654 424.333 188.004 405.333 179.712ZM149.333 149.333C149.333 121.044 160.571 93.9125 180.575 73.9086C200.579 53.9047 227.71 42.6667 256 42.6667C284.29 42.6667 311.421 53.9047 331.425 73.9086C351.428 93.9125 362.667 121.044 362.667 149.333V170.667H149.333V149.333ZM426.667 405.333C426.667 422.307 419.924 438.586 407.921 450.588C395.919 462.591 379.64 469.333 362.667 469.333H149.333C132.359 469.333 116.081 462.591 104.078 450.588C92.076 438.586 85.3332 422.307 85.3332 405.333V277.333C85.3332 260.359 92.076 244.081 104.078 232.078C116.081 220.076 132.359 213.333 149.333 213.333H362.667C379.64 213.333 395.919 220.076 407.921 232.078C419.924 244.081 426.667 260.359 426.667 277.333V405.333Z" fill="white"/>
<path d="M256 298.667C250.342 298.667 244.916 300.915 240.915 304.915C236.914 308.916 234.667 314.342 234.667 320V362.667C234.667 368.325 236.914 373.751 240.915 377.752C244.916 381.753 250.342 384 256 384C261.658 384 267.084 381.753 271.085 377.752C275.086 373.751 277.333 368.325 277.333 362.667V320C277.333 314.342 275.086 308.916 271.085 304.915C267.084 300.915 261.658 298.667 256 298.667Z" fill="white"/>
</g>
<defs>
<clipPath id="clip0_3515_1345">
<rect width="512" height="512" fill="white"/>
</clipPath>
</defs>
</svg>
