<svg width="512" height="512" viewBox="0 0 512 512" fill="none" xmlns="http://www.w3.org/2000/svg">
<g clip-path="url(#clip0_3515_1348)">
<path d="M512 213.333V405.333C512 464.213 464.213 512 405.333 512H106.667C47.7867 512 0 464.213 0 405.333V170.667C0 111.787 47.7867 64 106.667 64H277.333C289.067 64 298.667 73.6 298.667 85.3333C298.667 97.0667 289.067 106.667 277.333 106.667H106.667C82.1333 106.667 61.0133 120.533 50.1333 140.587L210.773 301.227C235.733 326.187 276.267 326.187 301.227 301.227L382.72 219.733C391.04 211.413 404.48 211.413 412.8 219.733C421.12 228.053 421.12 241.493 412.8 249.813L331.307 331.307C310.613 352 283.093 362.453 255.787 362.453C228.48 362.453 201.173 352 180.267 331.307L42.6667 193.493V405.333C42.6667 440.533 71.4667 469.333 106.667 469.333H405.333C440.533 469.333 469.333 440.533 469.333 405.333V213.333C469.333 201.6 478.933 192 490.667 192C502.4 192 512 201.6 512 213.333ZM341.333 85.3333C341.333 38.1867 379.52 0 426.667 0C473.813 0 512 38.1867 512 85.3333C512 132.48 473.813 170.667 426.667 170.667C379.52 170.667 341.333 132.48 341.333 85.3333ZM384 85.3333C384 108.8 403.2 128 426.667 128C450.133 128 469.333 108.8 469.333 85.3333C469.333 61.8667 450.133 42.6667 426.667 42.6667C403.2 42.6667 384 61.8667 384 85.3333Z" fill="white"/>
</g>
<defs>
<clipPath id="clip0_3515_1348">
<rect width="512" height="512" fill="white"/>
</clipPath>
</defs>
</svg>
