<svg width="512" height="512" viewBox="0 0 512 512" fill="none" xmlns="http://www.w3.org/2000/svg">
<g clip-path="url(#clip0_3515_1362)">
<path d="M256 0C192.192 0 131.99 23.744 85.3336 65.664V21.3333C85.3336 9.536 75.7763 0 64.0003 0C52.2243 0 42.667 9.536 42.667 21.3333V106.667C42.667 130.197 61.803 149.333 85.3336 149.333H170.667C182.443 149.333 192 139.797 192 128C192 116.203 182.443 106.667 170.667 106.667H103.894C143.915 65.856 198.23 42.6667 256 42.6667C373.632 42.6667 469.334 138.368 469.334 256C469.334 373.632 373.632 469.333 256 469.333C144.854 469.333 53.5043 385.963 43.5416 275.413C42.4963 263.68 32.3203 255.019 20.3736 256.085C8.64031 257.152 0.000309944 267.52 1.04564 279.253C13.0136 411.947 122.624 512 256 512C397.163 512 512 397.163 512 256C512 114.837 397.163 0 256 0Z" fill="white"/>
</g>
<defs>
<clipPath id="clip0_3515_1362">
<rect width="512" height="512" fill="white"/>
</clipPath>
</defs>
</svg>
