<svg width="512" height="512" viewBox="0 0 512 512" fill="none" xmlns="http://www.w3.org/2000/svg">
<g clip-path="url(#clip0_3533_231)">
<path d="M429.589 512C421.697 511.978 413.888 510.393 406.612 507.335C399.336 504.278 392.738 499.809 387.2 494.187L256 363.755L124.8 494.272C116.374 502.821 105.568 508.633 93.7901 510.95C82.0125 513.268 69.81 511.983 58.7732 507.264C47.6269 502.781 38.0915 495.04 31.4123 485.054C24.7331 475.068 21.2205 463.299 21.3332 451.285V106.667C21.3332 78.3769 32.5713 51.2458 52.5751 31.2419C72.579 11.2381 99.7101 0 128 0L384 0C398.008 0 411.878 2.75902 424.819 8.11952C437.761 13.48 449.52 21.337 459.425 31.2419C469.33 41.1469 477.187 52.9057 482.547 65.8471C487.908 78.7885 490.667 92.659 490.667 106.667V451.285C490.786 463.289 487.286 475.051 480.623 485.036C473.96 495.021 464.442 502.767 453.312 507.264C445.799 510.406 437.733 512.017 429.589 512ZM128 42.6667C111.026 42.6667 94.7474 49.4095 82.745 61.4118C70.7427 73.4142 63.9999 89.6928 63.9999 106.667V451.285C63.9922 454.84 65.0382 458.318 67.0057 461.278C68.9733 464.239 71.7742 466.55 75.0546 467.92C78.335 469.29 81.9477 469.656 85.4365 468.974C88.9252 468.291 92.1334 466.59 94.6559 464.085L241.067 318.571C245.064 314.597 250.471 312.367 256.107 312.367C261.742 312.367 267.149 314.597 271.147 318.571L417.387 464.043C419.909 466.548 423.117 468.249 426.606 468.931C430.095 469.614 433.707 469.247 436.988 467.877C440.268 466.507 443.069 464.196 445.037 461.236C447.004 458.275 448.05 454.798 448.043 451.243V106.667C448.043 89.6928 441.3 73.4142 429.297 61.4118C417.295 49.4095 401.016 42.6667 384.043 42.6667H128Z" fill="white"/>
</g>
<defs>
<clipPath id="clip0_3533_231">
<rect width="512" height="512" fill="white"/>
</clipPath>
</defs>
</svg>
