<svg width="512" height="512" viewBox="0 0 512 512" fill="none" xmlns="http://www.w3.org/2000/svg">
<g clip-path="url(#clip0_3515_1369)">
<path d="M505.75 475.584L378.411 348.246C413.112 305.805 430.174 251.65 426.066 196.983C421.959 142.316 396.997 91.3182 356.343 54.5393C315.69 17.7605 262.456 -1.98607 207.651 -0.615789C152.847 0.75449 100.666 23.1367 61.9013 61.9013C23.1367 100.666 0.75449 152.847 -0.615789 207.651C-1.98607 262.456 17.7605 315.69 54.5393 356.343C91.3182 396.997 142.316 421.959 196.983 426.066C251.65 430.174 305.805 413.112 348.246 378.411L475.584 505.75C479.608 509.636 484.997 511.786 490.59 511.737C496.184 511.689 501.534 509.445 505.49 505.49C509.445 501.534 511.689 496.184 511.737 490.59C511.786 484.997 509.636 479.608 505.75 475.584ZM213.334 384C179.579 384 146.582 373.991 118.516 355.238C90.4502 336.485 68.5755 309.83 55.6581 278.645C42.7408 247.46 39.361 213.144 45.9462 180.038C52.5314 146.932 68.7858 116.522 92.654 92.654C116.522 68.7858 146.932 52.5314 180.038 45.9462C213.144 39.361 247.46 42.7408 278.645 55.6581C309.83 68.5755 336.485 90.4502 355.238 118.516C373.991 146.582 384 179.579 384 213.334C383.949 258.582 365.952 301.962 333.957 333.957C301.962 365.952 258.582 383.949 213.334 384Z" fill="white"/>
</g>
<defs>
<clipPath id="clip0_3515_1369">
<rect width="512" height="512" fill="white"/>
</clipPath>
</defs>
</svg>
