<svg width="512" height="512" viewBox="0 0 512 512" fill="none" xmlns="http://www.w3.org/2000/svg">
<g clip-path="url(#clip0_3515_1383)">
<path d="M508.502 187.605C504.138 173.715 495.42 161.598 483.637 153.046C471.853 144.494 457.631 139.961 443.072 140.117H349.867L321.558 51.8823C317.106 37.9935 308.358 25.8773 296.576 17.2811C284.793 8.68483 270.585 4.05273 256 4.05273C241.415 4.05273 227.207 8.68483 215.425 17.2811C203.643 25.8773 194.895 37.9935 190.443 51.8823L162.134 140.117H68.9282C54.4161 140.138 40.2816 144.744 28.5438 153.278C16.8059 161.811 8.06508 173.836 3.56973 187.635C-0.925614 201.433 -0.945511 216.299 3.51288 230.109C7.97128 243.92 16.6799 255.968 28.3949 264.533L104.256 320L75.4135 409.322C70.7525 423.176 70.6934 438.165 75.2452 452.055C79.797 465.945 88.7159 477.992 100.672 486.4C112.424 495.078 126.665 499.727 141.273 499.654C155.881 499.58 170.075 494.789 181.739 485.994L256 431.338L330.283 485.93C342.013 494.559 356.177 499.245 370.739 499.316C385.3 499.387 399.509 494.839 411.323 486.325C423.137 477.812 431.947 465.771 436.486 451.935C441.026 438.099 441.061 423.18 436.587 409.322L407.744 320L483.691 264.533C495.54 256.075 504.351 244.027 508.819 230.172C513.288 216.317 513.176 201.392 508.502 187.605ZM458.518 230.08L370.112 294.698C366.481 297.347 363.779 301.075 362.393 305.351C361.006 309.626 361.005 314.23 362.39 318.506L395.99 422.4C397.69 427.669 397.675 433.342 395.948 438.603C394.221 443.863 390.87 448.441 386.377 451.677C381.885 454.913 376.481 456.641 370.945 456.613C365.408 456.585 360.022 454.802 355.563 451.52L268.63 387.52C264.968 384.83 260.543 383.38 256 383.38C251.457 383.38 247.032 384.83 243.371 387.52L156.438 451.52C151.981 454.846 146.58 456.666 141.019 456.717C135.458 456.767 130.026 455.045 125.509 451.8C120.993 448.556 117.627 443.957 115.9 438.67C114.173 433.384 114.174 427.685 115.904 422.4L149.611 318.506C150.996 314.23 150.995 309.626 149.608 305.351C148.221 301.075 145.519 297.347 141.888 294.698L53.4829 230.08C49.0307 226.82 45.7225 222.236 44.031 216.984C42.3394 211.732 42.3509 206.079 44.0639 200.834C45.7769 195.588 49.1037 191.018 53.5691 187.777C58.0345 184.535 63.4102 182.788 68.9282 182.784H177.728C182.245 182.784 186.645 181.35 190.295 178.689C193.944 176.029 196.655 172.278 198.038 167.978L231.104 64.917C232.802 59.6431 236.128 55.0438 240.606 51.781C245.084 48.5182 250.481 46.7603 256.022 46.7603C261.562 46.7603 266.959 48.5182 271.437 51.781C275.915 55.0438 279.242 59.6431 280.939 64.917L314.006 167.978C315.388 172.278 318.099 176.029 321.749 178.689C325.398 181.35 329.798 182.784 334.315 182.784H443.115C448.633 182.788 454.009 184.535 458.474 187.777C462.939 191.018 466.266 195.588 467.979 200.834C469.692 206.079 469.704 211.732 468.012 216.984C466.321 222.236 463.012 226.82 458.56 230.08H458.518Z" fill="white"/>
</g>
<defs>
<clipPath id="clip0_3515_1383">
<rect width="512" height="512" fill="white"/>
</clipPath>
</defs>
</svg>
