<svg width="512" height="512" viewBox="0 0 512 512" fill="none" xmlns="http://www.w3.org/2000/svg">
<g clip-path="url(#clip0_3515_1393)">
<path d="M405.333 0H106.667C47.7867 0 0 47.7867 0 106.667V405.333C0 464.213 47.7867 512 106.667 512H405.333C464.213 512 512 464.213 512 405.333V106.667C512 47.7867 464.213 0 405.333 0ZM469.333 405.333C469.333 440.533 440.533 469.333 405.333 469.333H106.667C71.4667 469.333 42.6667 440.533 42.6667 405.333V106.667C42.6667 71.4667 71.4667 42.6667 106.667 42.6667H405.333C440.533 42.6667 469.333 71.4667 469.333 106.667V405.333ZM106.667 213.333C106.667 201.6 116.267 192 128 192H320C331.733 192 341.333 201.6 341.333 213.333C341.333 225.067 331.733 234.667 320 234.667H128C116.267 234.667 106.667 225.067 106.667 213.333ZM106.667 128C106.667 116.267 116.267 106.667 128 106.667H256C267.733 106.667 277.333 116.267 277.333 128C277.333 139.733 267.733 149.333 256 149.333H128C116.267 149.333 106.667 139.733 106.667 128ZM405.333 298.667C405.333 310.4 395.733 320 384 320H128C116.267 320 106.667 310.4 106.667 298.667C106.667 286.933 116.267 277.333 128 277.333H384C395.733 277.333 405.333 286.933 405.333 298.667ZM213.333 384C213.333 395.733 203.733 405.333 192 405.333H128C116.267 405.333 106.667 395.733 106.667 384C106.667 372.267 116.267 362.667 128 362.667H192C203.733 362.667 213.333 372.267 213.333 384Z" fill="white"/>
</g>
<defs>
<clipPath id="clip0_3515_1393">
<rect width="512" height="512" fill="white"/>
</clipPath>
</defs>
</svg>
