<svg width="1733" height="944" viewBox="0 0 1733 944" fill="none" xmlns="http://www.w3.org/2000/svg">
<path d="M22.5645 131.173C87.7264 169.596 145.421 219.462 192.875 278.373C304.629 418.375 289.394 529.405 353.518 546.775C452.605 573.605 516.589 315.846 724.916 275.113C877.714 245.218 1033.19 346.793 1069.18 370.327C1209.58 462.031 1228.19 563.634 1328.86 566.335C1402.49 568.39 1424.24 514.922 1539.4 492.275C1619.56 476.512 1689.73 486.527 1737.02 497.655" stroke="#0575E6" stroke-opacity="0.1" stroke-width="2" stroke-miterlimit="10"/>
<path d="M22.6289 143.314C87.7968 181.75 145.5 231.623 192.968 290.538C304.723 430.567 289.486 541.571 353.584 558.942C452.698 585.771 516.681 328.011 724.983 287.281C877.808 257.41 1033.29 358.984 1069.27 382.493C1209.67 474.196 1228.26 575.801 1328.95 578.501C1402.59 580.555 1424.31 527.09 1539.49 504.441C1619.68 488.675 1689.82 498.692 1737.12 509.821" stroke="#0575E6" stroke-opacity="0.1" stroke-width="2" stroke-miterlimit="10"/>
<path d="M22.6934 155.456C87.8673 193.884 145.572 243.757 193.032 302.68C304.788 442.708 289.551 553.712 353.674 571.082C452.685 597.919 516.772 340.151 725.073 299.42C877.873 269.551 1033.35 371.126 1069.34 394.634C1209.74 486.364 1228.35 587.941 1329.01 590.642C1402.65 592.697 1424.4 539.204 1539.55 516.556C1619.74 500.791 1689.89 510.808 1737.18 521.936" stroke="#0575E6" stroke-opacity="0.1" stroke-width="2" stroke-miterlimit="10"/>
<path d="M22.8086 167.593C87.9703 206.04 145.665 255.922 193.124 314.845C304.879 454.874 289.642 565.878 353.74 583.249C452.854 610.078 516.837 352.318 725.139 311.588C877.964 281.717 1033.44 383.291 1069.43 406.8C1209.83 498.529 1228.41 600.109 1329.11 602.808C1402.74 604.862 1424.46 551.371 1539.64 528.722C1619.84 512.956 1689.98 522.973 1737.27 534.102" stroke="#0575E6" stroke-opacity="0.1" stroke-width="2" stroke-miterlimit="10"/>
<path d="M22.8477 179.737C88.0156 218.173 145.719 268.045 193.187 326.96C304.968 466.987 289.707 578.019 353.829 595.363C452.917 622.193 516.926 364.431 725.227 323.701C878.053 293.83 1033.51 395.407 1069.52 418.913C1209.89 510.645 1228.5 612.222 1329.17 614.923C1402.81 616.978 1424.55 563.484 1539.71 540.837C1619.9 525.072 1690.04 535.115 1737.33 546.217" stroke="#0575E6" stroke-opacity="0.1" stroke-width="2" stroke-miterlimit="10"/>
<path d="M22.9385 191.876C88.1011 230.32 145.803 280.191 193.277 339.1C305.033 479.129 289.798 590.159 353.894 607.504C452.93 634.339 516.991 376.573 725.31 335.737C878.11 305.868 1033.59 407.443 1069.57 430.951C1209.97 522.681 1228.56 624.26 1329.25 626.959C1402.89 629.014 1424.61 575.522 1539.79 552.873C1619.98 537.107 1690.13 547.15 1737.44 558.251" stroke="#0575E6" stroke-opacity="0.1" stroke-width="2" stroke-miterlimit="10"/>
<path d="M23.0547 204.039C88.2162 242.489 145.904 292.381 193.346 351.319C305.127 491.346 289.866 602.378 353.988 619.721C453.078 646.578 517.087 388.816 725.389 348.086C878.212 318.189 1033.67 419.765 1069.68 443.272C1210.05 535.003 1228.66 636.581 1329.33 639.282C1402.97 641.336 1424.71 587.843 1539.87 565.196C1620.06 549.456 1690.2 559.473 1737.49 570.576" stroke="#0575E6" stroke-opacity="0.1" stroke-width="2" stroke-miterlimit="10"/>
<path d="M23.0859 216.076C88.2599 254.504 145.964 304.378 193.425 363.3C305.178 503.303 289.943 614.333 354.041 631.705C453.155 658.533 517.138 400.773 725.466 360.041C878.263 330.146 1033.74 431.721 1069.73 455.255C1210.13 546.959 1228.71 648.538 1329.41 651.263C1403.04 653.318 1424.79 599.824 1539.95 577.203C1620.11 561.439 1690.26 571.457 1737.57 582.583" stroke="#0575E6" stroke-opacity="0.1" stroke-width="2" stroke-miterlimit="10"/>
<path d="M23.1572 228.319C88.3339 266.753 146.046 316.625 193.522 375.541C305.275 515.544 290.014 626.576 354.138 643.946C453.174 670.78 517.236 413.014 725.531 372.206C878.354 342.309 1033.81 443.886 1069.82 467.418C1210.19 559.124 1228.81 660.727 1329.47 663.428C1403.11 665.483 1424.86 612.015 1540.01 589.368C1620.2 573.603 1690.35 583.62 1737.64 594.748" stroke="#0575E6" stroke-opacity="0.1" stroke-width="2" stroke-miterlimit="10"/>
<path d="M23.2998 240.455C88.4611 278.927 146.15 328.837 193.595 387.786C305.35 527.815 290.113 638.819 354.237 656.189C453.325 683.019 517.309 425.259 725.636 384.527C878.433 354.632 1033.91 456.207 1069.9 479.741C1210.3 571.445 1228.89 673.05 1329.58 675.749C1403.21 677.804 1424.96 624.336 1540.12 601.689C1620.28 585.925 1690.43 595.943 1737.74 607.069" stroke="#0575E6" stroke-opacity="0.1" stroke-width="2" stroke-miterlimit="10"/>
<path d="M23.335 252.548C88.4976 290.992 146.199 340.863 193.674 399.772C305.429 539.801 290.192 650.805 354.29 668.176C453.378 695.007 517.388 437.245 725.689 396.514C878.514 366.643 1033.97 468.22 1069.98 491.726C1210.35 583.432 1228.96 685.035 1329.66 687.735C1403.27 689.791 1425.02 636.324 1540.2 613.674C1620.39 597.909 1690.53 607.926 1737.82 619.054" stroke="#0575E6" stroke-opacity="0.1" stroke-width="2" stroke-miterlimit="10"/>
<path d="M23.4014 264.74C88.5693 303.176 146.272 353.049 193.74 411.964C305.496 551.993 290.259 662.997 354.382 680.366C453.47 707.197 517.454 449.437 725.781 408.705C878.581 378.836 1034.06 480.41 1070.04 503.919C1210.44 595.648 1229.03 697.228 1329.72 699.927C1403.36 701.981 1425.11 648.488 1540.26 625.841C1620.43 610.077 1690.57 620.094 1737.89 631.221" stroke="#0575E6" stroke-opacity="0.1" stroke-width="2" stroke-miterlimit="10"/>
<path d="M23.5449 276.876C88.7022 315.327 146.403 365.197 193.884 424.099C305.639 564.128 290.402 675.132 354.5 692.504C453.534 719.313 517.589 461.469 725.847 420.846C878.672 390.975 1034.13 492.552 1070.14 516.058C1210.51 607.79 1229.12 709.367 1329.81 712.066C1403.43 714.123 1425.17 660.63 1540.35 637.98C1620.54 622.215 1690.69 632.258 1737.98 643.36" stroke="#0575E6" stroke-opacity="0.1" stroke-width="2" stroke-miterlimit="10"/>
<path d="M23.5566 289.021C88.7246 327.457 146.427 377.33 193.896 436.245C305.651 576.274 290.416 687.304 354.538 704.647C453.626 731.478 517.609 473.718 725.936 432.986C878.736 403.117 1034.21 504.691 1070.17 528.202C1210.57 619.932 1229.16 721.511 1329.85 724.21C1403.49 726.264 1425.24 672.771 1540.39 650.124C1620.56 634.36 1690.7 644.403 1738.02 655.504" stroke="#0575E6" stroke-opacity="0.1" stroke-width="2" stroke-miterlimit="10"/>
<path d="M23.6465 301.161C88.8091 339.605 146.511 389.476 193.985 448.385C305.741 588.414 290.506 699.443 354.602 716.789C453.664 743.622 517.699 485.858 726.002 445.153C878.828 415.282 1034.28 516.859 1070.29 540.365C1210.66 632.097 1229.28 733.674 1329.97 736.373C1403.58 738.43 1425.33 684.937 1540.51 662.288C1620.7 646.548 1690.84 656.565 1738.13 667.667" stroke="#0575E6" stroke-opacity="0.1" stroke-width="2" stroke-miterlimit="10"/>
<path d="M23.792 313.322C88.9709 351.742 146.676 401.617 194.131 460.545C305.884 600.548 290.649 711.578 354.771 728.922C453.783 755.784 517.838 497.941 726.094 457.292C878.891 427.397 1034.37 528.972 1070.36 552.48C1210.75 644.21 1229.34 745.789 1330.03 748.488C1403.67 750.543 1425.42 697.05 1540.57 674.402C1620.74 658.665 1690.88 668.682 1738.2 679.782" stroke="#0575E6" stroke-opacity="0.1" stroke-width="2" stroke-miterlimit="10"/>
<path d="M23.8057 325.493C88.9796 363.92 146.684 413.794 194.145 472.716C305.898 612.719 290.663 723.749 354.761 741.121C453.849 767.951 517.858 510.189 726.159 469.459C878.983 439.562 1034.44 541.139 1070.45 564.671C1210.82 656.377 1229.44 757.98 1330.13 760.679C1403.76 762.734 1425.49 709.268 1540.67 686.619C1620.86 670.853 1691 680.87 1738.29 691.999" stroke="#0575E6" stroke-opacity="0.1" stroke-width="2" stroke-miterlimit="10"/>
<path d="M23.8672 337.609C89.0411 376.037 146.745 425.911 194.206 484.833C305.959 624.836 290.724 735.866 354.848 753.235C453.91 780.068 517.92 522.306 726.251 481.625C879.048 451.73 1034.53 553.305 1070.51 576.839C1210.91 668.543 1229.5 770.148 1330.19 772.847C1403.83 774.902 1425.58 721.435 1540.73 698.787C1620.9 683.024 1691.04 693.041 1738.36 704.167" stroke="#0575E6" stroke-opacity="0.1" stroke-width="2" stroke-miterlimit="10"/>
<path d="M24.0361 349.742C89.2041 388.179 146.907 438.051 194.375 496.966C306.13 636.995 290.893 747.999 354.991 765.371C454.005 792.259 518.087 534.413 726.312 493.715C879.138 463.844 1034.62 565.419 1070.6 588.927C1210.97 680.633 1229.59 782.236 1330.28 784.935C1403.92 786.99 1425.64 733.524 1540.82 710.875C1621.01 695.109 1691.15 705.126 1738.45 716.255" stroke="#0575E6" stroke-opacity="0.1" stroke-width="2" stroke-miterlimit="10"/>
<path d="M24.0293 361.966C89.2032 400.393 146.908 450.267 194.368 509.189C306.124 649.218 290.886 760.222 355.01 777.592C454.098 804.422 518.082 546.663 726.409 505.93C879.202 475.983 1034.68 577.558 1070.67 601.066C1211.07 692.796 1229.65 794.375 1330.34 797.075C1403.98 799.129 1425.73 745.636 1540.88 722.989C1621.05 707.225 1691.19 717.242 1738.51 728.368" stroke="#0575E6" stroke-opacity="0.1" stroke-width="2" stroke-miterlimit="10"/>
<path d="M24.1123 374.029C89.2802 412.465 146.983 462.338 194.451 521.253C306.207 661.282 290.969 772.286 355.067 789.657C454.155 816.488 518.165 558.726 726.474 518.099C879.3 488.228 1034.78 589.803 1070.76 613.311C1211.14 705.043 1229.75 806.62 1330.44 809.319C1404.08 811.374 1425.8 757.883 1540.98 735.233C1621.17 719.468 1691.31 729.485 1738.61 740.613" stroke="#0575E6" stroke-opacity="0.1" stroke-width="2" stroke-miterlimit="10"/>
<path d="M24.2812 386.163C89.4492 424.599 147.152 474.471 194.62 533.386C306.376 673.415 291.14 784.445 355.262 801.789C454.255 828.731 518.336 570.885 726.557 530.135C879.357 500.266 1034.84 601.841 1070.82 625.349C1211.22 717.079 1229.81 818.658 1330.5 821.357C1404.14 823.412 1425.88 769.919 1541.04 747.271C1621.2 731.508 1691.37 741.549 1738.66 752.651" stroke="#0575E6" stroke-opacity="0.1" stroke-width="2" stroke-miterlimit="10"/>
<path d="M24.2783 398.437C89.4409 436.881 147.143 486.752 194.617 545.661C306.373 685.69 291.138 796.72 355.234 814.065C454.321 840.896 518.331 583.134 726.632 542.404C879.447 512.403 1034.93 613.978 1070.91 637.486C1211.31 729.216 1229.9 830.795 1330.59 833.494C1404.23 835.549 1425.95 782.057 1541.13 759.408C1621.32 743.643 1691.46 753.686 1738.75 764.788" stroke="#0575E6" stroke-opacity="0.1" stroke-width="2" stroke-miterlimit="10"/>
<path d="M24.334 410.477C89.505 448.897 147.208 498.762 194.671 557.675C306.426 697.704 291.191 808.734 355.313 826.077C454.403 852.934 518.386 595.174 726.712 554.416C879.511 524.547 1034.99 626.121 1070.98 649.63C1211.37 741.359 1229.99 842.937 1330.65 845.638C1404.29 847.692 1426.04 794.199 1541.19 771.552C1621.36 755.814 1691.53 765.829 1738.82 776.932" stroke="#0575E6" stroke-opacity="0.1" stroke-width="2" stroke-miterlimit="10"/>
<path d="M24.5273 422.604C89.7013 461.032 147.406 510.905 194.866 569.828C306.62 709.831 291.385 820.86 355.483 838.232C454.503 865.198 518.584 607.353 726.778 566.578C879.601 536.681 1035.08 638.256 1071.07 661.79C1211.46 753.494 1230.05 855.073 1330.74 857.799C1404.38 859.853 1426.1 806.362 1541.28 783.739C1621.48 767.973 1691.62 777.99 1738.91 789.118" stroke="#0575E6" stroke-opacity="0.1" stroke-width="2" stroke-miterlimit="10"/>
<path d="M24.4883 434.754C89.6622 473.181 147.367 523.055 194.827 581.977C306.581 721.98 291.345 833.01 355.469 850.38C454.557 877.21 518.567 619.448 726.868 578.718C879.665 548.823 1035.14 650.32 1071.16 673.93C1211.53 765.636 1230.14 867.239 1330.81 869.94C1404.45 871.995 1426.19 818.527 1541.35 795.88C1621.54 780.114 1691.68 790.132 1738.98 801.26" stroke="#0575E6" stroke-opacity="0.1" stroke-width="2" stroke-miterlimit="10"/>
<path d="M24.5791 446.893C89.747 485.329 147.45 535.202 194.918 594.117C306.673 734.146 291.436 845.15 355.534 862.521C454.648 889.35 518.632 631.59 726.933 590.86C879.756 560.963 1035.24 662.537 1071.22 686.071C1211.62 777.775 1230.21 879.38 1330.9 882.08C1404.54 884.134 1426.26 830.669 1541.44 808.02C1621.63 792.254 1691.77 802.271 1739.07 813.399" stroke="#0575E6" stroke-opacity="0.1" stroke-width="2" stroke-miterlimit="10"/>
</svg>
