<svg width="1102" height="457" viewBox="0 0 1102 457" fill="none" xmlns="http://www.w3.org/2000/svg">
<path d="M-199.345 702.685C89.8991 561.114 188.603 404.987 224.374 286.546C264.293 154.36 243.706 9.8866 286.798 0.914694C314.391 -4.83233 348.343 49.1155 411.642 167.376C603.596 525.985 607.942 621.218 689.724 645.935C804.289 680.585 874.913 517.573 1051.01 521.087C1180.35 523.674 1285.02 614.436 1355.56 695.114" stroke="white" stroke-opacity="0.2" stroke-miterlimit="10"/>
<path d="M-206.29 688.453C74.8096 549.93 179.183 398.171 217.791 287.166C260.935 163.116 240.559 26.1059 283.203 19.6259C310.619 15.4569 343.932 68.4821 405.076 182.69C590.895 529.714 596.659 626.133 677.811 649.63C793.041 682.525 860.587 507.722 1038.55 505.342C1042.43 505.29 1046.25 505.29 1050.08 505.394C1176.35 508.907 1282.5 599.713 1354.55 679.895" stroke="white" stroke-opacity="0.2" stroke-miterlimit="10"/>
<path d="M-213.214 674.221C59.7201 538.759 169.681 391.626 211.225 287.796C257.529 172.062 237.442 42.3422 279.625 38.3456C306.872 35.7588 339.552 87.8657 398.523 198.016C578.168 533.439 585.316 631.354 665.93 653.324C781.719 684.883 846.325 497.784 1026.13 489.592C1030.07 489.411 1034 489.23 1037.93 489.252C1166.29 489.959 1277.96 582.64 1353.57 664.672" stroke="white" stroke-opacity="0.2" stroke-miterlimit="10"/>
<path d="M-220.153 659.99C44.6538 527.55 160.03 385.396 204.648 288.425C253.982 181.198 234.331 58.5918 276.031 57.0699C303.123 56.0783 335.131 107.245 391.958 213.339C565.451 537.199 574.014 636.403 654.036 657.019C770.443 687.009 832.073 487.773 1013.68 473.843C1017.72 473.533 1021.74 473.235 1025.76 473.106C1156.19 468.941 1273.39 565.563 1352.56 649.44" stroke="white" stroke-opacity="0.2" stroke-miterlimit="10"/>
<path d="M-227.089 645.758C29.5741 516.379 150.188 379.498 198.07 289.055C250.237 190.519 231.242 74.8586 272.445 75.7942C299.387 76.4021 330.73 126.629 385.402 228.666C552.739 540.941 562.719 641.438 642.147 660.71C759.204 689.113 817.843 477.689 1001.25 458.077C1005.37 457.646 1009.49 457.214 1013.62 456.947C1146.13 449.006 1268.85 548.477 1351.59 634.217" stroke="white" stroke-opacity="0.2" stroke-miterlimit="10"/>
<path d="M-234.026 631.526C14.4968 505.204 140.095 373.958 191.503 289.689C246.206 200.013 228.15 91.1383 268.866 94.514C295.665 96.7387 326.332 146.009 378.848 243.993C540.037 544.683 551.44 646.457 630.265 664.405C747.964 691.2 803.624 467.536 988.818 442.34C993.025 441.767 997.233 441.185 1001.48 440.814C1136.05 429.13 1264.33 531.413 1350.6 619.006" stroke="white" stroke-opacity="0.2" stroke-miterlimit="10"/>
<path d="M-240.958 617.294C-0.583326 494.016 129.675 368.771 184.921 290.318C241.757 209.601 225.085 107.439 265.271 113.238C291.937 117.084 321.922 165.405 372.279 259.315C527.315 548.421 540.154 651.462 618.366 668.095C736.734 693.269 789.393 457.322 976.372 426.591C980.683 425.884 984.968 425.159 989.306 424.672C1125.93 409.272 1259.76 514.348 1349.6 603.783" stroke="white" stroke-opacity="0.2" stroke-miterlimit="10"/>
<path d="M-247.895 603.063C-15.664 482.832 106.067 351.28 178.347 290.947C222.124 209.433 222.016 123.762 261.685 131.958C288.217 137.442 317.521 184.772 365.722 274.663C514.601 552.185 528.876 656.472 606.476 671.812C725.508 695.339 775.166 447.07 963.93 410.863C968.318 410.022 972.712 409.16 977.157 408.548C1115.85 389.47 1255.24 497.284 1348.62 588.581" stroke="white" stroke-opacity="0.2" stroke-miterlimit="10"/>
<path d="M-254.832 588.831C-30.7413 471.649 94.279 343.602 171.771 291.577C216.1 217.301 218.946 140.106 258.097 150.682C284.5 157.813 313.114 204.143 359.159 289.969C501.865 555.905 517.606 661.425 594.589 675.485C714.289 697.343 760.934 436.718 951.491 395.092C955.966 394.114 960.45 393.113 965.002 392.38C1105.76 369.655 1250.67 480.189 1347.63 573.336" stroke="white" stroke-opacity="0.2" stroke-miterlimit="10"/>
<path d="M-261.769 574.599C-45.8219 460.465 82.488 335.932 165.192 292.206C210.074 225.165 215.877 156.468 254.511 169.402C280.78 178.193 308.713 223.526 352.598 305.291C489.173 559.66 506.341 666.379 582.699 679.171C703.08 699.344 746.689 426.336 939.053 379.334C943.614 378.222 948.193 377.088 952.849 376.23C1095.67 349.879 1246.12 463.108 1346.63 558.108" stroke="white" stroke-opacity="0.2" stroke-miterlimit="10"/>
<path d="M-268.703 560.368C-60.8963 449.282 70.6988 328.258 158.616 292.84C204.049 233.037 212.801 172.855 250.917 188.126C277.053 198.594 304.309 242.915 346.039 320.605C476.457 563.377 495.077 671.311 570.806 682.857C691.869 701.314 732.434 415.903 926.613 363.576C931.265 362.322 935.934 361.063 940.689 360.076C1085.59 330.125 1241.57 446.027 1345.64 542.877" stroke="white" stroke-opacity="0.2" stroke-miterlimit="10"/>
<path d="M-275.64 546.132C-75.9856 438.102 58.9206 320.584 152.046 293.487C198.03 240.923 209.723 189.269 247.326 206.868C273.319 219.026 299.903 262.312 339.473 335.962C463.739 567.149 483.812 676.265 558.92 686.578C680.672 703.302 718.168 405.478 914.175 347.857C918.917 346.465 923.66 345.072 928.536 343.977C1075.51 310.443 1237.03 428.992 1344.65 527.696" stroke="white" stroke-opacity="0.2" stroke-miterlimit="10"/>
<path d="M-282.576 531.9C-91.0619 426.919 47.1167 312.91 145.467 294.099C192.004 248.774 206.623 205.669 243.744 225.57C269.586 239.427 295.502 281.678 332.916 351.272C451.047 570.874 472.56 681.159 547.026 690.256C669.468 705.212 703.877 394.95 901.737 332.091C906.562 330.556 911.416 329.038 916.396 327.801C1065.46 290.723 1232.49 411.872 1343.67 512.447" stroke="white" stroke-opacity="0.2" stroke-miterlimit="10"/>
<path d="M-289.499 517.668C-106.142 415.735 35.3263 305.24 138.893 294.737C185.978 256.651 203.516 222.095 240.158 244.294C265.845 259.858 291.101 301.058 326.359 366.594C438.321 574.617 461.304 686.065 535.136 693.95C658.277 707.117 689.573 384.396 889.296 316.341C894.211 314.664 899.16 313.017 904.23 311.655C1055.39 271.025 1227.93 394.812 1342.69 497.224" stroke="white" stroke-opacity="0.2" stroke-miterlimit="10"/>
<path d="M-296.445 503.436C-121.224 404.551 23.5384 297.565 132.318 295.362C179.954 264.515 200.398 238.526 236.57 263.027C262.089 280.303 286.698 320.446 319.779 381.93C425.588 578.368 450.029 690.941 523.227 697.65C647.062 709.001 675.233 373.868 876.84 300.596C881.841 298.781 886.885 297.009 892.054 295.518C1045.32 251.361 1223.36 377.748 1341.66 482.009" stroke="white" stroke-opacity="0.2" stroke-miterlimit="10"/>
<path d="M-303.382 489.205C-136.304 393.368 11.7472 289.891 125.739 295.992C173.931 272.383 197.264 254.965 232.984 281.738C258.326 300.734 282.293 339.821 313.24 397.248C412.892 582.097 438.79 695.796 511.359 701.336C635.888 710.842 660.911 363.257 864.419 284.86C869.506 282.902 874.645 281.005 879.94 279.389C1035.29 231.697 1218.83 360.662 1340.69 466.76" stroke="white" stroke-opacity="0.2" stroke-miterlimit="10"/>
<path d="M-310.318 474.973C-151.381 382.189 -0.0438711 282.234 119.165 296.621C167.883 280.238 194.118 271.413 229.397 300.463C254.55 321.179 277.891 359.2 306.678 412.558C400.178 585.822 427.534 700.629 499.468 705.009C624.691 712.64 646.55 352.626 851.981 269.072C857.155 266.968 862.389 264.95 867.765 263.204C1025.25 212.054 1214.3 343.589 1339.7 451.554" stroke="white" stroke-opacity="0.2" stroke-miterlimit="10"/>
<path d="M-317.255 460.724C-166.461 370.988 -11.8349 274.53 112.586 297.238C161.878 288.102 190.958 287.839 225.802 319.165C250.765 341.584 273.486 378.563 300.112 427.88C387.46 589.556 416.273 705.462 487.574 708.704C613.495 714.447 632.172 342.007 839.543 253.348C844.799 251.098 850.132 248.959 855.608 247.084C1015.23 192.429 1209.74 326.521 1338.71 436.352" stroke="white" stroke-opacity="0.2" stroke-miterlimit="10"/>
<path d="M-324.189 446.496C-181.544 359.838 -25.2624 321.006 106.014 297.884C155.137 289.231 187.791 304.304 222.217 337.906C246.977 362.05 269.086 397.964 293.557 443.224C374.748 593.323 405.014 710.299 475.686 712.416C602.293 716.205 617.775 331.349 827.103 237.586C832.441 235.197 837.882 232.934 843.452 230.929C1005.21 172.799 1205.17 309.439 1337.72 421.107" stroke="white" stroke-opacity="0.2" stroke-miterlimit="10"/>
<path d="M-331.126 432.269C-196.612 348.629 -38.3857 271.335 99.4394 298.505C149.158 308.309 184.61 320.739 218.631 356.622C243.18 382.49 264.68 417.335 286.996 458.542C362.039 597.057 393.749 715.093 463.795 716.098C591.084 717.926 603.358 320.67 814.661 221.828C820.089 219.293 825.625 216.922 831.299 214.779C995.319 153.51 1200.64 292.362 1336.74 405.884" stroke="white" stroke-opacity="0.2" stroke-miterlimit="10"/>
<path d="M-338.062 418.042C-211.701 337.45 -49.1119 257.556 92.865 299.139C143.226 313.892 181.42 337.187 215.044 375.346C239.373 402.939 260.279 436.723 280.434 473.869C349.325 600.804 382.484 720.189 451.905 719.797C579.87 719.073 588.773 309.685 802.223 206.083C807.727 203.393 813.367 200.911 819.141 198.637C985.266 133.747 1196.09 275.284 1335.73 390.656" stroke="white" stroke-opacity="0.2" stroke-miterlimit="10"/>
<path d="M-345 403.814C-226.783 326.275 -58.9984 243.863 86.2853 299.777C305.302 384.081 324.25 725.475 440.018 723.492C571.988 721.233 574.687 277.099 806.987 182.496C975.207 113.988 1191.56 258.211 1334.74 375.441" stroke="white" stroke-opacity="0.2" stroke-miterlimit="10"/>
</svg>
