<svg width="20" height="20" viewBox="0 0 20 20" fill="none" xmlns="http://www.w3.org/2000/svg">
<ellipse cx="2.8546" cy="2.7" rx="2.8546" ry="2.7" transform="matrix(-1 0 0 1 12.8545 7.30005)" stroke="#333333" stroke-width="1.2"/>
<path d="M10 1V0.4H9.99998L10 1ZM14.2812 3.64355L13.9936 4.1701L13.9937 4.17015L14.2812 3.64355ZM17.6123 10L17.0123 9.99999V10H17.6123ZM14.2812 16.3564L13.9937 15.8298L13.9936 15.8299L14.2812 16.3564ZM10 19L9.99998 19.6H10V19ZM5.71777 16.3555L6.00534 15.8289L6.00523 15.8288L5.71777 16.3555ZM2.3877 10H2.9877V9.99999L2.3877 10ZM5.71875 3.64355L6.00632 4.17015L6.00638 4.17012L5.71875 3.64355ZM1.40041 7.95982L1.02044 8.42417L1.40041 7.95982ZM3.64168 16.0676L3.51128 15.4819L3.64168 16.0676ZM2.76648 15.8439L2.32133 16.2462L2.76648 15.8439ZM7.69125 18.7327L7.82904 18.1488L7.69125 18.7327ZM7.05346 18.0238L6.47421 18.1803L7.05346 18.0238ZM12.3077 18.7327L12.1699 18.1487L12.3077 18.7327ZM17.2335 15.8439L16.7884 15.4416L17.2335 15.8439ZM16.3583 16.0676L16.228 16.6533L16.3583 16.0676ZM18.9537 6.95523L18.3928 7.16828L18.9537 6.95523ZM17.2335 4.15505L16.7884 4.55737L17.2335 4.15505ZM3.64168 3.93155L3.77217 3.34592L3.64168 3.93155ZM18.5998 12.0393L18.9797 11.5749L18.5998 12.0393ZM18.9538 13.0436L18.3929 12.8306L18.9538 13.0436ZM12.3075 1.2664L12.1699 1.85042L12.3075 1.2664ZM12.9455 1.97545L13.5248 1.81901L12.9455 1.97545ZM10 1V1.6C10.7491 1.6 11.476 1.68697 12.1699 1.85042L12.3075 1.2664L12.445 0.682387C11.6614 0.497796 10.8422 0.4 10 0.4V1ZM12.9455 1.97545L12.3663 2.1319C12.5923 2.96877 13.1578 3.71351 13.9936 4.1701L14.2812 3.64355L14.5689 3.11701C14.0202 2.81727 13.6655 2.33987 13.5248 1.81901L12.9455 1.97545ZM14.2812 3.64355L13.9937 4.17015C14.7827 4.60103 15.6734 4.69886 16.4888 4.51717L16.3584 3.93154L16.2279 3.3459C15.6801 3.46795 15.0885 3.40072 14.5688 3.11696L14.2812 3.64355ZM17.2335 4.15505L16.7884 4.55737C17.4805 5.3231 18.0272 6.20582 18.3928 7.16828L18.9537 6.95523L19.5146 6.74219C19.0944 5.6358 18.4676 4.62557 17.6787 3.75274L17.2335 4.15505ZM18.5997 7.95983L18.2197 7.4955C17.4877 8.09451 17.0123 8.99 17.0123 9.99999L17.6123 10L18.2123 10C18.2123 9.37919 18.5027 8.8145 18.9797 8.42417L18.5997 7.95983ZM17.6123 10H17.0123C17.0123 11.0101 17.488 11.905 18.2199 12.5037L18.5998 12.0393L18.9797 11.5749C18.5027 11.1847 18.2123 10.6205 18.2123 10H17.6123ZM18.9538 13.0436L18.3929 12.8306C18.0274 13.7931 17.4806 14.6758 16.7884 15.4416L17.2335 15.8439L17.6787 16.2462C18.4676 15.3734 19.0945 14.3632 19.5147 13.2566L18.9538 13.0436ZM16.3583 16.0676L16.4886 15.4819C15.6729 15.3005 14.7824 15.3992 13.9937 15.8298L14.2812 16.3564L14.5688 16.883C15.0887 16.5991 15.6805 16.5315 16.228 16.6533L16.3583 16.0676ZM14.2812 16.3564L13.9936 15.8299C13.1581 16.2863 12.5926 17.0306 12.3665 17.8672L12.9457 18.0238L13.5249 18.1804C13.6656 17.6598 14.0203 17.1827 14.5689 16.883L14.2812 16.3564ZM12.3077 18.7327L12.1699 18.1487C11.4757 18.3125 10.749 18.4 10 18.4V19V19.6C10.8427 19.6 11.6619 19.5015 12.4455 19.3167L12.3077 18.7327ZM10 19L10 18.4C9.2505 18.4 8.52341 18.3126 7.82904 18.1488L7.69125 18.7327L7.55345 19.3167C8.33743 19.5017 9.15698 19.6 9.99998 19.6L10 19ZM7.05346 18.0238L7.63271 17.8674C7.40673 17.0306 6.84146 16.2855 6.00534 15.8289L5.71777 16.3555L5.43021 16.8821C5.97877 17.1816 6.33349 17.6592 6.47421 18.1803L7.05346 18.0238ZM5.71777 16.3555L6.00523 15.8288C5.21656 15.3983 4.32639 15.3004 3.51128 15.4819L3.64168 16.0676L3.77207 16.6532C4.31955 16.5313 4.9108 16.5986 5.43032 16.8821L5.71777 16.3555ZM2.76648 15.8439L3.21163 15.4416C2.5195 14.6758 1.97262 13.7931 1.60712 12.8307L1.04621 13.0437L0.485293 13.2567C0.905514 14.3632 1.53252 15.3734 2.32133 16.2462L2.76648 15.8439ZM1.40027 12.0393L1.78014 12.5038C2.51211 11.9051 2.9877 11.0101 2.9877 10H2.3877H1.7877C1.7877 10.6207 1.4974 11.1847 1.0204 11.5749L1.40027 12.0393ZM2.3877 10L2.9877 9.99999C2.98768 8.98998 2.51244 8.09448 1.78037 7.49546L1.40041 7.95982L1.02044 8.42417C1.49736 8.81442 1.78768 9.37906 1.7877 10L2.3877 10ZM1.04632 6.95518L1.60722 7.16823C1.97278 6.20585 2.51957 5.32312 3.21159 4.5574L2.76644 4.1551L2.3213 3.7528C1.53252 4.62558 0.905658 5.63579 0.485423 6.74212L1.04632 6.95518ZM3.64168 3.93155L3.51119 4.51719C4.32661 4.69888 5.2173 4.60102 6.00632 4.17015L5.71875 3.64355L5.43118 3.11696C4.91152 3.40073 4.31995 3.46797 3.77217 3.34592L3.64168 3.93155ZM5.71875 3.64355L6.00638 4.17012C6.8425 3.71339 7.40726 2.96838 7.63291 2.13158L7.05361 1.97536L6.4743 1.81914C6.3338 2.34016 5.97955 2.81741 5.43112 3.11699L5.71875 3.64355ZM7.69142 1.26639L7.82901 1.8504C8.52315 1.68687 9.25034 1.60002 10 1.6L10 1L9.99998 0.4C9.15744 0.400025 8.33793 0.497651 7.55384 0.682374L7.69142 1.26639ZM7.05361 1.97536L7.63291 2.13158C7.65836 2.03721 7.69852 1.96248 7.73936 1.91421C7.77764 1.86896 7.80825 1.85529 7.82901 1.8504L7.69142 1.26639L7.55384 0.682374C6.92471 0.83059 6.59452 1.37332 6.4743 1.81914L7.05361 1.97536ZM1.40041 7.95982L1.78037 7.49546C1.69761 7.42774 1.64251 7.34922 1.61697 7.28372C1.59352 7.22359 1.59913 7.18954 1.60722 7.16823L1.04632 6.95518L0.485423 6.74212C0.219359 7.44257 0.609199 8.08767 1.02044 8.42417L1.40041 7.95982ZM3.64168 16.0676L3.51128 15.4819C3.42809 15.5004 3.35431 15.4991 3.30051 15.4868C3.24994 15.4753 3.22529 15.4568 3.21163 15.4416L2.76648 15.8439L2.32133 16.2462C2.7309 16.6994 3.32788 16.7521 3.77207 16.6532L3.64168 16.0676ZM7.69125 18.7327L7.82904 18.1488C7.80822 18.1438 7.77756 18.1301 7.73924 18.0848C7.69838 18.0365 7.6582 17.9618 7.63271 17.8674L7.05346 18.0238L6.47421 18.1803C6.59455 18.6259 6.92468 19.1683 7.55345 19.3167L7.69125 18.7327ZM12.9457 18.0238L12.3665 17.8672C12.3409 17.9616 12.3007 18.0364 12.2598 18.0847C12.2214 18.1301 12.1907 18.1438 12.1699 18.1487L12.3077 18.7327L12.4455 19.3167C13.0743 19.1683 13.4044 18.6259 13.5249 18.1804L12.9457 18.0238ZM17.2335 15.8439L16.7884 15.4416C16.7748 15.4567 16.7501 15.4752 16.6995 15.4868C16.6457 15.4991 16.5718 15.5004 16.4886 15.4819L16.3583 16.0676L16.228 16.6533C16.6721 16.752 17.2691 16.6995 17.6787 16.2462L17.2335 15.8439ZM18.9537 6.95523L18.3928 7.16828C18.4009 7.18959 18.4065 7.22365 18.3831 7.28378C18.3575 7.34927 18.3024 7.42779 18.2197 7.4955L18.5997 7.95983L18.9797 8.42417C19.3909 8.08765 19.7806 7.44257 19.5146 6.74219L18.9537 6.95523ZM1.04621 13.0437L1.60712 12.8307C1.59903 12.8094 1.59344 12.7754 1.61686 12.7153C1.64237 12.6499 1.69743 12.5714 1.78014 12.5038L1.40027 12.0393L1.0204 11.5749C0.609042 11.9113 0.219322 12.5564 0.485293 13.2567L1.04621 13.0437ZM16.3584 3.93154L16.4888 4.51717C16.572 4.49864 16.6458 4.49999 16.6996 4.51225C16.7501 4.52377 16.7748 4.54227 16.7884 4.55737L17.2335 4.15505L17.6787 3.75274C17.2691 3.29954 16.6721 3.24693 16.2279 3.3459L16.3584 3.93154ZM2.76644 4.1551L3.21159 4.5574C3.22524 4.54229 3.24988 4.52379 3.30044 4.51227C3.35423 4.50001 3.428 4.49866 3.51119 4.51719L3.64168 3.93155L3.77217 3.34592C3.32796 3.24694 2.73092 3.29956 2.3213 3.7528L2.76644 4.1551ZM18.5998 12.0393L18.2199 12.5037C18.3026 12.5714 18.3577 12.6498 18.3832 12.7152C18.4066 12.7753 18.401 12.8093 18.3929 12.8306L18.9538 13.0436L19.5147 13.2566C19.7807 12.5564 19.391 11.9114 18.9797 11.5749L18.5998 12.0393ZM12.3075 1.2664L12.1699 1.85042C12.1907 1.85532 12.2213 1.869 12.2597 1.91431C12.3006 1.96264 12.3408 2.03744 12.3663 2.1319L12.9455 1.97545L13.5248 1.81901C13.4044 1.37335 13.0742 0.830593 12.445 0.682387L12.3075 1.2664Z" fill="#333333"/>
</svg>
