<svg width="20" height="19" viewBox="0 0 20 19" fill="none" xmlns="http://www.w3.org/2000/svg">
<path d="M1 8.75C1 7.49097 1.59278 6.30542 2.6 5.55L7.6 1.8C9.02222 0.733333 10.9778 0.733333 12.4 1.8L17.4 5.55C18.4072 6.30542 19 7.49097 19 8.75V14C19 16.2091 17.2091 18 15 18H13.8421C13.2898 18 12.8421 17.5523 12.8421 17V14.6C12.8421 13.4954 11.9467 12.6 10.8421 12.6H9.1579C8.05333 12.6 7.15789 13.4954 7.15789 14.6V17C7.15789 17.5523 6.71018 18 6.15789 18H5C2.79086 18 1 16.2091 1 14L1 8.75Z" stroke="#0575E6" stroke-width="1.2"/>
</svg>
