<svg version="1.1" xmlns="http://www.w3.org/2000/svg" xmlns:xlink="http://www.w3.org/1999/xlink" width="512" height="512" viewBox="0,0,256,256"><defs><clipPath id="clip-1"><rect x="0" y="0" width="512" height="512" id="clip0_3515_3678" fill="none"></rect></clipPath></defs><g fill="none" fill-rule="nonzero" stroke="none" stroke-width="1" stroke-linecap="butt" stroke-linejoin="miter" stroke-miterlimit="10" stroke-dasharray="" stroke-dashoffset="0" font-family="none" font-weight="none" font-size="none" text-anchor="none" style="mix-blend-mode: normal"><g transform="scale(0.5,0.5)"><g clip-path="url(#clip-1)"><path d="M256,0c-50.632,0 -100.127,15.0141 -142.226,43.1438c-42.0989,28.1296 -74.911,68.1112 -94.287,114.8892c-19.37608,46.778 -24.44573,98.251 -14.56792,147.91c9.87782,49.659 34.25942,95.274 70.06172,131.076c35.8022,35.803 81.4172,60.184 131.0762,70.062c49.659,9.878 101.132,4.808 147.91,-14.568c46.778,-19.376 86.76,-52.188 114.889,-94.287c28.13,-42.099 43.144,-91.594 43.144,-142.226c-0.073,-67.873 -27.068,-132.945 -75.062,-180.9382c-47.993,-47.9935 -113.065,-74.98839 -180.938,-75.0618zM256,469.333c-42.193,0 -83.439,-12.511 -118.522,-35.953c-35.082,-23.441 -62.4255,-56.759 -78.5722,-95.741c-16.1467,-38.981 -20.3714,-81.876 -12.1399,-123.258c8.2315,-41.383 28.5496,-79.395 58.3851,-109.23c29.835,-29.8356 67.847,-50.1537 109.23,-58.3852c41.382,-8.2315 84.277,-4.0068 123.258,12.1399c38.982,16.1467 72.3,43.4903 95.741,78.5723c23.442,35.083 35.953,76.329 35.953,118.522c-0.062,56.56 -22.558,110.787 -62.552,150.781c-39.994,39.994 -94.22,62.49 -150.781,62.552zM362.667,256c0,5.658 -2.248,11.084 -6.249,15.085c-4,4.001 -9.427,6.248 -15.085,6.248h-64v64c0,5.658 -2.247,11.085 -6.248,15.085c-4.001,4.001 -9.427,6.249 -15.085,6.249c-5.658,0 -11.084,-2.248 -15.085,-6.249c-4.001,-4 -6.248,-9.427 -6.248,-15.085v-64h-64c-5.658,0 -11.084,-2.247 -15.085,-6.248c-4.001,-4.001 -6.249,-9.427 -6.249,-15.085c0,-5.658 2.248,-11.084 6.249,-15.085c4.001,-4.001 9.427,-6.248 15.085,-6.248h64v-64c0,-5.658 2.247,-11.084 6.248,-15.085c4.001,-4.001 9.427,-6.249 15.085,-6.249c5.658,0 11.084,2.248 15.085,6.249c4.001,4.001 6.248,9.427 6.248,15.085v64h64c5.658,0 11.085,2.247 15.085,6.248c4.001,4.001 6.249,9.427 6.249,15.085z" fill="#4d61c7"></path></g></g></g></svg>