<svg version="1.1" xmlns="http://www.w3.org/2000/svg" xmlns:xlink="http://www.w3.org/1999/xlink" width="512" height="512" viewBox="0,0,256,256"><defs><clipPath id="clip-1"><rect x="0" y="0" width="512" height="512" id="clip0_3515_3700" fill="none"></rect></clipPath></defs><g fill="none" fill-rule="nonzero" stroke="none" stroke-width="1" stroke-linecap="butt" stroke-linejoin="miter" stroke-miterlimit="10" stroke-dasharray="" stroke-dashoffset="0" font-family="none" font-weight="none" font-size="none" text-anchor="none" style="mix-blend-mode: normal"><g transform="scale(0.5,0.5)"><g clip-path="url(#clip-1)"><path d="M335.083,207.083l-48.918,48.917l48.918,48.917c8.341,8.342 8.341,21.824 0,30.166c-4.16,4.16 -9.622,6.25 -15.083,6.25c-5.461,0 -10.923,-2.09 -15.083,-6.25l-48.917,-48.918l-48.917,48.918c-4.16,4.16 -9.622,6.25 -15.083,6.25c-5.461,0 -10.923,-2.09 -15.083,-6.25c-8.341,-8.342 -8.341,-21.824 0,-30.166l48.918,-48.917l-48.918,-48.917c-8.341,-8.342 -8.341,-21.824 0,-30.166c8.342,-8.341 21.824,-8.341 30.166,0l48.917,48.918l48.917,-48.918c8.342,-8.341 21.824,-8.341 30.166,0c8.341,8.342 8.341,21.824 0,30.166zM512,256c0,141.163 -114.837,256 -256,256c-141.163,0 -256,-114.837 -256,-256c0,-141.163 114.837,-256 256,-256c141.163,0 256,114.837 256,256zM469.333,256c0,-117.632 -95.701,-213.3333 -213.333,-213.3333c-117.632,0 -213.3333,95.7013 -213.3333,213.3333c0,117.632 95.7013,213.333 213.3333,213.333c117.632,0 213.333,-95.701 213.333,-213.333z" fill="#4d61c7"></path></g></g></g></svg>