<svg version="1.1" xmlns="http://www.w3.org/2000/svg" xmlns:xlink="http://www.w3.org/1999/xlink" width="512" height="512" viewBox="0,0,256,256"><defs><clipPath id="clip-1"><rect x="0" y="0" width="512" height="512" id="clip0_3515_3717" fill="none"></rect></clipPath></defs><g fill="none" fill-rule="nonzero" stroke="none" stroke-width="1" stroke-linecap="butt" stroke-linejoin="miter" stroke-miterlimit="10" stroke-dasharray="" stroke-dashoffset="0" font-family="none" font-weight="none" font-size="none" text-anchor="none" style="mix-blend-mode: normal"><g transform="scale(0.5,0.5)"><g clip-path="url(#clip-1)"><path d="M397.994,19.8402l-260.096,260.0958c-9.934,9.881 -17.809,21.633 -23.17,34.578c-5.361,12.945 -8.101,26.825 -8.062,40.836v28.65c0,5.658 2.248,11.084 6.249,15.085c4.001,4.001 9.427,6.249 15.085,6.249h28.65c14.011,0.039 27.891,-2.701 40.836,-8.062c12.945,-5.361 24.697,-13.236 34.578,-23.17l260.096,-260.096c12.467,-12.498 19.468,-29.4303 19.468,-47.0831c0,-17.6528 -7.001,-34.585 -19.468,-47.0827c-12.679,-12.11956 -29.543,-18.88317 -47.083,-18.88317c-17.54,0 -34.404,6.76361 -47.083,18.88317zM461.994,83.8402l-260.096,260.0958c-12.029,11.956 -28.287,18.686 -45.248,18.731h-7.317v-7.317c0.045,-16.961 6.775,-33.219 18.731,-45.248l260.096,-260.0964c4.556,-4.353 10.616,-6.782 16.917,-6.782c6.302,0 12.361,2.429 16.917,6.782c4.479,4.491 6.994,10.5747 6.994,16.9173c0,6.3426 -2.515,12.4264 -6.994,16.9173z" fill="#4d61c7"></path><path d="M490.667,191.552c-5.658,0 -11.084,2.248 -15.085,6.248c-4.001,4.001 -6.249,9.427 -6.249,15.085v107.115h-85.333c-16.974,0 -33.252,6.743 -45.255,18.745c-12.002,12.003 -18.745,28.281 -18.745,45.255v85.333h-213.333c-16.9742,0 -33.2528,-6.742 -45.2552,-18.745c-12.0023,-12.002 -18.7451,-28.281 -18.7451,-45.255v-298.666c0,-16.9742 6.7428,-33.2528 18.7451,-45.2552c12.0024,-12.0023 28.281,-18.7451 45.2552,-18.7451h192.896c5.658,0 11.084,-2.2476 15.085,-6.2484c4,-4.0008 6.248,-9.427 6.248,-15.085c0,-5.6579 -2.248,-11.0841 -6.248,-15.08491c-4.001,-4.00078 -9.427,-6.24839 -15.085,-6.24839h-192.896c-28.2797,0.03387 -55.3911,11.2828 -75.3876,31.2794c-19.9966,19.9965 -31.24553,47.1079 -31.2794,75.3876v298.666c0.03387,28.28 11.2828,55.391 31.2794,75.388c19.9965,19.996 47.1079,31.245 75.3876,31.279h241.984c14.014,0.04 27.897,-2.7 40.845,-8.061c12.948,-5.361 24.705,-13.236 34.589,-23.171l56.662,-56.704c9.936,-9.88 17.814,-21.632 23.178,-34.577c5.365,-12.944 8.109,-26.824 8.075,-40.836v-135.766c0,-5.658 -2.248,-11.084 -6.248,-15.085c-4.001,-4 -9.427,-6.248 -15.085,-6.248zM393.92,450.603c-8.576,8.555 -19.42,14.477 -31.253,17.066v-83.669c0,-5.658 2.247,-11.084 6.248,-15.085c4.001,-4.001 9.427,-6.248 15.085,-6.248h83.733c-2.639,11.808 -8.554,22.633 -17.066,31.232z" fill="#4d61c7"></path></g></g></g></svg>