<svg version="1.1" xmlns="http://www.w3.org/2000/svg" xmlns:xlink="http://www.w3.org/1999/xlink" width="512" height="512" viewBox="0,0,256,256"><defs><clipPath id="clip-1"><rect x="0" y="0" width="512" height="512" id="clip0_3515_3768" fill="none"></rect></clipPath></defs><g fill="none" fill-rule="nonzero" stroke="none" stroke-width="1" stroke-linecap="butt" stroke-linejoin="miter" stroke-miterlimit="10" stroke-dasharray="" stroke-dashoffset="0" font-family="none" font-weight="none" font-size="none" text-anchor="none" style="mix-blend-mode: normal"><g transform="scale(0.5,0.5)"><g clip-path="url(#clip-1)"><path d="M448,85.3333h-66.133c-4.952,-24.0765 -18.052,-45.7099 -37.094,-61.254c-19.041,-15.54405 -42.859,-24.04827 -67.44,-24.0793h-42.666c-24.581,0.03103 -48.399,8.53525 -67.441,24.0793c-19.041,15.5441 -32.141,37.1775 -37.093,61.254h-66.1332c-5.6579,0 -11.0841,2.2477 -15.0849,6.2484c-4.0008,4.0008 -6.2484,9.4273 -6.2484,15.0853c0,5.658 2.2476,11.084 6.2484,15.085c4.0008,4 9.427,6.248 15.0849,6.248h21.3334v277.333c0.0338,28.28 11.2828,55.391 31.2798,75.388c19.996,19.996 47.107,31.245 75.387,31.279h128c28.279,-0.034 55.391,-11.283 75.387,-31.279c19.997,-19.997 31.246,-47.108 31.28,-75.388v-277.333h21.333c5.658,0 11.084,-2.248 15.085,-6.248c4.001,-4.001 6.248,-9.427 6.248,-15.085c0,-5.658 -2.247,-11.0845 -6.248,-15.0853c-4.001,-4.0007 -9.427,-6.2484 -15.085,-6.2484zM234.667,42.6667h42.666c13.233,0.0161 26.136,4.1253 36.941,11.7641c10.805,7.6388 18.983,18.433 23.411,30.9025h-163.371c4.429,-12.4695 12.606,-23.2637 23.411,-30.9025c10.805,-7.6388 23.709,-11.748 36.942,-11.7641zM384,405.333c0,16.974 -6.743,33.253 -18.745,45.255c-12.003,12.003 -28.281,18.745 -45.255,18.745h-128c-16.974,0 -33.253,-6.742 -45.255,-18.745c-12.002,-12.002 -18.745,-28.281 -18.745,-45.255v-277.333h256z" fill="#4d61c7"></path><path d="M213.333,384c5.658,0 11.084,-2.248 15.085,-6.249c4.001,-4 6.249,-9.427 6.249,-15.085v-128c0,-5.658 -2.248,-11.084 -6.249,-15.085c-4.001,-4 -9.427,-6.248 -15.085,-6.248c-5.658,0 -11.084,2.248 -15.085,6.248c-4,4.001 -6.248,9.427 -6.248,15.085v128c0,5.658 2.248,11.085 6.248,15.085c4.001,4.001 9.427,6.249 15.085,6.249z" fill="#4d61c7"></path><path d="M298.667,384c5.658,0 11.084,-2.248 15.085,-6.249c4.001,-4 6.248,-9.427 6.248,-15.085v-128c0,-5.658 -2.247,-11.084 -6.248,-15.085c-4.001,-4 -9.427,-6.248 -15.085,-6.248c-5.658,0 -11.084,2.248 -15.085,6.248c-4.001,4.001 -6.249,9.427 -6.249,15.085v128c0,5.658 2.248,11.085 6.249,15.085c4.001,4.001 9.427,6.249 15.085,6.249z" fill="#4d61c7"></path></g></g></g></svg>