<svg version="1.1" xmlns="http://www.w3.org/2000/svg" xmlns:xlink="http://www.w3.org/1999/xlink" width="512" height="512" viewBox="0,0,256,256"><g fill="#4d61c7" fill-rule="nonzero" stroke="none" stroke-width="1" stroke-linecap="butt" stroke-linejoin="miter" stroke-miterlimit="10" stroke-dasharray="" stroke-dashoffset="0" font-family="none" font-weight="none" font-size="none" text-anchor="none" style="mix-blend-mode: normal"><g transform="translate(0.00177,0) scale(0.5,0.5)"><path d="M508.181,238.528c-18.73,-40.96 -92.181,-174.528 -252.181,-174.528c-159.9998,0 -233.4505,133.568 -252.18115,174.528c-2.51438,5.489 -3.81592,11.456 -3.81592,17.493c0,6.038 1.30154,12.005 3.81592,17.494c18.73065,40.917 92.18135,174.485 252.18115,174.485c160,0 233.451,-133.568 252.181,-174.528c2.51,-5.483 3.809,-11.442 3.809,-17.472c0,-6.03 -1.299,-11.989 -3.809,-17.472zM256,405.333c-134.549,0 -197.3331,-114.474 -213.3331,-149.098c16,-35.094 78.7841,-149.568 213.3331,-149.568c134.23,0 197.035,113.984 213.333,149.333c-16.298,35.349 -79.103,149.333 -213.333,149.333z"></path><path d="M256,149.333c-21.096,0 -41.719,6.256 -59.261,17.977c-17.541,11.72 -31.213,28.379 -39.286,47.87c-8.073,19.491 -10.186,40.938 -6.07,61.629c4.116,20.692 14.275,39.698 29.192,54.615c14.918,14.918 33.924,25.077 54.616,29.193c20.691,4.116 42.138,2.003 61.629,-6.07c19.491,-8.074 36.15,-21.745 47.87,-39.287c11.721,-17.541 17.977,-38.164 17.977,-59.26c-0.034,-28.28 -11.283,-55.391 -31.279,-75.388c-19.997,-19.996 -47.108,-31.245 -75.388,-31.279zM256,320c-12.658,0 -25.032,-3.754 -35.556,-10.786c-10.525,-7.033 -18.728,-17.028 -23.572,-28.723c-4.844,-11.694 -6.112,-24.562 -3.642,-36.977c2.469,-12.415 8.565,-23.819 17.515,-32.769c8.951,-8.951 20.355,-15.046 32.769,-17.516c12.415,-2.469 25.283,-1.202 36.978,3.642c11.694,4.844 21.69,13.047 28.722,23.572c7.033,10.525 10.786,22.899 10.786,35.557c0,16.974 -6.743,33.252 -18.745,45.255c-12.002,12.002 -28.281,18.745 -45.255,18.745z"></path></g></g></svg>